<?xml version="1.0" standalone="no"?>
<!DOCTYPE svg PUBLIC "-//W3C//DTD SVG 1.1//EN" "http://www.w3.org/Graphics/SVG/1.1/DTD/svg11.dtd" >
<svg xmlns="http://www.w3.org/2000/svg" xmlns:xlink="http://www.w3.org/1999/xlink" version="1.1">
<metadata></metadata>
<defs>
<font id="utm_nyalaregular" horiz-adv-x="1350" >
<font-face units-per-em="2048" ascent="1638" descent="-410" />
<missing-glyph horiz-adv-x="600" />
<glyph unicode="&#xd;" horiz-adv-x="571" />
<glyph unicode=" "  horiz-adv-x="600" />
<glyph unicode="&#x09;" horiz-adv-x="600" />
<glyph unicode="&#xa0;" horiz-adv-x="600" />
<glyph unicode="!" horiz-adv-x="468" d="M343 1181q10 0 17 -5t7 -15v-5l-77 -813q-1 -11 -4.5 -14.5t-12.5 -4.5l-46 -3q-11 -1 -14.5 2.5t-4.5 14.5l-39 803v3q0 20 24 25q16 3 38.5 5t45 3.5t40.5 2.5t26 1zM353 79q0 -54 -30 -80t-87 -26q-46 0 -71 29t-25 77q0 57 31 82t86 25q48 0 72 -28t24 -79z" />
<glyph unicode="&#x22;" horiz-adv-x="621" d="M82 1196q-1 6 -1 11v10q0 22 14.5 26.5t44.5 4.5h63q19 0 28.5 -4t9.5 -22q-1 -7 -1.5 -13.5t-1.5 -14.5l-33 -275q-11 -83 -70 -83q-11 0 -23 3zM362 1196q-1 6 -1 11v10q0 22 14.5 26.5t44.5 4.5h63q19 0 28.5 -4t9.5 -22q-1 -7 -1.5 -13.5t-1.5 -14.5l-33 -275 q-11 -83 -70 -83q-11 0 -23 3z" />
<glyph unicode="#" horiz-adv-x="806" d="M574 616l-37 -237h193l-15 -72l-189 -1l-44 -281l-76 -6l43 286l-179 -1l-43 -279l-76 -6l42 285l-153 -1l-5 76h170l35 235l-164 -1l-5 76h180l38 250l83 15l-42 -265h176l38 250l83 15l-41 -265h180l-15 -72zM282 379h178l35 236l-176 -1z" />
<glyph unicode="$" horiz-adv-x="883" d="M602 792q0 60 -34.5 93.5t-88.5 42.5l-1 -353q61 -22 117 -47.5t99 -60t68.5 -81.5t25.5 -112q0 -71 -25 -123t-67.5 -88t-99.5 -57t-120 -29v-115l-72 -15l-1 125h-8q-37 0 -88.5 6t-98.5 24t-80 51.5t-33 88.5q0 23 9.5 40t25.5 28t36.5 16.5t42.5 5.5q21 0 42 -3v-29 q0 -75 38.5 -112.5t113.5 -42.5v372q-58 22 -112 48t-95.5 62t-66.5 84t-25 114t24 115t64.5 82t94.5 51.5t114 24.5v122l79 9l-1 -128q36 -1 84 -6.5t91 -22t72.5 -46.5t29.5 -79q0 -23 -10 -39t-26 -26.5t-36 -15.5t-41 -5q-20 0 -41 3v28zM639 221q0 36 -13.5 63 t-36 47.5t-52 35.5t-60.5 27l-1 -346q34 6 64 20.5t52 36.5t34.5 51t12.5 65zM250 779q0 -38 12.5 -66t33.5 -49t48.5 -36.5t57.5 -28.5l-1 329q-32 -4 -59.5 -15.5t-47.5 -30.5t-32 -44.5t-12 -58.5z" />
<glyph unicode="%" horiz-adv-x="1454" d="M349 1000q139 0 204.5 -74.5t65.5 -218.5q0 -155 -75 -233t-224 -78q-67 0 -117.5 20.5t-84.5 59t-51 93t-17 123.5q0 156 75 232t224 76zM326 932q-39 0 -64 -18t-39 -48t-19.5 -69t-5.5 -81q0 -47 6 -92t22 -80.5t44 -57.5t73 -22q39 0 64 18.5t39 49t19.5 70t5.5 81.5 q0 46 -6 91t-22 80t-44 56.5t-73 21.5zM335 6l701 1008l79 -35l-703 -1009zM1134 589q139 0 204.5 -74.5t65.5 -218.5q0 -155 -75 -233t-224 -78q-67 0 -117.5 20.5t-84.5 59t-51 93t-17 123.5q0 156 75 232t224 76zM1111 521q-39 0 -64 -18t-39 -48t-19.5 -69t-5.5 -81 q0 -47 6 -92t22 -80.5t44 -57.5t73 -22q39 0 64 18.5t39 49t19.5 70t5.5 81.5q0 46 -6 91t-22 80t-44 56.5t-73 21.5z" />
<glyph unicode="&#x26;" horiz-adv-x="1198" d="M822 629l155 84q54 -52 79 -113.5t25 -121.5q0 -85 -34 -156t-91 -131q38 -35 83.5 -75t90.5 -82q7 -7 7 -15t-6.5 -13t-15.5 -7q-54 -11 -94.5 -13.5t-52.5 -2.5q-11 0 -21.5 2.5t-21.5 12.5q-24 21 -49 42.5t-48 41.5q-36 -25 -80.5 -45t-94.5 -34.5t-103 -22 t-106 -7.5q-79 0 -150.5 18t-125.5 56.5t-86 97t-32 139.5q0 61 18.5 106.5t50.5 83.5t76.5 71.5t96.5 69.5q-55 75 -78 137.5t-23 124.5q0 82 31 140.5t83 96t119.5 55.5t139.5 18q41 0 92 -7t96 -26t75.5 -52.5t30.5 -85.5q0 -57 -35 -81.5t-90 -24.5q-23 0 -47 3v32 q0 72 -34.5 116t-106.5 44q-44 0 -77 -14.5t-55.5 -40.5t-34 -61.5t-11.5 -77.5q0 -41 10.5 -79.5t34.5 -81t63.5 -91t97.5 -108t136.5 -133.5t180.5 -167q49 73 49 143q0 111 -118 220zM763 140q-152 136 -256.5 237.5t-171.5 182.5q-49 -45 -70.5 -92t-21.5 -110 q0 -66 21 -119t59.5 -90.5t91.5 -57.5t118 -20q60 0 119.5 17.5t110.5 51.5z" />
<glyph unicode="'" horiz-adv-x="341" d="M82 1196q-1 6 -1 11v10q0 22 14.5 26.5t44.5 4.5h63q19 0 28.5 -4t9.5 -22q-1 -7 -1.5 -13.5t-1.5 -14.5l-33 -275q-11 -83 -70 -83q-11 0 -23 3z" />
<glyph unicode="(" horiz-adv-x="666" d="M561 -484q-101 68 -176 168t-125 220t-75 255t-25 273t25 273t75 255t125 220t176 168l45 -50q-82 -63 -143 -156.5t-101.5 -207.5t-61 -242t-20.5 -260q0 -131 20.5 -259.5t61 -242.5t101.5 -208t143 -156z" />
<glyph unicode=")" horiz-adv-x="666" d="M105 1348q100 -68 175.5 -168t125.5 -220t75 -255t25 -273t-25 -273t-75.5 -255t-125.5 -220t-175 -168l-45 50q81 63 142.5 157t102 207.5t61 241.5t20.5 260t-20.5 260.5t-61.5 242t-102 207t-142 156.5z" />
<glyph unicode="*" horiz-adv-x="772" d="M416 1071q36 18 70.5 35.5t64 32t51 24.5t31.5 13q35 11 45 -22q2 -6 4 -17.5t4 -25.5t3.5 -29.5t2.5 -30.5l-259 -33q28 -28 55.5 -56t50 -52t39 -41.5t22.5 -24.5q7 -10 7 -22q0 -15 -15 -28q-5 -3 -15 -8.5t-23 -11.5t-27 -13t-27 -13l-112 238l-36 -70t-33.5 -64.5 t-27.5 -50.5t-18 -28q-11 -17 -27 -17q-11 0 -21 10q-11 7 -32.5 28.5t-40.5 44.5l191 179q-40 6 -78.5 12.5t-71 12t-56 10.5t-32.5 8q-25 6 -25 28q0 4 0.5 7.5t1.5 8.5q4 13 18 40t31 51l228 -125l-12 78q-9 57 -14.5 102t-5.5 59q0 36 36 36q13 0 43 -5t58 -13z" />
<glyph unicode="+" horiz-adv-x="805" d="M364 355l-319 -2l-5 76h323l-1 320l78 5l-2 -325h327l-15 -72l-312 -2l-2 -326l-71 10z" />
<glyph unicode="," horiz-adv-x="379" d="M54 -202q50 42 69 93.5t19 102.5q0 43 -10 81t-27 67q-4 9 -1.5 17t12.5 11q20 5 41.5 8.5t40.5 6t33.5 4t20.5 1.5q14 0 20 -7t11 -18q8 -21 11.5 -42t3.5 -43q0 -47 -14 -93.5t-41 -87.5t-67 -74t-92 -54z" />
<glyph unicode="-" horiz-adv-x="605" d="M46 441h513l-5 -92l-503 -4z" />
<glyph unicode="." horiz-adv-x="379" d="M299 82q0 -57 -31.5 -83t-88.5 -26q-48 0 -73.5 29t-25.5 80q0 57 32 83.5t89 26.5q48 0 73 -29.5t25 -80.5z" />
<glyph unicode="/" horiz-adv-x="200" d="M-290 6l701 1008l79 -35l-703 -1009z" />
<glyph unicode="0" horiz-adv-x="966" d="M505 1001q94 0 165.5 -33.5t119.5 -97.5t72 -157t24 -211q0 -128 -27.5 -226.5t-81.5 -166t-133.5 -102.5t-182.5 -35q-95 0 -166 35t-119 100.5t-72 159t-24 211.5q0 523 425 523zM470 916q-63 0 -102.5 -33t-62.5 -87.5t-31.5 -126t-8.5 -148.5q0 -86 10 -169 t35.5 -148.5t70.5 -106t115 -40.5q63 0 103 34t62.5 90t31 128.5t8.5 149.5q0 85 -10 167.5t-35.5 146.5t-70.5 103.5t-115 39.5z" />
<glyph unicode="1" horiz-adv-x="499" d="M35 953q118 20 192 26.5t90 6.5q32 0 32 -36v-923q0 -24 -24 -28q-17 -3 -36.5 -5.5t-37.5 -4t-33 -2t-23 -0.5q-24 0 -24 25v790q0 31 -2.5 51.5t-10 32.5t-20.5 16.5t-35 4.5q-12 0 -27.5 -1t-34.5 -3z" />
<glyph unicode="2" horiz-adv-x="904" d="M116 687q0 6 1 37t3 70.5t4 78t4 58.5q1 14 20 22q55 18 128.5 32.5t152.5 14.5q87 0 152 -17.5t108.5 -48.5t65 -74.5t21.5 -94.5q0 -68 -32.5 -142t-99 -152.5t-169 -160t-242.5 -164.5h356q43 0 69 7.5t42.5 26t28 49t24.5 76.5l46 -4q0 -9 -1.5 -31t-3.5 -51t-4 -61 t-4.5 -62l-4.5 -54l-3 -36q-2 -8 -10 -8q-67 1 -111 1.5t-79 0.5h-287q-36 0 -81 -0.5t-114 -1.5q-9 0 -11 11l-13 100q-1 5 -1 12q0 6 2.5 9t8.5 6q132 76 226.5 156.5t154.5 158t88.5 149.5t28.5 132q0 40 -12 74t-35.5 58.5t-57 38t-76.5 13.5q-94 0 -153.5 -59.5 t-78.5 -174.5z" />
<glyph unicode="3" horiz-adv-x="930" d="M234 98q-1 -8 -1.5 -15.5t-0.5 -15.5q0 -88 45 -139t133 -51q59 0 105.5 17.5t78.5 49t48.5 76t16.5 99.5q0 81 -25.5 133t-70 82t-105 41.5t-130.5 11.5h-25l-9 75h17q154 0 229.5 55t75.5 182q0 56 -15.5 97t-43 67.5t-65 39.5t-82.5 13q-46 0 -85.5 -14t-70.5 -42 t-52.5 -71t-30.5 -100l-51 5q0 6 1 37t3 69.5t4 76t4 58.5q2 15 20 22q57 19 130 31t154 12q72 0 139.5 -12t120 -42t84 -81t31.5 -129q0 -45 -15 -88t-44.5 -81.5t-73 -69t-100.5 -49.5v-4q18 -3 46 -11t59 -22.5t63 -36.5t57 -54t41 -74t16 -97q0 -62 -18 -113t-50 -91 t-75.5 -69.5t-93.5 -48.5t-105 -28.5t-110 -9.5q-69 0 -132.5 13.5t-112.5 40t-78.5 65t-29.5 89.5q0 26 11 46t29.5 33.5t42 20t48.5 6.5q12 0 24 -1.5t24 -3.5z" />
<glyph unicode="4" horiz-adv-x="1013" d="M749 -163q0 -24 -24 -28q-17 -3 -36.5 -5.5t-37.5 -4t-33 -2t-23 -0.5q-24 0 -24 25v321l-520 -3l-11 97q46 71 88 134.5t83.5 122.5t83.5 115.5t87.5 114.5t96.5 118.5t110 127.5q6 7 19 10q33 6 67 8.5t50 2.5q24 0 24 -25l1 -712q67 2 123.5 4t87.5 2q8 0 14.5 -5 t6.5 -16v-6.5t-1 -11.5l-5 -76l-227 -1v-307zM145 240q43 1 97.5 2t112 2.5t113.5 2.5t103 2v579q-60 -72 -113.5 -141t-104.5 -140t-102 -146.5t-106 -160.5z" />
<glyph unicode="5" horiz-adv-x="951" d="M151 429l20 543q1 14 13.5 16.5t26.5 -0.5q66 -15 137.5 -27t146.5 -12q73 0 142.5 15t130.5 57l28 -28q-57 -106 -158.5 -164t-231.5 -58q-74 0 -155 21l-9 -263q57 20 92 33t59.5 21t43.5 11t43 3q95 0 166.5 -31.5t119 -84.5t71.5 -121.5t24 -142.5 q0 -77 -28.5 -153.5t-85.5 -137.5t-143 -99t-201 -38q-65 0 -127 13.5t-110 40t-77 65t-29 89.5q0 26 11 46t29.5 33t42 19.5t48.5 6.5q12 0 24 -1.5t24 -3.5q-1 -8 -1.5 -15t-0.5 -15q0 -91 50 -140.5t132 -49.5q60 0 107.5 24t79.5 64.5t49 95t17 116.5q0 68 -21.5 122 t-61 91.5t-94.5 57t-122 19.5q-89 0 -218 -41z" />
<glyph unicode="6" horiz-adv-x="1037" d="M585 779q87 0 156.5 -28.5t118.5 -78.5t75.5 -119t26.5 -150q0 -92 -34 -171t-93 -136.5t-138.5 -90.5t-169.5 -33q-107 0 -188 42t-135 114t-81.5 167t-27.5 201q0 85 16 169t48.5 161t80 143t111 114.5t141.5 76t171 27.5q81 0 173 -24l-13 -60q-28 5 -54.5 7.5 t-51.5 2.5q-97 0 -169 -35t-122.5 -93.5t-80.5 -136t-43 -162.5q104 42 170.5 67.5t112.5 25.5zM291 545q0 -46 5 -100t17 -107.5t31.5 -104t48.5 -89t68.5 -61.5t90.5 -23q54 0 95.5 27.5t69.5 71t42.5 97t14.5 104.5q0 67 -21 121t-59.5 91t-93 57t-120.5 20 q-77 0 -187 -32q-1 -9 -1.5 -18t-0.5 -18v-36z" />
<glyph unicode="7" horiz-adv-x="924" d="M849 969l-423 -1126q-5 -13 -13 -17.5t-22 -8.5q-22 -6 -47.5 -10t-49.5 -7t-43 -4t-27 -1t-12 4.5t-4 10.5q0 8 6 19l488 1005h-437q-43 0 -69.5 -8.5t-43.5 -28t-28 -50.5t-23 -77l-46 4q0 29 2 73t4.5 88.5t5.5 82.5t5 56q2 8 10 8q67 -1 111 -1.5t78 -0.5h570z" />
<glyph unicode="8" horiz-adv-x="1010" d="M935 299q0 -83 -40.5 -144.5t-105 -102t-145 -60.5t-161.5 -20q-78 0 -152 19t-132 57t-93.5 95.5t-35.5 134.5q0 46 14 85t44 76t78.5 75t117.5 83q-44 24 -82.5 52t-67.5 63t-46 77.5t-17 96.5q0 75 36 131.5t95 94.5t134.5 57.5t154.5 19.5q69 0 134 -17.5t115.5 -51 t81 -82t30.5 -109.5q0 -39 -14.5 -74t-43 -69.5t-72.5 -70.5t-102 -76q54 -27 103.5 -59.5t88 -73t61 -92t22.5 -115.5zM399 559q-149 -98 -149 -247q0 -57 20 -104t55.5 -81t84 -52.5t106.5 -18.5q47 0 89 14.5t73.5 41t49.5 64.5t18 85q0 58 -30.5 100.5t-80 76.5 t-111.5 62.5t-125 58.5zM581 677q69 51 102.5 105.5t33.5 120.5q0 90 -57.5 145.5t-170.5 55.5q-46 0 -85 -12t-67 -34.5t-44 -55t-16 -72.5q0 -45 25.5 -80t68 -64.5t97 -55.5t113.5 -53z" />
<glyph unicode="9" horiz-adv-x="1021" d="M422 232q-83 0 -147.5 25.5t-108.5 71t-67.5 110t-23.5 142.5q0 93 33 170.5t90.5 132.5t136.5 85.5t171 30.5q106 0 186.5 -42t134.5 -114t81.5 -167t27.5 -201q0 -135 -37.5 -259.5t-111.5 -220.5t-183.5 -153.5t-253.5 -57.5q-88 0 -185 30l13 60q54 -16 118 -16 q109 0 188 37t132 101.5t82 151.5t38 188q-112 -45 -189 -75t-125 -30zM740 427q0 46 -5 100t-17 107.5t-31 104t-48 89t-67.5 61.5t-89.5 23q-55 0 -96 -24t-68.5 -63t-41.5 -88.5t-14 -100.5q0 -128 65.5 -201t199.5 -73q45 0 100.5 11t112.5 29v25z" />
<glyph unicode=":" horiz-adv-x="379" d="M339 82q0 -57 -31.5 -83t-88.5 -26q-48 0 -73.5 29t-25.5 80q0 57 32 83.5t89 26.5q48 0 73 -29.5t25 -80.5zM339 592q0 -57 -31.5 -83t-88.5 -26q-48 0 -73.5 29t-25.5 80q0 57 32 83.5t89 26.5q48 0 73 -29.5t25 -80.5z" />
<glyph unicode=";" horiz-adv-x="379" d="M339 592q0 -57 -31.5 -83t-88.5 -26q-48 0 -73.5 29t-25.5 80q0 57 32 83.5t89 26.5q48 0 73 -29.5t25 -80.5zM94 -202q50 42 69 93.5t19 102.5q0 43 -10 81t-27 67q-4 9 -1.5 17t12.5 11q20 5 41.5 8.5t40.5 6t33.5 4t20.5 1.5q14 0 20 -7t11 -18q8 -21 11.5 -42 t3.5 -43q0 -47 -14 -93.5t-41 -87.5t-67 -74t-92 -54z" />
<glyph unicode="&#x3c;" horiz-adv-x="417" d="M90 531q31 4 63 14t60.5 31t53.5 56.5t43 90.5h16q11 -44 11 -81q0 -45 -14 -87.5t-41 -76.5t-68 -57t-95 -29v-40q54 -7 95 -29.5t68 -56.5t41 -76t14 -88q0 -37 -11 -81h-16q-21 56 -47 91.5t-54.5 56.5t-58.5 30.5t-60 13.5v318z" />
<glyph unicode="=" horiz-adv-x="805" d="M45 203l-5 76h725l-15 -72zM45 493l-5 76h725l-15 -72z" />
<glyph unicode="&#x3e;" horiz-adv-x="417" d="M327 213q-32 -4 -63.5 -14t-60.5 -31t-53.5 -56.5t-42.5 -90.5h-16q-11 44 -11 81q0 45 14 87.5t41 76.5t68 57t95 29v40q-54 7 -95 29.5t-68 56.5t-41 76t-14 88q0 37 11 81h16q21 -56 46.5 -91.5t54 -56.5t59 -30.5t60.5 -13.5v-318z" />
<glyph unicode="?" horiz-adv-x="751" d="M154 980q-34 55 -34 97q0 31 16.5 52t43.5 34.5t61.5 19.5t70.5 6q69 0 135.5 -18t118 -53t83.5 -87.5t32 -122.5q0 -46 -14.5 -81.5t-38.5 -65t-56 -55t-67 -50.5q-30 -21 -58 -40.5t-50 -40.5t-35.5 -45.5t-13.5 -55.5q0 -29 13.5 -60.5t42.5 -73.5q-23 -16 -45.5 -25 t-43.5 -9q-29 0 -51 10t-37 27t-23 40t-8 49q0 43 18 79.5t46.5 68t65 59t73.5 53.5q34 24 66.5 47.5t57.5 48t40 51t15 57.5q0 37 -18 63.5t-47.5 43t-68 24t-80.5 7.5q-126 0 -210 -54zM412 79q0 -54 -30 -80t-87 -26q-46 0 -71 29t-25 77q0 57 31 82t86 25q48 0 72 -28 t24 -79z" />
<glyph unicode="@" horiz-adv-x="1513" d="M495 641q46 19 91 34t84.5 25.5t72 16t53.5 5.5q64 0 107.5 -16t70.5 -50t38.5 -87.5t10.5 -128.5l-4 -350q5 -1 9.5 -1h7.5h15q64 0 108.5 30.5t72.5 79.5t40 110t12 122q0 112 -37 202.5t-102.5 154.5t-156 98t-198.5 34q-137 0 -243 -45.5t-179 -124.5t-111 -187 t-38 -232q0 -135 42.5 -248.5t122 -195.5t193 -128t254.5 -46q39 0 76 4t74.5 12t77 19.5t84.5 26.5l25 -59q-109 -52 -211.5 -76t-202.5 -24q-154 0 -277.5 53.5t-210.5 147t-134 219.5t-47 271q0 156 53.5 288t150 228.5t232 151t300.5 54.5q129 0 236.5 -40t185.5 -115.5 t121.5 -184t43.5 -246.5q0 -95 -26 -179t-78.5 -147t-130.5 -99.5t-181 -36.5q-39 0 -85 6q-10 2 -14.5 5t-8.5 14l-16 49q-33 -16 -68.5 -29.5t-68 -23.5t-60 -16t-43.5 -6q-47 0 -81.5 18.5t-57 47t-33 62t-10.5 64.5q0 54 18.5 91.5t49.5 63.5q27 22 64 36t81.5 22t96 12 t108.5 6l1 32q1 45 -5 80t-21.5 59t-41 36.5t-64.5 12.5q-48 0 -100.5 -11.5t-118.5 -34.5zM863 338q-42 -3 -78.5 -5t-66.5 -7.5t-53 -15t-38 -27.5q-24 -30 -24 -78q0 -20 5.5 -41t20 -38.5t39.5 -29t63 -11.5q11 0 47.5 8.5t81.5 30.5z" />
<glyph unicode="A" horiz-adv-x="1139" d="M296 419l-154 -415q-4 -11 -18 -13q-18 -2 -41 -3t-52 -1q-16 0 -16 10q0 3 1 5l458 1098l-21 58q-2 8 -2 11q0 15 19 18q16 3 37.5 5.5t41.5 4.5t37 3t25 1q20 0 29 -23l446 -1148q3 -8 3 -11q0 -17 -20 -20q-18 -3 -40.5 -5.5t-44 -4t-39.5 -2t-26 -0.5q-17 0 -23 15 l-163 424zM328 504h375l-190 496z" />
<glyph unicode="B" horiz-adv-x="1013" d="M31 1150q88 14 191 27t232 13q48 0 100.5 -4t103.5 -14.5t97 -30t81.5 -50.5t56 -75.5t20.5 -104.5q0 -44 -15 -87.5t-44.5 -82t-73 -69.5t-100.5 -50v-4q17 -3 45 -10.5t59.5 -22t63.5 -36.5t57.5 -53t41.5 -72.5t16 -95.5q0 -21 -5 -54.5t-21.5 -71.5t-47 -76.5 t-81.5 -69.5t-126 -50.5t-179 -19.5q-47 0 -83.5 2t-72 5t-74 5t-89.5 2q-24 0 -24 25v990q0 50 -22 66.5t-57 16.5q-20 0 -44 -3zM346 85q12 -3 30.5 -5.5t39.5 -4.5t43.5 -3t42.5 -1q73 0 122 21.5t78 54.5t41 71.5t12 71.5q0 81 -25.5 133.5t-72 83t-112 42t-144.5 11.5 h-28h-13.5t-13.5 -1v-474zM346 640q10 0 19.5 -0.5t18.5 -0.5q83 0 145 13t102.5 41t60.5 72.5t20 108.5q0 63 -21 107.5t-58.5 73t-90 41.5t-115.5 13q-43 0 -62 -6t-19 -36v-427z" />
<glyph unicode="C" horiz-adv-x="1181" d="M1131 75q-52 -29 -114 -49t-121.5 -32t-111 -17.5t-83.5 -5.5q-138 0 -252 46.5t-195.5 128.5t-126.5 195t-45 247q0 145 51 257t141 188.5t213 116t267 39.5q81 0 155 -10.5t144 -25.5q9 -2 14.5 -8.5t6.5 -13.5q1 -14 2.5 -36t2.5 -47.5t2.5 -52t2.5 -49t1.5 -38.5 t0.5 -20l-50 -5q-6 62 -36.5 105t-75.5 69.5t-99.5 38.5t-108.5 12q-109 0 -189.5 -36t-134 -99.5t-80 -150t-26.5 -188.5q0 -119 32.5 -221.5t97.5 -177.5t162 -118t227 -43q78 0 151 17t148 46z" />
<glyph unicode="D" horiz-adv-x="1282" d="M184 0q-24 0 -24 25v987q0 51 -22 67.5t-57 16.5q-20 0 -44 -3l-6 54q112 19 226.5 30.5t229.5 11.5q96 0 187.5 -11t172 -37t147.5 -69t115.5 -107t75.5 -151t27 -201q0 -151 -53.5 -268.5t-149 -198.5t-227 -123t-286.5 -42q-45 0 -79.5 3t-68.5 6.5t-72.5 6.5t-91.5 3 zM346 80q38 -9 77 -12.5t81 -3.5q120 0 214 36.5t158 104.5t97.5 165t33.5 218q0 115 -34.5 210t-100.5 163.5t-162 106t-219 37.5h-51q-45 0 -69.5 -7.5t-24.5 -40.5v-977z" />
<glyph unicode="E" horiz-adv-x="975" d="M346 155q0 -24 1.5 -37.5t8 -21t21.5 -9.5t42 -2h129q80 0 130 3.5t85 23t61.5 62t59.5 120.5l50 -11q0 -7 -4.5 -36t-11.5 -67.5t-16 -78.5t-18 -70q-13 -34 -49 -34q-37 0 -88 0.5t-113.5 1t-134 1t-149.5 0.5h-166q-14 0 -19 8.5t-5 16.5v961q0 51 -23 67.5t-57 16.5 q-21 0 -43 -3l-6 55q21 4 61 10t83.5 12t84 10t63.5 4h364q34 0 71 0.5t82 1.5q16 0 18 -15q1 -14 2.5 -37t2.5 -50t2.5 -55t2.5 -52t1.5 -41t0.5 -21l-50 -5q-17 71 -34.5 110t-44.5 57t-68.5 21.5t-107.5 3.5h-176q-17 0 -25.5 -1t-12.5 -5t-4.5 -11.5t-0.5 -20.5v-405 q82 4 150.5 7.5t119 6t81.5 4t38 1.5q28 0 28 -30q0 -19 -2 -39t-5 -43l-410 14v-399z" />
<glyph unicode="F" horiz-adv-x="885" d="M346 27q0 -24 -24 -28q-17 -3 -37.5 -5.5t-40 -4t-36 -2t-24.5 -0.5q-24 0 -24 25v974q0 51 -23 67.5t-57 16.5q-21 0 -43 -3l-6 55q21 4 61 10t83.5 12t84 10t63.5 4h356q34 0 71 0.5t82 1.5q16 0 18 -15q2 -13 3.5 -36t3 -50t2.5 -55.5t1.5 -52.5t1 -41t0.5 -21l-50 -5 q-17 71 -34.5 110t-44.5 57t-68.5 21.5t-107.5 3.5h-168q-17 0 -25.5 -1t-12.5 -5t-4.5 -11.5t-0.5 -20.5v-447q82 4 149 7.5t115.5 6t78 4t36.5 1.5q28 0 28 -30q0 -19 -2 -39t-5 -43l-400 14v-485z" />
<glyph unicode="G" horiz-adv-x="1257" d="M1118 36q0 -11 -11 -16q-85 -26 -174 -37.5t-180 -11.5q-149 0 -273 40.5t-213 118t-138.5 191t-49.5 259.5q0 150 52.5 264t145 190.5t218.5 115.5t274 39q85 0 160 -10t147 -26q11 -2 15.5 -8.5t5.5 -13.5q1 -14 2.5 -36t2.5 -47.5t2.5 -52t2.5 -49t1.5 -38.5t0.5 -20 l-50 -5q-8 63 -39.5 106t-77.5 69.5t-102 38t-112 11.5q-110 0 -193.5 -34.5t-139.5 -97.5t-84 -151t-28 -195q0 -126 35 -230.5t104.5 -179.5t173 -116.5t240.5 -41.5q23 0 47.5 1t50.5 4v314q0 29 -4 47t-13.5 27.5t-24.5 13t-37 3.5q-7 0 -14.5 -0.5t-15.5 -0.5l-5 56 q54 4 99.5 6.5t80 4t57 2t29.5 0.5q32 0 32 -32v-472z" />
<glyph unicode="H" horiz-adv-x="1275" d="M929 1131q0 23 24 28q16 3 36.5 5t40.5 3.5t36.5 2.5t24.5 1q24 0 24 -25v-1119q0 -24 -24 -28q-17 -3 -37.5 -5.5t-40 -4t-36 -2t-24.5 -0.5q-24 0 -24 25v570l-583 -7v-548q0 -24 -24 -28q-17 -3 -37.5 -5.5t-40 -4t-36 -2t-24.5 -0.5q-24 0 -24 25v990q0 28 -5.5 45.5 t-16 27.5t-25 14t-32.5 4q-22 0 -44 -3l-6 55q54 10 102.5 17t86 11t62.5 6t32 2q32 0 32 -32v-486h583v468z" />
<glyph unicode="I" horiz-adv-x="506" d="M31 1145q54 10 102.5 17t86 11t62.5 6t32 2q32 0 32 -32v-1122q0 -24 -24 -28q-17 -3 -37.5 -5.5t-40 -4t-36 -2t-24.5 -0.5q-24 0 -24 25v990q0 28 -5.5 45.5t-16 27.5t-25 14t-32.5 4q-22 0 -44 -3z" />
<glyph unicode="J" horiz-adv-x="465" d="M11 1145q54 10 102 17t85.5 11t62.5 6t32 2q32 0 32 -32v-978q0 -128 -14.5 -225t-56 -172t-116 -132.5t-194.5 -106.5l-29 62q84 45 130 98.5t67 120t24.5 147.5t3.5 181v858q0 28 -5.5 45.5t-16 27.5t-25 14t-32.5 4q-22 0 -44 -3z" />
<glyph unicode="K" horiz-adv-x="1102" d="M31 1145q54 10 102.5 17t86 11t62.5 6t32 2q32 0 32 -32v-534l492 515q20 22 46 29q14 4 33 6.5t38.5 3.5t36 1.5t25.5 0.5q11 0 16 -5.5t5 -12.5q0 -8 -6 -14l-496 -467l531 -642q5 -8 5 -11q0 -7 -6 -12.5t-15 -7.5q-17 -3 -43.5 -5.5t-53 -4t-48 -2t-28.5 -0.5 q-24 0 -37 18l-495 609v-587q0 -24 -24 -28q-17 -3 -37.5 -5.5t-40 -4t-36 -2t-24.5 -0.5q-24 0 -24 25v990q0 28 -5.5 45.5t-16 27.5t-25 14t-32.5 4q-22 0 -44 -3z" />
<glyph unicode="L" horiz-adv-x="920" d="M346 155q0 -24 1.5 -37.5t8 -21t21.5 -9.5t42 -2h99q80 0 130.5 4t85.5 25t62 64t60 121l50 -11q0 -7 -5 -37t-12.5 -69t-16.5 -80t-18 -71q-13 -34 -49 -34q-75 1 -186.5 2t-268.5 1h-166q-14 0 -19 8.5t-5 16.5v977q0 28 -5.5 45.5t-16 27.5t-25 14t-32.5 4 q-22 0 -44 -3l-6 55q54 10 102.5 17t86 11t62.5 6t32 2q32 0 32 -32v-994z" />
<glyph unicode="M" horiz-adv-x="1535" d="M1146 914l-373 -910q-4 -11 -18 -13q-18 -2 -40.5 -3t-45.5 -1q-16 0 -22 15l-350 924l-115 -921q-2 -12 -18 -13q-18 -2 -44.5 -3.5t-55.5 -1.5q-14 0 -14 11q0 7 1 10l195 1062l-32 88q-2 6 -2 10q0 16 20 19q16 3 37.5 5.5t42 4.5t37.5 3t25 1q11 0 17 -6t11 -17 l358 -943l367 840l-10 83q-1 1 -1 8q0 17 19 21q16 3 37 5.5t41 4.5t36.5 3t24.5 1q25 0 28 -23l136 -1146q1 -4 1 -6.5v-4.5q0 -19 -19 -22q-17 -3 -39 -5.5t-43 -4t-38.5 -2t-25.5 -0.5q-9 0 -15 3.5t-7 11.5z" />
<glyph unicode="N" horiz-adv-x="1220" d="M254 1198q11 0 17 -6.5t14 -16.5l691 -917l-25 897q0 12 16 13q18 3 48 6t58 3q16 0 16 -15l-24 -975v-183q0 -12 -16 -13q-18 -2 -40.5 -3t-45.5 -1q-9 0 -14 3.5t-10 11.5l-696 924l25 -920q0 -12 -16 -13q-18 -3 -49.5 -5t-56.5 -2q-16 0 -16 15l25 1042l-82 112 q-4 4 -4 11q0 13 18 18q16 3 41 5.5t50.5 4.5t46.5 3t29 1z" />
<glyph unicode="O" d="M706 1189q129 0 233 -40t177.5 -115.5t113.5 -185.5t40 -249q0 -152 -44.5 -269t-126.5 -196.5t-197.5 -121t-257.5 -41.5q-129 0 -233.5 41.5t-178 118.5t-113 188t-39.5 251q0 151 44.5 267t126.5 194t197.5 118t257.5 40zM656 1105q-98 0 -168 -40t-114.5 -107 t-65.5 -154t-21 -181q0 -105 22.5 -207t71.5 -182t127 -129.5t188 -49.5q98 0 168 41.5t114.5 110t65.5 157t21 182.5q0 105 -22.5 205.5t-71.5 179t-127 126.5t-188 48z" />
<glyph unicode="P" horiz-adv-x="963" d="M403 538q80 6 141.5 24t103.5 52.5t63.5 87.5t21.5 129q0 66 -22 118t-61 87.5t-93.5 54t-119.5 18.5q-45 0 -68 -5.5t-23 -38.5v-1038q0 -24 -24 -28q-17 -3 -37.5 -5.5t-40 -4t-36 -2t-24.5 -0.5q-24 0 -24 25v1001q0 51 -22 67.5t-57 16.5q-20 0 -44 -3l-6 55 q88 15 191 28t232 13q59 0 118 -5.5t112.5 -19.5t100 -37t80.5 -59t53.5 -85.5t19.5 -115.5q0 -104 -44 -176t-117 -117.5t-168 -67.5t-197 -26z" />
<glyph unicode="Q" d="M1296 -438q-19 -4 -41.5 -7.5t-44.5 -5.5t-39.5 -3.5t-26.5 -1.5q-45 0 -76 15t-54.5 43t-42 69t-37.5 93l-24 64q-17 45 -43.5 73t-59.5 43.5t-72 21t-81 5.5q-129 0 -235 41.5t-181 119t-116.5 188.5t-41.5 250q0 151 44.5 267t126.5 194t197.5 118t257.5 40 q129 0 233 -40t177.5 -115.5t113.5 -185.5t40 -249q0 -119 -31 -216t-86.5 -171t-133.5 -124.5t-171 -76.5v-8q46 -5 86.5 -13.5t74.5 -26.5t61 -49.5t45 -82.5l14 -41q19 -57 35 -91.5t33.5 -53.5t39.5 -25t54 -6zM654 1105q-98 0 -168 -40t-114.5 -107t-65.5 -154 t-21 -181q0 -104 22.5 -206t72 -182.5t127.5 -130t189 -49.5q98 0 168 41.5t114.5 110.5t65.5 157.5t21 182.5q0 105 -22.5 205t-72 178.5t-127.5 126.5t-189 48z" />
<glyph unicode="R" horiz-adv-x="1077" d="M400 600q77 5 136 22t98.5 49.5t60 82.5t20.5 121q0 59 -22 103t-61 72.5t-92 42.5t-114 14q-40 0 -60 -6.5t-20 -36.5v-1037q0 -24 -24 -28q-17 -3 -37.5 -5.5t-40 -4t-36 -2t-24.5 -0.5q-24 0 -24 25v1003q0 50 -22 66.5t-57 16.5q-20 0 -44 -3l-6 55 q100 17 207.5 28.5t219.5 11.5q48 0 101 -4t104 -15t97 -30.5t80.5 -51t55 -76t20.5 -105.5q0 -65 -19.5 -114.5t-54 -87.5t-80.5 -65t-99 -46v-6q25 -5 54 -15.5t56.5 -30t51 -49.5t37.5 -74l74 -229q15 -47 27.5 -75t26.5 -42.5t32 -19t45 -4.5l3 -52q-19 -4 -41.5 -7.5 t-44.5 -5.5t-39.5 -3.5t-26.5 -1.5q-32 0 -57 7.5t-45 26t-35.5 49t-28.5 76.5l-71 244q-15 52 -36 83t-52.5 47.5t-76 22t-107.5 7.5z" />
<glyph unicode="S" horiz-adv-x="924" d="M726 887q-10 55 -32.5 94.5t-55.5 65.5t-74.5 38.5t-89.5 12.5q-47 0 -90 -11.5t-76 -36.5t-52.5 -64t-19.5 -93q0 -48 23 -82.5t61.5 -60t88.5 -45.5t104 -40q60 -23 120 -49.5t107.5 -64.5t77 -92t29.5 -133q0 -69 -19.5 -122t-54 -92.5t-80.5 -66.5t-99 -43.5 t-110.5 -23.5t-113.5 -7q-67 0 -133.5 8t-132.5 23q-9 2 -14.5 8.5t-6.5 13.5q-2 21 -4 61.5t-3.5 82.5t-2.5 76t-1 40l50 5q7 -60 31.5 -104t62 -72.5t86 -42t104.5 -13.5q50 0 97 11.5t83.5 37t58.5 65.5t22 97q0 47 -23 80t-61.5 58.5t-88 45.5t-102.5 41 q-60 24 -120 51.5t-107.5 66.5t-77 94.5t-29.5 136.5q0 98 38.5 164t101 106t142 57t162.5 17q55 0 120 -8.5t122 -22.5q9 -2 14.5 -8.5t6.5 -13.5q2 -21 4 -58.5t4 -76t3 -69.5t1 -37z" />
<glyph unicode="T" horiz-adv-x="1092" d="M330 1078q-65 0 -107.5 -3.5t-70.5 -23t-46.5 -61.5t-35.5 -118l-50 5q0 4 0.5 22t2 43t3 55t3.5 58.5t4 53t4 38.5q1 15 18 15q91 -2 174 -3t153 -1h333q70 0 154 1t175 3q14 0 16 -15q2 -14 3.5 -38.5t3 -53t2.5 -58.5t1.5 -55t1 -43t0.5 -22l-50 -5q-17 76 -34.5 118 t-44.5 61.5t-68.5 23t-107.5 3.5h-128v-1051q0 -24 -24 -28q-17 -3 -37.5 -5.5t-40 -4t-36 -2t-24.5 -0.5q-24 0 -24 25v1066h-123z" />
<glyph unicode="U" horiz-adv-x="1225" d="M336 365q-1 -75 19 -126.5t56 -83t84 -45t104 -13.5q72 0 141.5 23t138.5 57v954q0 23 24 28q16 3 36.5 5t40.5 3.5t36.5 2.5t24.5 1q24 0 24 -25v-1119q0 -24 -24 -28q-17 -3 -36.5 -5.5t-38 -4t-33.5 -2t-23 -0.5q-23 0 -24 25l-7 82q-94 -52 -197.5 -86.5 t-209.5 -34.5q-66 0 -125 18t-102.5 55t-69 94.5t-25.5 135.5v726q0 28 -5.5 45.5t-16 27.5t-25 14t-32.5 4q-20 0 -44 -3l-6 55q54 10 102.5 17t86 11t62.5 6t32 2q32 0 32 -32v-784z" />
<glyph unicode="V" horiz-adv-x="1149" d="M952 1129q7 22 33 30q14 4 30 6t31 3.5t27.5 2t19.5 0.5q11 0 14.5 -3.5t3.5 -8.5q0 -4 -5 -17l-475 -1135q-8 -17 -17 -18q-5 -1 -16.5 -2t-24 -1.5t-24 -1t-15.5 -0.5q-6 0 -11.5 3t-9.5 13l-394 1015q-18 47 -42.5 63t-56.5 16q-10 0 -20.5 -1t-22.5 -3l-6 55 q44 9 88 15.5t80.5 11t61.5 7t32 2.5q15 0 22 -9.5t14 -26.5l357 -931h4z" />
<glyph unicode="W" horiz-adv-x="1668" d="M1471 1129q7 22 33 30q13 4 29 6.5t31 3.5t27.5 1.5t19.5 0.5q17 0 17 -9t-4 -20l-410 -1134q-4 -10 -8 -13.5t-9 -4.5q-9 -1 -23 -2t-29 -2t-29 -1.5t-22 -0.5q-6 0 -12 3t-9 13l-236 731l-253 -723q-4 -10 -8 -13.5t-9 -4.5q-9 -1 -23 -2t-29 -2t-29 -1.5t-22 -0.5 q-6 0 -12 3t-9 13l-326 1015q-16 48 -41.5 63.5t-57.5 15.5q-10 0 -20.5 -1t-22.5 -3l-6 55q44 9 88.5 15.5t81.5 11t63 7t33 2.5q15 0 23 -9.5t13 -26.5l295 -922h4l218 661l-81 253q-4 11 1.5 19t13.5 10q35 7 75.5 11t67.5 4q14 0 20 -5.5t10 -17.5l304 -944h4z" />
<glyph unicode="X" horiz-adv-x="988" d="M-13 1145q44 9 87 15.5t78.5 11t60 7t31.5 2.5q15 0 22.5 -8.5t17.5 -25.5l236 -400l243 383q0 1 0.5 1t0.5 1q8 11 14.5 17t20.5 10t30 6t31 3.5t27.5 2t19.5 0.5q19 0 19 -13q0 -9 -6 -16l-341 -495l365 -617q4 -4 4 -12q0 -16 -20 -19q-17 -3 -40.5 -5.5t-46.5 -4 t-42 -2t-27 -0.5q-17 0 -27 16l-290 489l-289 -462q-7 -11 -14.5 -18t-21.5 -11t-30.5 -6.5t-32 -3.5t-28.5 -1.5t-20 -0.5q-19 0 -19 13q0 8 6 16l389 575l-254 429q-26 43 -49.5 57.5t-55.5 14.5q-10 0 -20.5 -1t-22.5 -3z" />
<glyph unicode="Y" horiz-adv-x="986" d="M217 1181q15 0 24 -9t18 -26l284 -510l242 493q6 12 13 19t21 11t30 6t31 3.5t27.5 2t19.5 0.5q18 0 18 -12q0 -4 -2 -8t-4 -9l-359 -602v-513q0 -24 -24 -28q-17 -3 -37.5 -5.5t-40 -4t-36 -2t-24.5 -0.5q-24 0 -24 25v510l-277 494q-25 45 -47 62.5t-54 17.5 q-8 0 -18 -1.5t-23 -3.5l-6 55q44 9 85.5 15.5t75.5 11t57 6.5t30 2z" />
<glyph unicode="Z" horiz-adv-x="1029" d="M365 2h-72t-64.5 -0.5t-75.5 -1.5t-105 -2q-5 0 -8 7q-4 12 -7 28t-3 22q0 5 4 9l694 1014h-361q-65 0 -107.5 -3.5t-70.5 -23t-46.5 -61.5t-35.5 -118l-50 5q0 4 0.5 22t2 43t3 55t3.5 58.5t4 53t4 38.5q1 15 16 15q91 -2 175 -3t154 -1h234h67.5t60 0.5t71.5 1.5t101 2 q6 0 9 -5q4 -11 7 -26t3 -20q0 3 -2 -7l-703 -1022h389q65 0 108 5t71.5 26.5t47.5 64.5t36 120l50 -5q0 -5 -1 -23.5t-2.5 -44.5t-3.5 -57t-4 -61t-4.5 -55t-4.5 -39q-1 -6 -4.5 -10.5t-11.5 -4.5q-91 2 -175 3t-154 1h-239z" />
<glyph unicode="[" horiz-adv-x="643" d="M478 -324l-287 10v1782l297 10l-10 -93l-199 3v-1622l209 3z" />
<glyph unicode="\" horiz-adv-x="532" d="M377 -198l-362 1378l87 17l363 -1378z" />
<glyph unicode="]" horiz-adv-x="643" d="M165 1478l287 -10v-1782l-297 -10l10 93l199 -3v1622l-209 -3z" />
<glyph unicode="^" horiz-adv-x="805" d="M357 1180l79 9l295 -607l-81 -28l-252 525l-257 -527l-76 37z" />
<glyph unicode="_" horiz-adv-x="600" d="M-70 -160h740v-80h-740v80z" />
<glyph unicode="`" horiz-adv-x="0" d="M40 1256h-54l-159 247q-4 7 -4 11q0 12 17 15q24 6 55 8t49 2q15 0 21.5 -8t9.5 -19l72 -248z" />
<glyph unicode="a" horiz-adv-x="811" d="M107 671q52 21 102.5 37t95 26.5t81 16t60.5 5.5q72 0 121 -16.5t79 -52.5t43 -91.5t12 -133.5l-5 -326q-1 -31 4 -58t11 -53q1 -1 1 -8q0 -15 -20 -18q-13 -3 -29.5 -5.5t-33.5 -4t-34 -2t-30 -0.5q-11 0 -16.5 6t-8.5 18l-13 48q-38 -17 -78 -31.5t-76.5 -25 t-66.5 -16.5t-49 -6q-53 0 -92 19.5t-64 49t-37 65t-12 67.5q0 57 20.5 96.5t55.5 65.5q31 23 72.5 38t91.5 23.5t108 12.5t122 6l1 34q1 46 -5.5 82.5t-23.5 61.5t-46 38t-73 13q-54 0 -112.5 -12t-133.5 -36zM521 355q-47 -3 -88 -5.5t-75 -7.5t-60 -15.5t-42 -29.5 q-12 -14 -20 -35t-8 -46q0 -21 6.5 -43t23 -40.5t44.5 -30.5t71 -12q6 0 19.5 2t33 6.5t43.5 12.5t49 20z" />
<glyph unicode="b" horiz-adv-x="969" d="M318 677q50 15 100 29t95 24.5t81.5 17t60.5 6.5q58 0 105 -32.5t80 -83.5t51 -113.5t18 -121.5q0 -107 -38.5 -186t-103.5 -132t-150.5 -79t-179.5 -26q-46 0 -92.5 5.5t-87 15.5t-71.5 23t-46 28v1102q0 53 -17 72.5t-56 19.5q-19 0 -41 -3l-6 48q110 30 181 42.5 t85 12.5q32 0 32 -36v-633zM318 182q0 -33 16.5 -55.5t41.5 -36t55 -19.5t58 -6q243 0 243 250q0 57 -13.5 116t-40 107t-65 78t-88.5 30q-19 0 -75 -10.5t-132 -33.5v-420z" />
<glyph unicode="c" horiz-adv-x="786" d="M554 530q0 29 -3 53t-15 41.5t-34.5 27t-61.5 9.5q-56 0 -94.5 -19t-62.5 -51t-35 -75t-11 -92q0 -68 18 -126.5t54.5 -102.5t92.5 -69t133 -25q20 0 45 3t51 7.5t51 11t46 13.5l23 -56q-47 -21 -99 -39.5t-101 -32t-91 -21t-69 -7.5q-80 0 -141.5 30t-103.5 80.5 t-64 116.5t-22 138q0 93 35 168.5t96 129t143 82.5t176 29q38 0 75.5 -7t67.5 -24t48.5 -45t18.5 -70q0 -53 -35 -76.5t-87 -23.5q-22 0 -44 3v19z" />
<glyph unicode="d" horiz-adv-x="956" d="M533 1291q110 30 181 42.5t85 12.5q32 0 32 -36v-1168q0 -34 4.5 -62.5t10.5 -54.5l1 -6q0 -15 -20 -20q-13 -3 -29.5 -5.5t-34 -4t-34.5 -2t-31 -0.5q-11 0 -16.5 6t-8.5 18l-15 56q-47 -18 -93 -34t-87 -27.5t-75 -18.5t-58 -7q-65 0 -117.5 33t-89.5 84t-56.5 113 t-19.5 121q0 102 37 180.5t101 132.5t150 82t184 28q60 0 119 -9v409q0 53 -17 72.5t-56 19.5q-19 0 -41 -3zM653 552q0 33 -16.5 55.5t-41.5 36t-55 19.5t-58 6q-65 0 -111.5 -19.5t-75.5 -54.5t-42.5 -83.5t-13.5 -105.5q0 -48 11.5 -103.5t37.5 -103t68 -78.5t103 -31 q9 0 27 2t43.5 7.5t57 15t66.5 24.5v413z" />
<glyph unicode="e" horiz-adv-x="801" d="M766 85q-48 -23 -101 -42.5t-103.5 -33.5t-94 -21.5t-72.5 -7.5q-81 0 -143.5 30.5t-105 81t-64.5 116.5t-22 137q0 92 34 167.5t92.5 129t136.5 83t165 29.5q57 0 101 -17.5t74 -48t46 -73.5t16 -94q0 -44 -17 -110l-470 -25q4 -63 25 -115t59.5 -90t94 -59t127.5 -21 q48 0 102.5 11.5t97.5 28.5zM544 469q3 14 4 27t1 27q0 28 -8.5 53t-24.5 43.5t-40 29t-54 10.5q-48 0 -82.5 -17.5t-57 -46.5t-33.5 -67.5t-12 -80.5z" />
<glyph unicode="f" horiz-adv-x="551" d="M27 707q26 2 57 4t61 4v144q0 73 9 131t25.5 104t40 81.5t53.5 65.5q52 51 119.5 78.5t143.5 27.5q33 0 69.5 -7t67 -23.5t50.5 -42.5t20 -63q0 -28 -9.5 -47t-25.5 -31t-37.5 -17.5t-46.5 -5.5q-20 0 -42 3v21q0 27 -3 50.5t-13.5 40t-30.5 26t-53 9.5 q-51 0 -82.5 -23.5t-48.5 -62.5t-22.5 -90t-5.5 -106v-254q67 3 123.5 4.5t87.5 1.5q8 0 15 -5.5t6 -17.5l-4 -62l-228 -1v-617q0 -24 -24 -28q-17 -3 -36.5 -5.5t-37.5 -4t-33 -2t-23 -0.5q-24 0 -24 25v631l-115 -3z" />
<glyph unicode="g" horiz-adv-x="894" d="M664 654q31 -35 47.5 -77.5t16.5 -90.5q0 -65 -25.5 -118t-72 -91t-110.5 -59t-141 -21q-63 0 -103 13q-15 -19 -29.5 -38t-14.5 -39q0 -24 27.5 -37.5t67 -20.5t83.5 -9t78 -2q61 0 121.5 -8t108.5 -29t78 -58t30 -95q0 -55 -25.5 -101.5t-66.5 -84.5t-93.5 -67.5 t-107.5 -49t-107.5 -29.5t-92.5 -10q-47 0 -100 13t-97.5 39t-74 64.5t-29.5 90.5q0 31 10.5 59.5t27.5 56t40 54.5t48 55q-14 7 -26.5 19t-21.5 26.5t-14.5 29.5t-5.5 29q0 31 28 69.5t92 98.5q-69 35 -107.5 97t-38.5 138q0 63 25.5 115.5t72 89.5t110 57.5t140.5 20.5 q60 0 111 -15t90 -41q97 25 152 38t69 13q28 0 28 -30q0 -19 -2 -39t-5 -43zM224 -64q-26 -36 -40 -64t-14 -62q0 -42 26.5 -71t67 -47t87.5 -25.5t89 -7.5q34 0 76 7t78 23.5t60.5 44t24.5 69.5q0 36 -21 57.5t-54.5 33t-76.5 15t-86 3.5q-23 0 -50.5 1t-56.5 4t-57.5 7.5 t-52.5 11.5zM403 279q39 0 67.5 14t46.5 37.5t27 55t9 66.5q0 40 -9.5 79.5t-29.5 71t-51.5 50.5t-74.5 19q-39 0 -67 -14.5t-46 -38.5t-26.5 -56t-8.5 -67q0 -39 9 -78t28.5 -70t50.5 -50t75 -19z" />
<glyph unicode="h" horiz-adv-x="964" d="M20 1291q110 30 181 42.5t85 12.5q32 0 32 -36v-639q46 17 92.5 32t88.5 26.5t77 18t59 6.5q57 0 97.5 -18t66.5 -50t38 -77.5t12 -100.5l-5 -481q0 -24 -24 -28q-16 -3 -35.5 -5.5t-38 -4t-34 -2t-22.5 -0.5q-24 0 -24 25l5 398v15q0 54 -8.5 94.5t-28.5 68.5t-52 42 t-80 14q-18 0 -67.5 -10t-116.5 -39v-568q0 -24 -24 -28q-16 -3 -35.5 -5.5t-38 -4t-34 -2t-22.5 -0.5q-24 0 -24 25v1142q0 53 -17 72.5t-56 19.5q-19 0 -41 -3z" />
<glyph unicode="i" horiz-adv-x="458" d="M32 693q54 15 100 25.5t81.5 17.5t58 10t29.5 3q32 0 32 -36v-686q0 -24 -24 -28q-17 -3 -36.5 -5.5t-37.5 -4t-33 -2t-23 -0.5q-24 0 -24 25v545q0 53 -17 72.5t-53 19.5q-11 0 -21.5 -0.5t-25.5 -3.5zM339 1060q0 -54 -28.5 -78t-82.5 -24q-45 0 -69 27t-24 75 q0 54 29.5 77.5t83.5 23.5q45 0 68 -26.5t23 -74.5z" />
<glyph unicode="j" horiz-adv-x="458" d="M32 693q54 15 100 25.5t81.5 17.5t58 10t29.5 3q32 0 32 -36v-565q0 -222 -59 -354q-42 -90 -125.5 -154.5t-204.5 -115.5l-30 55q50 31 86 58t61.5 57t43 67t30.5 90q11 45 15.5 111t4.5 160v435q0 53 -17 72.5t-53 19.5q-11 0 -21.5 -0.5t-25.5 -3.5zM339 1060 q0 -54 -28.5 -78t-82.5 -24q-45 0 -69 27t-24 75q0 54 29.5 77.5t83.5 23.5q45 0 68 -26.5t23 -74.5z" />
<glyph unicode="k" horiz-adv-x="866" d="M20 1291q110 30 181 42.5t85 12.5q32 0 32 -36v-906l275 296q10 10 19.5 15t23.5 9q22 6 48 10.5t50.5 7.5t44 4.5t27.5 1.5q17 0 17 -16q0 -5 -8 -13l-334 -264l365 -428q5 -8 5 -13q0 -12 -14 -15q-17 -3 -40.5 -5.5t-46.5 -4t-42 -2t-28 -0.5q-13 0 -22.5 5.5 t-21.5 19.5l-318 373v-358q0 -24 -24 -28q-17 -3 -36.5 -5.5t-37.5 -4t-33 -2t-23 -0.5q-24 0 -24 25v1142q0 53 -17 72.5t-56 19.5q-19 0 -41 -3z" />
<glyph unicode="l" horiz-adv-x="443" d="M20 1291q110 30 181 42.5t85 12.5q32 0 32 -36v-1283q0 -24 -24 -28q-17 -3 -36.5 -5.5t-37.5 -4t-33 -2t-23 -0.5q-24 0 -24 25v1142q0 53 -17 72.5t-56 19.5q-19 0 -41 -3z" />
<glyph unicode="m" horiz-adv-x="1480" d="M32 693q54 15 99.5 25.5t80 17.5t56.5 10t29 3q30 0 33 -36l3 -43q45 18 89.5 33.5t85 26.5t75 17.5t58.5 6.5q66 0 108.5 -24.5t65.5 -69.5q106 48 191.5 71t142.5 23t98 -18t67 -50t38.5 -77.5t12.5 -100.5l-5 -481q0 -24 -24 -28q-16 -3 -35.5 -5.5t-38 -4t-34 -2 t-22.5 -0.5q-24 0 -24 25l5 398v15q0 54 -8.5 94.5t-28.5 68t-52.5 41.5t-80.5 14q-8 0 -25 -2.5t-40.5 -8t-52.5 -15.5t-60 -25q10 -36 10 -94l-5 -471q0 -24 -24 -28q-16 -3 -35.5 -5.5t-38 -4t-34 -2t-22.5 -0.5q-24 0 -24 25l5 398v15q0 107 -36 163t-126 56 q-17 0 -64.5 -10t-111.5 -39v-568q0 -24 -24 -28q-16 -3 -35.5 -5.5t-38 -4t-34 -2t-22.5 -0.5q-24 0 -24 25v545q0 53 -17 72.5t-54 19.5q-10 0 -20.5 -0.5t-25.5 -3.5z" />
<glyph unicode="n" horiz-adv-x="979" d="M32 693q54 15 99.5 25.5t80 17.5t56.5 10t29 3q30 0 33 -36l3 -42q46 17 92.5 32t88.5 26.5t77 18t59 6.5q57 0 97.5 -18t66.5 -50t38 -77.5t12 -100.5l-5 -481q0 -24 -24 -28q-16 -3 -35.5 -5.5t-38 -4t-34 -2t-22.5 -0.5q-24 0 -24 25l5 398v15q0 54 -8.5 94.5 t-28.5 68.5t-52 42t-80 14q-18 0 -67.5 -10t-116.5 -39v-568q0 -24 -24 -28q-16 -3 -35.5 -5.5t-38 -4t-34 -2t-22.5 -0.5q-24 0 -24 25v545q0 53 -17 72.5t-54 19.5q-10 0 -20.5 -0.5t-25.5 -3.5z" />
<glyph unicode="o" horiz-adv-x="910" d="M434 -20q-83 0 -150.5 29.5t-116.5 80.5t-75.5 120.5t-26.5 149.5q0 88 30.5 161t84.5 124.5t129 80t165 28.5q83 0 151.5 -28.5t117 -78.5t75.5 -118t27 -147q0 -90 -30 -164.5t-84.5 -127t-130 -81.5t-166.5 -29zM481 68q54 0 89 23.5t55 60.5t27.5 83t7.5 90 q0 54 -11.5 114t-38.5 110.5t-71 83.5t-109 33q-54 0 -89 -23.5t-55 -61t-28 -83t-8 -90.5q0 -55 12 -115t39 -110t71 -82.5t109 -32.5z" />
<glyph unicode="p" horiz-adv-x="984" d="M155 557q0 53 -17 72.5t-54 19.5q-10 0 -20.5 -0.5t-25.5 -3.5l-6 48q54 15 99.5 25.5t80 17.5t56.5 10t29 3q30 0 33 -36l3 -43q49 17 97.5 32.5t92 27t80 18t61.5 6.5q61 0 109 -32.5t81.5 -83.5t51.5 -113.5t18 -121.5q0 -105 -38.5 -184t-102.5 -132.5t-147 -80 t-173 -26.5q-32 0 -64 3.5t-66 10.5v-417q0 -24 -24 -28q-16 -3 -35.5 -5.5t-38 -4t-34 -2t-22.5 -0.5q-24 0 -24 25v995zM333 177q0 -27 13.5 -48t36.5 -35t54.5 -21.5t66.5 -7.5q243 0 243 250q0 57 -13.5 116t-40 107t-66.5 78t-93 30q-20 0 -74 -11t-127 -40v-418z" />
<glyph unicode="q" horiz-adv-x="954" d="M682 730q48 10 77 14.5t38 4.5q32 0 32 -36v-1136q0 -24 -24 -28q-16 -3 -35.5 -5.5t-38 -4t-34 -2t-22.5 -0.5q-24 0 -24 25v504q-45 -17 -90.5 -32.5t-86 -27.5t-74.5 -19t-58 -7q-66 0 -118.5 33t-88.5 84t-55.5 113t-19.5 121q0 100 36 178.5t99 133t147.5 83 t180.5 28.5q42 0 80.5 -6.5t78.5 -17.5zM651 552q0 33 -16 55.5t-41 36t-54.5 19.5t-57.5 6q-65 0 -111 -19.5t-76 -54.5t-44 -83.5t-14 -105.5q0 -49 11.5 -104.5t37.5 -102.5t68 -78t103 -31q9 0 27 2t43.5 7.5t57 15t66.5 24.5v413z" />
<glyph unicode="r" horiz-adv-x="706" d="M32 693q54 15 100 25.5t81.5 17.5t58 10t29.5 3q32 0 32 -36v-51q34 19 70 36t70.5 29.5t66 19.5t55.5 7q27 0 47.5 -9.5t35 -25.5t21.5 -36t7 -41q0 -22 -7.5 -42.5t-23 -36.5t-38.5 -25.5t-54 -9.5h-21q-5 0 -11 0.5t-11 1.5v22q0 46 -18.5 64.5t-47.5 18.5 q-30 0 -67.5 -13t-73.5 -33v-562q0 -24 -24 -28q-17 -3 -36.5 -5.5t-37.5 -4t-33 -2t-23 -0.5q-24 0 -24 25v545q0 53 -17 72.5t-53 19.5q-11 0 -21.5 -0.5t-25.5 -3.5z" />
<glyph unicode="s" horiz-adv-x="706" d="M555 511q-11 37 -22 67t-28.5 51.5t-44.5 33t-69 11.5q-26 0 -52 -5t-47 -16t-34 -29t-13 -45t15 -47t40 -35.5t58 -28.5t68 -26q42 -15 83 -34t73.5 -45t53 -61.5t20.5 -84.5q0 -63 -32.5 -108t-83.5 -73.5t-112.5 -42t-119.5 -13.5q-35 0 -79 7.5t-82.5 24.5t-64.5 45 t-26 69q0 49 33 71t84 22q11 0 19 -0.5t19 -2.5v-17q0 -66 31.5 -101.5t104.5 -35.5q27 0 51.5 6t43 18t30 30.5t11.5 43.5q0 31 -15.5 52.5t-41 38t-58.5 29.5t-68 27q-41 15 -82 33t-73.5 43.5t-53 61.5t-20.5 87q0 62 32.5 104.5t82 69t107.5 38t109 11.5q49 0 95 -6 t91 -20q8 -2 8 -8q2 -17 3.5 -46.5t2.5 -60.5t1.5 -58.5t0.5 -40.5z" />
<glyph unicode="t" horiz-adv-x="614" d="M20 707q26 2 57 4t61 4v154q0 21 4 30.5t18 14.5q19 7 39.5 14t39 12.5t33 9t22.5 3.5q22 0 22 -25v-204q67 3 123.5 4.5t87.5 1.5q8 0 14.5 -5t6.5 -16v-2l-4 -62l-228 -1v-425q0 -67 36 -97.5t94 -30.5q27 0 60.5 6.5t78.5 23.5l21 -61q-38 -17 -77.5 -31.5 t-75.5 -25.5t-65.5 -17t-45.5 -6q-45 0 -82.5 14t-64.5 42t-42 68.5t-15 93.5v445l-115 -3z" />
<glyph unicode="u" horiz-adv-x="983" d="M680 557q0 53 -17 72.5t-53 19.5q-11 0 -21.5 -0.5t-25.5 -3.5l-6 48q54 15 100 25.5t81.5 17.5t58 10t29.5 3q32 0 32 -36v-571q0 -34 4.5 -62.5t10.5 -54.5l1 -6q0 -15 -20 -20q-13 -2 -29.5 -4t-34 -4t-35 -3t-30.5 -1q-11 0 -16.5 6t-8.5 18l-15 56 q-47 -18 -93.5 -34t-88.5 -27.5t-77 -18.5t-59 -7q-56 0 -96.5 18t-66.5 50t-38.5 77.5t-12.5 100.5l5 331q1 53 -16.5 72.5t-53.5 19.5q-11 0 -21.5 -0.5t-25.5 -3.5l-6 48q54 15 100 25.5t81.5 17.5t58 10t29.5 3q32 0 32 -36l-5 -389v-15q0 -54 8.5 -94.5t28.5 -68 t52 -41.5t79 -14q15 0 36.5 3.5t46 10t50 15.5t48.5 19v418z" />
<glyph unicode="v" horiz-adv-x="823" d="M650 701q5 13 12 19.5t21 10.5q15 4 31 7t31 5t27.5 3.5t19.5 1.5q18 0 18 -12q0 -7 -5 -17l-340 -712q-7 -16 -17 -18q-11 -2 -29.5 -3.5t-27.5 -1.5q-6 0 -11 3t-10 13l-249 570q-20 47 -42 63t-53 16q-10 0 -21 -1t-23 -3l-6 48q41 12 83 22t78 17.5t61 11.5t32 4 q15 0 22 -9.5t14 -26.5l193 -498h4z" />
<glyph unicode="w" horiz-adv-x="1288" d="M1107 701q7 22 33 30q15 4 31 7t31 5t27.5 3.5t19.5 1.5q11 0 14.5 -3.5t3.5 -8.5t-5 -17l-323 -712q-8 -17 -17 -18q-11 -2 -30.5 -3.5t-28.5 -1.5q-6 0 -11.5 3t-9.5 13l-191 504l-195 -497q-4 -10 -8 -13.5t-9 -4.5t-13.5 -2t-17.5 -1.5t-17 -1t-12 -0.5q-6 0 -11.5 3 t-9.5 13l-232 571q-20 46 -43 62t-54 16q-10 0 -21 -1t-23 -3l-6 48q41 12 83 22t78 17.5t61 11.5t32 4q15 0 22.5 -9.5t13.5 -26.5l178 -498h4l183 488q6 16 12 19.5t14 5.5q7 1 16.5 2t18.5 1.5t16.5 1t11.5 0.5q7 0 12.5 -3t10.5 -17l185 -498h4z" />
<glyph unicode="x" horiz-adv-x="788" d="M5 697q41 12 80.5 21.5t71.5 16t54.5 10t29.5 3.5q15 0 23.5 -5t19.5 -20l157 -229l152 206q8 11 15.5 18t21.5 11t32 7.5t35 6t31 4t21 1.5q19 0 19 -14q0 -7 -7 -15l-262 -309l257 -375q5 -8 5 -15q0 -15 -20 -18q-8 -2 -18.5 -3t-21.5 -2l-45 -5q-22 -3 -40.5 -4 t-26.5 -1q-15 0 -24 13l-194 281l-179 -245q-8 -11 -15.5 -18t-21.5 -11t-33 -7.5t-37 -6.5t-33 -4.5t-22 -1.5q-19 0 -19 14q0 7 7 15l296 346l-151 220q-28 40 -52.5 55.5t-55.5 15.5q-10 0 -21 -1t-23 -3z" />
<glyph unicode="y" horiz-adv-x="817" d="M650 701q5 13 12 19.5t21 10.5q15 4 31 7t31 5t27.5 3.5t19.5 1.5q18 0 18 -12q0 -7 -5 -17q-36 -71 -74.5 -149.5t-77.5 -159t-76.5 -160.5t-71.5 -154t-62.5 -139.5t-49.5 -116.5q-18 -45 -42 -99t-58.5 -100.5t-81.5 -77.5t-111 -31q-26 0 -47 8t-36 22t-23 32t-8 39 q0 16 5.5 33.5t18.5 31.5q23 -13 44 -18.5t44 -5.5q28 0 55 9t53 31.5t52.5 60.5t53.5 97l58 128l-249 570q-20 47 -42 63t-53 16q-10 0 -21 -1t-23 -3l-6 48q41 12 83 22t78 17.5t61 11.5t32 4q15 0 22 -9.5t14 -26.5l193 -498h4z" />
<glyph unicode="z" horiz-adv-x="818" d="M72 507q0 13 1.5 42.5t3.5 63t4.5 65t4.5 49.5q2 8 10 8q66 -1 109 -1.5t76 -0.5h261q33 0 75 0.5t107 1.5q6 0 9 -5q4 -11 7 -26t3 -20q0 3 -2 -7l-459 -602h255q42 0 69 12t44.5 34t29 53t22.5 69l49 -4q0 -14 -1.5 -45t-3.5 -67t-4.5 -69.5t-4.5 -51.5q-2 -8 -10 -8 q-67 1 -111 1.5t-79 0.5h-275q-34 0 -78 -0.5t-111 -1.5q-5 0 -8 7q-4 12 -7 28t-3 22q0 3 3 8l451 595h-233q-41 0 -66 -10.5t-41.5 -30t-26.5 -48.5t-21 -66z" />
<glyph unicode="{" horiz-adv-x="643" d="M120 514h137q-3 90 -11 176t-21 171t-30 170t-38 174q36 4 77 13.5t79.5 29.5t71.5 53.5t54 86.5h17q7 -19 9.5 -38t2.5 -38q0 -44 -14.5 -84t-43 -72t-72 -53t-100.5 -27q42 -167 63.5 -326t21.5 -318q0 -157 -21.5 -322t-63.5 -332q57 -6 100.5 -27.5t72 -53t43 -72 t14.5 -83.5q0 -19 -2.5 -38t-9.5 -38h-17q-26 52 -60 86t-71 54t-76 29.5t-75 13.5q42 176 68 348t32 353h-137v164z" />
<glyph unicode="|" horiz-adv-x="188" d="M50 -485v1819l88 7v-1819z" />
<glyph unicode="}" horiz-adv-x="623" d="M523 350h-137q6 -181 31.5 -353t68.5 -348q-36 -4 -75 -13.5t-76.5 -29.5t-71.5 -54t-59 -86h-17q-7 19 -9.5 38t-2.5 38q0 43 14.5 83.5t43 72t72 53t100.5 27.5q-42 167 -63.5 332t-21.5 322q0 159 21.5 318t63.5 326q-57 6 -100.5 27t-72 53t-43 72t-14.5 84 q0 19 2.5 38t9.5 38h17q21 -53 54 -86.5t71.5 -53.5t79.5 -29.5t77 -13.5q-21 -89 -38 -174t-30 -170t-21 -171t-11 -176h137v-164z" />
<glyph unicode="~" horiz-adv-x="805" d="M763 444l-7 -74q-46 -42 -90.5 -55.5t-84.5 -13.5q-48 0 -94 16.5t-92 36t-92 36t-94 16.5q-38 0 -75 -16t-82 -54h-7l-5 77q46 40 88 55.5t84 15.5q50 0 97 -16t93.5 -35.5t93.5 -35.5t97 -16q39 0 79 14.5t85 50.5z" />
<glyph unicode="&#xa8;" horiz-adv-x="1024" />
<glyph unicode="&#xa9;" horiz-adv-x="1439" d="M723 1198q264 0 440 -174t176 -442q0 -255 -176 -428q-175 -172 -443 -172q-269 0 -444 172q-176 173 -176 432q0 267 178 439q179 173 445 173zM721 1130q-239 0 -387 -153q-148 -151 -148 -387q0 -237 149 -389q148 -151 388 -151q234 0 383 150q148 151 148 390 t-150 389q-150 151 -383 151zM1005 328q-32 -22 -69.5 -37t-73.5 -24t-67.5 -13t-51.5 -4q-85 0 -154.5 26t-119 72.5t-77 110.5t-27.5 139q0 82 30.5 145t84.5 106t127.5 65t159.5 22q49 0 93 -7.5t86 -18.5q14 -6 16 -18q1 -13 3 -44l3 -58q2 -29 2.5 -52.5t0.5 -28.5 l-38 -4q-3 47 -20 79.5t-42 53t-55 29.5t-60 9q-60 0 -104.5 -19t-74 -52.5t-44 -79.5t-14.5 -100q0 -63 18.5 -117.5t55.5 -94.5t92.5 -62.5t129.5 -22.5q45 0 86 13t83 35z" />
<glyph unicode="&#xae;" horiz-adv-x="850" d="M437 1200q158 0 256 -92q97 -91 97 -251q0 -162 -99 -258q-98 -95 -260 -95q-157 0 -255 95q-96 96 -96 255q0 156 101 251q104 95 256 95zM432 1151q-125 0 -204 -79q-78 -80 -78 -217q0 -140 78 -221t206 -81q65 0 117.5 19.5t90 58t57.5 94.5t20 130q0 137 -79 216 q-80 80 -208 80zM399 865q54 2 74.5 18t20.5 58q0 34 -21.5 49.5t-56.5 15.5q-17 0 -24.5 -3t-7.5 -14v-296q0 -12 -11 -14q-16 -2 -36 -3.5t-28 -1.5q-10 0 -10 11v276q0 23 -10 31t-27 8h-10q-8 0 -9 -1l-3 25q46 8 94.5 13t97.5 5q24 0 51.5 -2.5t50 -11.5t37.5 -26 t15 -45q0 -40 -24 -63t-66 -35v-3q17 -5 28.5 -12t19.5 -17.5t13.5 -25t11.5 -34.5q7 -22 12.5 -34.5t12 -19t15 -8.5t20.5 -2l1 -25q-17 -3 -39.5 -5t-30.5 -2q-29 0 -45 15t-26 58q-6 24 -11.5 42.5t-14 30.5t-23 18t-38.5 4z" />
<glyph unicode="&#xb4;" horiz-adv-x="500" d="M203 834l77 318q6 24 31 28q16 3 35.5 5t38 3t33.5 1.5t23 0.5q17 0 17 -14q0 -5 -4 -12l-190 -338h-54z" />
<glyph unicode="&#xb6;" horiz-adv-x="1024" d="M929 1435v-70h-127v-1365h-82v1365h-166v-1365h-84v738q-174 8 -275.5 102.5t-101.5 245.5q0 157 107.5 253t285.5 96h443z" />
<glyph unicode="&#xbc;" horiz-adv-x="1140" d="M52 960q94 15 154 20.5t72 5.5q25 0 25 -29v-527q0 -19 -19 -22q-13 -3 -28.5 -5t-29.5 -3t-26 -1.5t-18 -0.5q-19 0 -19 20v421q0 49 -11 66.5t-46 17.5q-19 0 -49 -3zM113 6l701 1008l79 -35l-703 -1009zM993 12q0 -19 -19 -23q-14 -2 -29 -3.5t-29 -3t-26 -2t-18 -0.5 q-19 0 -19 20v126l-302 -2l-8 73q76 97 157.5 188.5t166.5 182.5q5 5 15 8q26 5 52.5 7t39.5 2q19 0 19 -20l1 -350q32 2 66.5 3t51.5 1q7 0 12 -3.5t5 -12.5v-6t-1 -11l-4 -58l-131 -1v-115zM853 464q-63 -64 -121 -128.5t-109 -130.5q69 2 122.5 3t107.5 3v253z" />
<glyph unicode="&#xbd;" horiz-adv-x="1273" d="M52 960q94 15 154 20.5t72 5.5q25 0 25 -29v-527q0 -19 -19 -22q-13 -3 -28.5 -5t-29.5 -3t-26 -1.5t-18 -0.5q-19 0 -19 20v421q0 49 -11 66.5t-46 17.5q-19 0 -49 -3zM113 6l701 1008l79 -35l-703 -1009zM649 97q93 43 157 86t103.5 85t57.5 81t18 73q0 45 -25.5 76.5 t-81.5 31.5q-60 0 -100 -44t-51 -129l-42 4q0 5 0.5 27.5t2 51t3 56.5t3.5 45q2 14 17 18q40 13 90.5 24.5t107.5 11.5q122 0 178.5 -36.5t56.5 -94.5q0 -37 -19 -79t-61.5 -86t-110 -90.5t-164.5 -92.5h209q34 0 55 5t34 18.5t22 37.5t20 63l37 -4q0 -11 -1.5 -42.5 t-4 -68.5t-5 -70.5t-4.5 -47.5q-2 -6 -8 -6q-54 0 -90 0.5t-64 0.5h-329z" />
<glyph unicode="&#xbe;" horiz-adv-x="1371" d="M156 603q-1 -5 -1.5 -10.5t-0.5 -11.5q0 -61 35.5 -92.5t98.5 -31.5q66 0 103.5 30.5t37.5 78.5q0 34 -16 56.5t-44 35.5t-66.5 18t-82.5 5h-15l-7 53h11q94 0 142.5 25t48.5 80q0 49 -36 73.5t-93 24.5q-29 0 -53.5 -7.5t-44 -24.5t-32.5 -46.5t-19 -72.5l-41 4 q0 5 0.5 25t1.5 45t2.5 50.5t3.5 42.5q2 12 17 17q38 12 89 21t106 9q48 0 94 -6t82 -21t57.5 -40t21.5 -64q0 -22 -6.5 -43t-24 -39.5t-47 -33t-74.5 -23.5v-3q22 -2 53.5 -10.5t60.5 -26.5t50 -46.5t21 -70.5q0 -47 -27 -81.5t-70 -57t-98 -33.5t-110 -11q-46 0 -91.5 8.5 t-82 25.5t-59.5 44t-23 64q0 38 28 56.5t64 18.5q25 0 36 -4zM344 6l701 1008l79 -35l-703 -1009zM1224 12q0 -19 -19 -23q-14 -2 -29 -3.5t-29 -3t-26 -2t-18 -0.5q-19 0 -19 20v126l-302 -2l-8 73q76 97 157.5 188.5t166.5 182.5q5 5 15 8q26 5 52.5 7t39.5 2q19 0 19 -20 l1 -350q32 2 66.5 3t51.5 1q7 0 12 -3.5t5 -12.5v-6t-1 -11l-4 -58l-131 -1v-115zM1084 464q-63 -64 -121 -128.5t-109 -130.5q69 2 122.5 3t107.5 3v253z" />
<glyph unicode="&#xc0;" horiz-adv-x="1170" d="M296 419l-154 -415q-4 -11 -18 -13q-18 -2 -41 -3t-52 -1q-16 0 -16 10q0 3 1 5l458 1098l-21 58q-2 8 -2 11q0 15 19 18q16 3 37.5 5.5t41.5 4.5t37 3t25 1q20 0 29 -23l446 -1148q3 -8 3 -11q0 -17 -20 -20q-18 -3 -40.5 -5.5t-44 -4t-39.5 -2t-26 -0.5q-17 0 -23 15 l-163 424zM328 504h375l-190 496zM612 1256h-54l-159 247q-4 7 -4 11q0 12 17 15q24 6 55 8t49 2q15 0 21.5 -8t9.5 -19l72 -248z" />
<glyph unicode="&#xc1;" horiz-adv-x="1170" d="M296 419l-154 -415q-4 -11 -18 -13q-18 -2 -41 -3t-52 -1q-16 0 -16 10q0 3 1 5l458 1098l-21 58q-2 8 -2 11q0 15 19 18q16 3 37.5 5.5t41.5 4.5t37 3t25 1q20 0 29 -23l446 -1148q3 -8 3 -11q0 -17 -20 -20q-18 -3 -40.5 -5.5t-44 -4t-39.5 -2t-26 -0.5q-17 0 -23 15 l-163 424zM328 504h375l-190 496zM525 1264l72 248q3 11 9.5 19t21.5 8q9 0 21.5 -0.5t26.5 -1.5t29 -3t27 -5q17 -3 17 -15q0 -4 -4 -11l-159 -247h-54z" />
<glyph unicode="&#xc2;" horiz-adv-x="1170" d="M296 419l-154 -415q-4 -11 -18 -13q-18 -2 -41 -3t-52 -1q-16 0 -16 10q0 3 1 5l458 1098l-21 58q-2 8 -2 11q0 15 19 18q16 3 37.5 5.5t41.5 4.5t37 3t25 1q20 0 29 -23l446 -1148q3 -8 3 -11q0 -17 -20 -20q-18 -3 -40.5 -5.5t-44 -4t-39.5 -2t-26 -0.5q-17 0 -23 15 l-163 424zM328 504h375l-190 496zM789 1256h-61l-154 164h-8l-154 -164h-57l-7 8l146 240q6 11 14 18.5t23 9.5q32 5 52.5 6t29.5 1q15 0 22 -7t14 -19l147 -249z" />
<glyph unicode="&#xc3;" horiz-adv-x="1170" d="M296 419l-154 -415q-4 -11 -18 -13q-18 -2 -41 -3t-52 -1q-16 0 -16 10q0 3 1 5l458 1098l-21 58q-2 8 -2 11q0 15 19 18q16 3 37.5 5.5t41.5 4.5t37 3t25 1q20 0 29 -23l446 -1148q3 -8 3 -11q0 -17 -20 -20q-18 -3 -40.5 -5.5t-44 -4t-39.5 -2t-26 -0.5q-17 0 -23 15 l-163 424zM328 504h375l-190 496zM868 1462q-54 -99 -103.5 -143t-92.5 -44q-25 0 -55.5 15.5t-61.5 33.5q-28 16 -52.5 29t-43.5 13q-24 0 -54.5 -26.5t-62.5 -68.5l-45 36q60 102 108 142.5t87 40.5q30 0 61.5 -15.5t61.5 -33.5q27 -17 51 -29.5t43 -12.5q29 0 58.5 27 t56.5 62z" />
<glyph unicode="&#xc8;" horiz-adv-x="975" d="M346 155q0 -24 1.5 -37.5t8 -21t21.5 -9.5t42 -2h129q80 0 130 3.5t85 23t61.5 62t59.5 120.5l50 -11q0 -7 -4.5 -36t-11.5 -67.5t-16 -78.5t-18 -70q-13 -34 -49 -34q-37 0 -88 0.5t-113.5 1t-134 1t-149.5 0.5h-166q-14 0 -19 8.5t-5 16.5v961q0 51 -23 67.5t-57 16.5 q-21 0 -43 -3l-6 55q21 4 61 10t83.5 12t84 10t63.5 4h364q34 0 71 0.5t82 1.5q16 0 18 -15q1 -14 2.5 -37t2.5 -50t2.5 -55t2.5 -52t1.5 -41t0.5 -21l-50 -5q-17 71 -34.5 110t-44.5 57t-68.5 21.5t-107.5 3.5h-176q-17 0 -25.5 -1t-12.5 -5t-4.5 -11.5t-0.5 -20.5v-405 q82 4 150.5 7.5t119 6t81.5 4t38 1.5q28 0 28 -30q0 -19 -2 -39t-5 -43l-410 14v-399zM550 1256h-54l-159 247q-4 7 -4 11q0 12 17 15q24 6 55 8t49 2q15 0 21.5 -8t9.5 -19l72 -248z" />
<glyph unicode="&#xc9;" horiz-adv-x="975" d="M346 155q0 -24 1.5 -37.5t8 -21t21.5 -9.5t42 -2h129q80 0 130 3.5t85 23t61.5 62t59.5 120.5l50 -11q0 -7 -4.5 -36t-11.5 -67.5t-16 -78.5t-18 -70q-13 -34 -49 -34q-37 0 -88 0.5t-113.5 1t-134 1t-149.5 0.5h-166q-14 0 -19 8.5t-5 16.5v961q0 51 -23 67.5t-57 16.5 q-21 0 -43 -3l-6 55q21 4 61 10t83.5 12t84 10t63.5 4h364q34 0 71 0.5t82 1.5q16 0 18 -15q1 -14 2.5 -37t2.5 -50t2.5 -55t2.5 -52t1.5 -41t0.5 -21l-50 -5q-17 71 -34.5 110t-44.5 57t-68.5 21.5t-107.5 3.5h-176q-17 0 -25.5 -1t-12.5 -5t-4.5 -11.5t-0.5 -20.5v-405 q82 4 150.5 7.5t119 6t81.5 4t38 1.5q28 0 28 -30q0 -19 -2 -39t-5 -43l-410 14v-399zM463 1264l72 248q3 11 9.5 19t21.5 8q9 0 21.5 -0.5t26.5 -1.5t29 -3t27 -5q17 -3 17 -15q0 -4 -4 -11l-159 -247h-54z" />
<glyph unicode="&#xca;" horiz-adv-x="975" d="M346 155q0 -24 1.5 -37.5t8 -21t21.5 -9.5t42 -2h129q80 0 130 3.5t85 23t61.5 62t59.5 120.5l50 -11q0 -7 -4.5 -36t-11.5 -67.5t-16 -78.5t-18 -70q-13 -34 -49 -34q-37 0 -88 0.5t-113.5 1t-134 1t-149.5 0.5h-166q-14 0 -19 8.5t-5 16.5v961q0 51 -23 67.5t-57 16.5 q-21 0 -43 -3l-6 55q21 4 61 10t83.5 12t84 10t63.5 4h364q34 0 71 0.5t82 1.5q16 0 18 -15q1 -14 2.5 -37t2.5 -50t2.5 -55t2.5 -52t1.5 -41t0.5 -21l-50 -5q-17 71 -34.5 110t-44.5 57t-68.5 21.5t-107.5 3.5h-176q-17 0 -25.5 -1t-12.5 -5t-4.5 -11.5t-0.5 -20.5v-405 q82 4 150.5 7.5t119 6t81.5 4t38 1.5q28 0 28 -30q0 -19 -2 -39t-5 -43l-410 14v-399zM727 1256h-61l-154 164h-8l-154 -164h-57l-7 8l146 240q6 11 14 18.5t23 9.5q32 5 52.5 6t29.5 1q15 0 22 -7t14 -19l147 -249z" />
<glyph unicode="&#xcc;" horiz-adv-x="506" d="M31 1145q54 10 102.5 17t86 11t62.5 6t32 2q32 0 32 -32v-1122q0 -24 -24 -28q-17 -3 -37.5 -5.5t-40 -4t-36 -2t-24.5 -0.5q-24 0 -24 25v990q0 28 -5.5 45.5t-16 27.5t-25 14t-32.5 4q-22 0 -44 -3zM275 1256h-54l-159 247q-4 7 -4 11q0 12 17 15q24 6 55 8t49 2 q15 0 21.5 -8t9.5 -19l72 -248z" />
<glyph unicode="&#xcd;" horiz-adv-x="506" d="M31 1145q54 10 102.5 17t86 11t62.5 6t32 2q32 0 32 -32v-1122q0 -24 -24 -28q-17 -3 -37.5 -5.5t-40 -4t-36 -2t-24.5 -0.5q-24 0 -24 25v990q0 28 -5.5 45.5t-16 27.5t-25 14t-32.5 4q-22 0 -44 -3zM188 1264l72 248q3 11 9.5 19t21.5 8q9 0 21.5 -0.5t26.5 -1.5t29 -3 t27 -5q17 -3 17 -15q0 -4 -4 -11l-159 -247h-54z" />
<glyph unicode="&#xd2;" d="M706 1189q129 0 233 -40t177.5 -115.5t113.5 -185.5t40 -249q0 -152 -44.5 -269t-126.5 -196.5t-197.5 -121t-257.5 -41.5q-129 0 -233.5 41.5t-178 118.5t-113 188t-39.5 251q0 151 44.5 267t126.5 194t197.5 118t257.5 40zM656 1105q-98 0 -168 -40t-114.5 -107 t-65.5 -154t-21 -181q0 -105 22.5 -207t71.5 -182t127 -129.5t188 -49.5q98 0 168 41.5t114.5 110t65.5 157t21 182.5q0 105 -22.5 205.5t-71.5 179t-127 126.5t-188 48zM715 1256h-54l-159 247q-4 7 -4 11q0 12 17 15q24 6 55 8t49 2q15 0 21.5 -8t9.5 -19l72 -248z" />
<glyph unicode="&#xd3;" d="M706 1189q129 0 233 -40t177.5 -115.5t113.5 -185.5t40 -249q0 -152 -44.5 -269t-126.5 -196.5t-197.5 -121t-257.5 -41.5q-129 0 -233.5 41.5t-178 118.5t-113 188t-39.5 251q0 151 44.5 267t126.5 194t197.5 118t257.5 40zM656 1105q-98 0 -168 -40t-114.5 -107 t-65.5 -154t-21 -181q0 -105 22.5 -207t71.5 -182t127 -129.5t188 -49.5q98 0 168 41.5t114.5 110t65.5 157t21 182.5q0 105 -22.5 205.5t-71.5 179t-127 126.5t-188 48zM628 1264l72 248q3 11 9.5 19t21.5 8q9 0 21.5 -0.5t26.5 -1.5t29 -3t27 -5q17 -3 17 -15q0 -4 -4 -11 l-159 -247h-54z" />
<glyph unicode="&#xd4;" d="M706 1189q129 0 233 -40t177.5 -115.5t113.5 -185.5t40 -249q0 -152 -44.5 -269t-126.5 -196.5t-197.5 -121t-257.5 -41.5q-129 0 -233.5 41.5t-178 118.5t-113 188t-39.5 251q0 151 44.5 267t126.5 194t197.5 118t257.5 40zM656 1105q-98 0 -168 -40t-114.5 -107 t-65.5 -154t-21 -181q0 -105 22.5 -207t71.5 -182t127 -129.5t188 -49.5q98 0 168 41.5t114.5 110t65.5 157t21 182.5q0 105 -22.5 205.5t-71.5 179t-127 126.5t-188 48zM892 1256h-61l-154 164h-8l-154 -164h-57l-7 8l146 240q6 11 14 18.5t23 9.5q32 5 52.5 6t29.5 1 q15 0 22 -7t14 -19l147 -249z" />
<glyph unicode="&#xd5;" d="M706 1189q129 0 233 -40t177.5 -115.5t113.5 -185.5t40 -249q0 -152 -44.5 -269t-126.5 -196.5t-197.5 -121t-257.5 -41.5q-129 0 -233.5 41.5t-178 118.5t-113 188t-39.5 251q0 151 44.5 267t126.5 194t197.5 118t257.5 40zM656 1105q-98 0 -168 -40t-114.5 -107 t-65.5 -154t-21 -181q0 -105 22.5 -207t71.5 -182t127 -129.5t188 -49.5q98 0 168 41.5t114.5 110t65.5 157t21 182.5q0 105 -22.5 205.5t-71.5 179t-127 126.5t-188 48zM971 1462q-54 -99 -103.5 -143t-92.5 -44q-25 0 -55.5 15.5t-61.5 33.5q-28 16 -52.5 29t-43.5 13 q-24 0 -54.5 -26.5t-62.5 -68.5l-45 36q60 102 108 142.5t87 40.5q30 0 61.5 -15.5t61.5 -33.5q27 -17 51 -29.5t43 -12.5q29 0 58.5 27t56.5 62z" />
<glyph unicode="&#xd9;" horiz-adv-x="1225" d="M336 365q-1 -75 19 -126.5t56 -83t84 -45t104 -13.5q72 0 141.5 23t138.5 57v954q0 23 24 28q16 3 36.5 5t40.5 3.5t36.5 2.5t24.5 1q24 0 24 -25v-1119q0 -24 -24 -28q-17 -3 -36.5 -5.5t-38 -4t-33.5 -2t-23 -0.5q-23 0 -24 25l-7 82q-94 -52 -197.5 -86.5 t-209.5 -34.5q-66 0 -125 18t-102.5 55t-69 94.5t-25.5 135.5v726q0 28 -5.5 45.5t-16 27.5t-25 14t-32.5 4q-20 0 -44 -3l-6 55q54 10 102.5 17t86 11t62.5 6t32 2q32 0 32 -32v-784zM645 1256h-54l-159 247q-4 7 -4 11q0 12 17 15q24 6 55 8t49 2q15 0 21.5 -8t9.5 -19 l72 -248z" />
<glyph unicode="&#xda;" horiz-adv-x="1225" d="M336 365q-1 -75 19 -126.5t56 -83t84 -45t104 -13.5q72 0 141.5 23t138.5 57v954q0 23 24 28q16 3 36.5 5t40.5 3.5t36.5 2.5t24.5 1q24 0 24 -25v-1119q0 -24 -24 -28q-17 -3 -36.5 -5.5t-38 -4t-33.5 -2t-23 -0.5q-23 0 -24 25l-7 82q-94 -52 -197.5 -86.5 t-209.5 -34.5q-66 0 -125 18t-102.5 55t-69 94.5t-25.5 135.5v726q0 28 -5.5 45.5t-16 27.5t-25 14t-32.5 4q-20 0 -44 -3l-6 55q54 10 102.5 17t86 11t62.5 6t32 2q32 0 32 -32v-784zM558 1264l72 248q3 11 9.5 19t21.5 8q9 0 21.5 -0.5t26.5 -1.5t29 -3t27 -5 q17 -3 17 -15q0 -4 -4 -11l-159 -247h-54z" />
<glyph unicode="&#xdd;" horiz-adv-x="986" d="M217 1181q15 0 24 -9t18 -26l284 -510l242 493q6 12 13 19t21 11t30 6t31 3.5t27.5 2t19.5 0.5q18 0 18 -12q0 -4 -2 -8t-4 -9l-359 -602v-513q0 -24 -24 -28q-17 -3 -37.5 -5.5t-40 -4t-36 -2t-24.5 -0.5q-24 0 -24 25v510l-277 494q-25 45 -47 62.5t-54 17.5 q-8 0 -18 -1.5t-23 -3.5l-6 55q44 9 85.5 15.5t75.5 11t57 6.5t30 2zM458 1264l72 248q3 11 9.5 19t21.5 8q9 0 21.5 -0.5t26.5 -1.5t29 -3t27 -5q17 -3 17 -15q0 -4 -4 -11l-159 -247h-54z" />
<glyph unicode="&#xe0;" horiz-adv-x="811" d="M107 671q52 21 102.5 37t95 26.5t81 16t60.5 5.5q72 0 121 -16.5t79 -52.5t43 -91.5t12 -133.5l-5 -326q-1 -31 4 -58t11 -53q1 -1 1 -8q0 -15 -20 -18q-13 -3 -29.5 -5.5t-33.5 -4t-34 -2t-30 -0.5q-11 0 -16.5 6t-8.5 18l-13 48q-38 -17 -78 -31.5t-76.5 -25 t-66.5 -16.5t-49 -6q-53 0 -92 19.5t-64 49t-37 65t-12 67.5q0 57 20.5 96.5t55.5 65.5q31 23 72.5 38t91.5 23.5t108 12.5t122 6l1 34q1 46 -5.5 82.5t-23.5 61.5t-46 38t-73 13q-54 0 -112.5 -12t-133.5 -36zM521 355q-47 -3 -88 -5.5t-75 -7.5t-60 -15.5t-42 -29.5 q-12 -14 -20 -35t-8 -46q0 -21 6.5 -43t23 -40.5t44.5 -30.5t71 -12q6 0 19.5 2t33 6.5t43.5 12.5t49 20zM445 826h-54l-183 327q-4 7 -4 12q0 11 16 14q12 3 29 5t34.5 3.5t32.5 2t23 0.5q15 0 22.5 -8t10.5 -19l80 -329z" />
<glyph unicode="&#xe1;" horiz-adv-x="811" d="M107 671q52 21 102.5 37t95 26.5t81 16t60.5 5.5q72 0 121 -16.5t79 -52.5t43 -91.5t12 -133.5l-5 -326q-1 -31 4 -58t11 -53q1 -1 1 -8q0 -15 -20 -18q-13 -3 -29.5 -5.5t-33.5 -4t-34 -2t-30 -0.5q-11 0 -16.5 6t-8.5 18l-13 48q-38 -17 -78 -31.5t-76.5 -25 t-66.5 -16.5t-49 -6q-53 0 -92 19.5t-64 49t-37 65t-12 67.5q0 57 20.5 96.5t55.5 65.5q31 23 72.5 38t91.5 23.5t108 12.5t122 6l1 34q1 46 -5.5 82.5t-23.5 61.5t-46 38t-73 13q-54 0 -112.5 -12t-133.5 -36zM521 355q-47 -3 -88 -5.5t-75 -7.5t-60 -15.5t-42 -29.5 q-12 -14 -20 -35t-8 -46q0 -21 6.5 -43t23 -40.5t44.5 -30.5t71 -12q6 0 19.5 2t33 6.5t43.5 12.5t49 20zM358 834l77 318q6 24 31 28q16 3 35.5 5t38 3t33.5 1.5t23 0.5q17 0 17 -14q0 -5 -4 -12l-190 -338h-54z" />
<glyph unicode="&#xe2;" horiz-adv-x="811" d="M107 671q52 21 102.5 37t95 26.5t81 16t60.5 5.5q72 0 121 -16.5t79 -52.5t43 -91.5t12 -133.5l-5 -326q-1 -31 4 -58t11 -53q1 -1 1 -8q0 -15 -20 -18q-13 -3 -29.5 -5.5t-33.5 -4t-34 -2t-30 -0.5q-11 0 -16.5 6t-8.5 18l-13 48q-38 -17 -78 -31.5t-76.5 -25 t-66.5 -16.5t-49 -6q-53 0 -92 19.5t-64 49t-37 65t-12 67.5q0 57 20.5 96.5t55.5 65.5q31 23 72.5 38t91.5 23.5t108 12.5t122 6l1 34q1 46 -5.5 82.5t-23.5 61.5t-46 38t-73 13q-54 0 -112.5 -12t-133.5 -36zM521 355q-47 -3 -88 -5.5t-75 -7.5t-60 -15.5t-42 -29.5 q-12 -14 -20 -35t-8 -46q0 -21 6.5 -43t23 -40.5t44.5 -30.5t71 -12q6 0 19.5 2t33 6.5t43.5 12.5t49 20zM652 826h-61l-184 224h-8l-184 -224h-57l-7 8l170 317q5 11 12.5 18.5t20.5 9.5q33 5 58.5 8t38.5 3q15 0 22.5 -8t12.5 -19l173 -329z" />
<glyph unicode="&#xe3;" horiz-adv-x="811" d="M107 671q52 21 102.5 37t95 26.5t81 16t60.5 5.5q72 0 121 -16.5t79 -52.5t43 -91.5t12 -133.5l-5 -326q-1 -31 4 -58t11 -53q1 -1 1 -8q0 -15 -20 -18q-13 -3 -29.5 -5.5t-33.5 -4t-34 -2t-30 -0.5q-11 0 -16.5 6t-8.5 18l-13 48q-38 -17 -78 -31.5t-76.5 -25 t-66.5 -16.5t-49 -6q-53 0 -92 19.5t-64 49t-37 65t-12 67.5q0 57 20.5 96.5t55.5 65.5q31 23 72.5 38t91.5 23.5t108 12.5t122 6l1 34q1 46 -5.5 82.5t-23.5 61.5t-46 38t-73 13q-54 0 -112.5 -12t-133.5 -36zM521 355q-47 -3 -88 -5.5t-75 -7.5t-60 -15.5t-42 -29.5 q-12 -14 -20 -35t-8 -46q0 -21 6.5 -43t23 -40.5t44.5 -30.5t71 -12q6 0 19.5 2t33 6.5t43.5 12.5t49 20zM709 1104q-54 -97 -105 -142t-94 -45q-24 0 -54.5 15t-60.5 32q-29 17 -54.5 30t-45.5 13q-24 0 -55 -26t-63 -68l-48 36q31 51 58.5 85.5t52.5 56.5t47.5 31.5 t42.5 9.5q32 0 65 -16.5t64 -34.5q26 -15 49 -27t41 -12q29 0 58.5 26.5t57.5 61.5z" />
<glyph unicode="&#xe8;" horiz-adv-x="801" d="M766 85q-48 -23 -101 -42.5t-103.5 -33.5t-94 -21.5t-72.5 -7.5q-81 0 -143.5 30.5t-105 81t-64.5 116.5t-22 137q0 92 34 167.5t92.5 129t136.5 83t165 29.5q57 0 101 -17.5t74 -48t46 -73.5t16 -94q0 -44 -17 -110l-470 -25q4 -63 25 -115t59.5 -90t94 -59t127.5 -21 q48 0 102.5 11.5t97.5 28.5zM544 469q3 14 4 27t1 27q0 28 -8.5 53t-24.5 43.5t-40 29t-54 10.5q-48 0 -82.5 -17.5t-57 -46.5t-33.5 -67.5t-12 -80.5zM465 826h-54l-183 327q-4 7 -4 12q0 11 16 14q12 3 29 5t34.5 3.5t32.5 2t23 0.5q15 0 22.5 -8t10.5 -19l80 -329z" />
<glyph unicode="&#xe9;" horiz-adv-x="801" d="M766 85q-48 -23 -101 -42.5t-103.5 -33.5t-94 -21.5t-72.5 -7.5q-81 0 -143.5 30.5t-105 81t-64.5 116.5t-22 137q0 92 34 167.5t92.5 129t136.5 83t165 29.5q57 0 101 -17.5t74 -48t46 -73.5t16 -94q0 -44 -17 -110l-470 -25q4 -63 25 -115t59.5 -90t94 -59t127.5 -21 q48 0 102.5 11.5t97.5 28.5zM544 469q3 14 4 27t1 27q0 28 -8.5 53t-24.5 43.5t-40 29t-54 10.5q-48 0 -82.5 -17.5t-57 -46.5t-33.5 -67.5t-12 -80.5zM378 834l77 318q6 24 31 28q16 3 35.5 5t38 3t33.5 1.5t23 0.5q17 0 17 -14q0 -5 -4 -12l-190 -338h-54z" />
<glyph unicode="&#xea;" horiz-adv-x="801" d="M766 85q-48 -23 -101 -42.5t-103.5 -33.5t-94 -21.5t-72.5 -7.5q-81 0 -143.5 30.5t-105 81t-64.5 116.5t-22 137q0 92 34 167.5t92.5 129t136.5 83t165 29.5q57 0 101 -17.5t74 -48t46 -73.5t16 -94q0 -44 -17 -110l-470 -25q4 -63 25 -115t59.5 -90t94 -59t127.5 -21 q48 0 102.5 11.5t97.5 28.5zM544 469q3 14 4 27t1 27q0 28 -8.5 53t-24.5 43.5t-40 29t-54 10.5q-48 0 -82.5 -17.5t-57 -46.5t-33.5 -67.5t-12 -80.5zM672 826h-61l-184 224h-8l-184 -224h-57l-7 8l170 317q5 11 12.5 18.5t20.5 9.5q33 5 58.5 8t38.5 3q15 0 22.5 -8 t12.5 -19l173 -329z" />
<glyph unicode="&#xec;" horiz-adv-x="458" d="M32 693q54 15 100 25.5t81.5 17.5t58 10t29.5 3q32 0 32 -36v-686q0 -24 -24 -28q-17 -3 -36.5 -5.5t-37.5 -4t-33 -2t-23 -0.5q-24 0 -24 25v545q0 53 -17 72.5t-53 19.5q-11 0 -21.5 -0.5t-25.5 -3.5zM262 826h-54l-183 327q-4 7 -4 12q0 11 16 14q12 3 29 5t34.5 3.5 t32.5 2t23 0.5q15 0 22.5 -8t10.5 -19l80 -329z" />
<glyph unicode="&#xed;" horiz-adv-x="458" d="M32 693q54 15 100 25.5t81.5 17.5t58 10t29.5 3q32 0 32 -36v-686q0 -24 -24 -28q-17 -3 -36.5 -5.5t-37.5 -4t-33 -2t-23 -0.5q-24 0 -24 25v545q0 53 -17 72.5t-53 19.5q-11 0 -21.5 -0.5t-25.5 -3.5zM175 834l77 318q6 24 31 28q16 3 35.5 5t38 3t33.5 1.5t23 0.5 q17 0 17 -14q0 -5 -4 -12l-190 -338h-54z" />
<glyph unicode="&#xf2;" horiz-adv-x="910" d="M434 -20q-83 0 -150.5 29.5t-116.5 80.5t-75.5 120.5t-26.5 149.5q0 88 30.5 161t84.5 124.5t129 80t165 28.5q83 0 151.5 -28.5t117 -78.5t75.5 -118t27 -147q0 -90 -30 -164.5t-84.5 -127t-130 -81.5t-166.5 -29zM481 68q54 0 89 23.5t55 60.5t27.5 83t7.5 90 q0 54 -11.5 114t-38.5 110.5t-71 83.5t-109 33q-54 0 -89 -23.5t-55 -61t-28 -83t-8 -90.5q0 -55 12 -115t39 -110t71 -82.5t109 -32.5zM495 826h-54l-183 327q-4 7 -4 12q0 11 16 14q12 3 29 5t34.5 3.5t32.5 2t23 0.5q15 0 22.5 -8t10.5 -19l80 -329z" />
<glyph unicode="&#xf3;" horiz-adv-x="910" d="M434 -20q-83 0 -150.5 29.5t-116.5 80.5t-75.5 120.5t-26.5 149.5q0 88 30.5 161t84.5 124.5t129 80t165 28.5q83 0 151.5 -28.5t117 -78.5t75.5 -118t27 -147q0 -90 -30 -164.5t-84.5 -127t-130 -81.5t-166.5 -29zM481 68q54 0 89 23.5t55 60.5t27.5 83t7.5 90 q0 54 -11.5 114t-38.5 110.5t-71 83.5t-109 33q-54 0 -89 -23.5t-55 -61t-28 -83t-8 -90.5q0 -55 12 -115t39 -110t71 -82.5t109 -32.5zM408 834l77 318q6 24 31 28q16 3 35.5 5t38 3t33.5 1.5t23 0.5q17 0 17 -14q0 -5 -4 -12l-190 -338h-54z" />
<glyph unicode="&#xf4;" horiz-adv-x="910" d="M434 -20q-83 0 -150.5 29.5t-116.5 80.5t-75.5 120.5t-26.5 149.5q0 88 30.5 161t84.5 124.5t129 80t165 28.5q83 0 151.5 -28.5t117 -78.5t75.5 -118t27 -147q0 -90 -30 -164.5t-84.5 -127t-130 -81.5t-166.5 -29zM481 68q54 0 89 23.5t55 60.5t27.5 83t7.5 90 q0 54 -11.5 114t-38.5 110.5t-71 83.5t-109 33q-54 0 -89 -23.5t-55 -61t-28 -83t-8 -90.5q0 -55 12 -115t39 -110t71 -82.5t109 -32.5zM702 826h-61l-184 224h-8l-184 -224h-57l-7 8l170 317q5 11 12.5 18.5t20.5 9.5q33 5 58.5 8t38.5 3q15 0 22.5 -8t12.5 -19l173 -329z " />
<glyph unicode="&#xf5;" horiz-adv-x="910" d="M434 -20q-83 0 -150.5 29.5t-116.5 80.5t-75.5 120.5t-26.5 149.5q0 88 30.5 161t84.5 124.5t129 80t165 28.5q83 0 151.5 -28.5t117 -78.5t75.5 -118t27 -147q0 -90 -30 -164.5t-84.5 -127t-130 -81.5t-166.5 -29zM481 68q54 0 89 23.5t55 60.5t27.5 83t7.5 90 q0 54 -11.5 114t-38.5 110.5t-71 83.5t-109 33q-54 0 -89 -23.5t-55 -61t-28 -83t-8 -90.5q0 -55 12 -115t39 -110t71 -82.5t109 -32.5zM754 1104q-54 -97 -105 -142t-94 -45q-24 0 -54.5 15t-60.5 32q-29 17 -54.5 30t-45.5 13q-24 0 -55 -26t-63 -68l-48 36 q31 51 58.5 85.5t52.5 56.5t47.5 31.5t42.5 9.5q32 0 65 -16.5t64 -34.5q26 -15 49 -27t41 -12q29 0 58.5 26.5t57.5 61.5z" />
<glyph unicode="&#xf7;" horiz-adv-x="1706" />
<glyph unicode="&#xf9;" horiz-adv-x="582" />
<glyph unicode="&#xfa;" horiz-adv-x="580" />
<glyph unicode="&#xfd;" horiz-adv-x="629" />
<glyph unicode="&#x102;" horiz-adv-x="1170" d="M296 419l-154 -415q-4 -11 -18 -13q-18 -2 -41 -3t-52 -1q-16 0 -16 10q0 3 1 5l458 1098l-21 58q-2 8 -2 11q0 15 19 18q16 3 37.5 5.5t41.5 4.5t37 3t25 1q20 0 29 -23l446 -1148q3 -8 3 -11q0 -17 -20 -20q-18 -3 -40.5 -5.5t-44 -4t-39.5 -2t-26 -0.5q-17 0 -23 15 l-163 424zM328 504h375l-190 496zM829 1528q-4 -67 -27 -114.5t-58.5 -78t-80 -44.5t-90.5 -14t-91 14.5t-81 45t-60 77.5t-28 112l100 17q8 -42 25.5 -71.5t42.5 -48.5t55 -27.5t62 -8.5q30 0 59 8.5t53 26.5t41 46.5t22 67.5z" />
<glyph unicode="&#x103;" horiz-adv-x="811" d="M107 671q52 21 102.5 37t95 26.5t81 16t60.5 5.5q72 0 121 -16.5t79 -52.5t43 -91.5t12 -133.5l-5 -326q-1 -31 4 -58t11 -53q1 -1 1 -8q0 -15 -20 -18q-13 -3 -29.5 -5.5t-33.5 -4t-34 -2t-30 -0.5q-11 0 -16.5 6t-8.5 18l-13 48q-38 -17 -78 -31.5t-76.5 -25 t-66.5 -16.5t-49 -6q-53 0 -92 19.5t-64 49t-37 65t-12 67.5q0 57 20.5 96.5t55.5 65.5q31 23 72.5 38t91.5 23.5t108 12.5t122 6l1 34q1 46 -5.5 82.5t-23.5 61.5t-46 38t-73 13q-54 0 -112.5 -12t-133.5 -36zM521 355q-47 -3 -88 -5.5t-75 -7.5t-60 -15.5t-42 -29.5 q-12 -14 -20 -35t-8 -46q0 -21 6.5 -43t23 -40.5t44.5 -30.5t71 -12q6 0 19.5 2t33 6.5t43.5 12.5t49 20zM670 1158q-4 -70 -27.5 -120t-60 -82t-82 -47t-93.5 -15q-47 0 -93.5 15t-84 47t-62 81.5t-28.5 117.5l103 19q9 -44 27 -75.5t43 -51.5t55.5 -29t64.5 -9q31 0 61 9 t54.5 28.5t42 49t23.5 71.5z" />
<glyph unicode="&#x10c;" horiz-adv-x="1274" />
<glyph unicode="&#x10d;" horiz-adv-x="922" />
<glyph unicode="&#x110;" horiz-adv-x="1295" d="M184 0q-24 0 -24 25v547l-113 -1l-5 86h118v355q0 51 -22 67.5t-57 16.5q-20 0 -44 -3l-6 54q112 19 226.5 30.5t229.5 11.5q96 0 187.5 -11t172 -37t147.5 -69t115.5 -107t75.5 -151t27 -201q0 -151 -53.5 -268.5t-149 -198.5t-227 -123t-286.5 -42q-45 0 -79.5 3 t-68.5 6.5t-72.5 6.5t-91.5 3zM346 657h329l-5 -82l-324 -2v-493q38 -9 77 -12.5t81 -3.5q120 0 214 36.5t158 104.5t97.5 165t33.5 218q0 115 -34.5 210t-100.5 163.5t-162 106t-219 37.5h-51q-45 0 -69.5 -7.5t-24.5 -40.5v-400z" />
<glyph unicode="&#x111;" horiz-adv-x="956" d="M533 1291q110 30 181 42.5t85 12.5q32 0 32 -36v-289h90l-5 -71l-85 -1v-807q0 -34 4.5 -62.5t10.5 -54.5q5 -22 -19 -26q-13 -3 -29.5 -5.5t-34 -4t-34.5 -2t-31 -0.5q-11 0 -16.5 6t-8.5 18l-15 56q-47 -18 -93.5 -34t-88.5 -27.5t-76.5 -18.5t-58.5 -7 q-65 0 -117 33.5t-88 85t-55 113.5t-19 119q0 102 37 180.5t101 132.5t150 82t184 28q60 0 119 -9v202l-331 -3l-5 77h336v133q0 53 -17 72.5t-56 19.5q-19 0 -41 -3zM653 552q0 33 -16.5 55.5t-41.5 36t-55 19.5t-58 6q-65 0 -111.5 -19.5t-75.5 -54.5t-42.5 -83.5 t-13.5 -105.5q0 -48 11.5 -103.5t37.5 -103t68 -78.5t103 -31q9 0 27 2t43.5 7.5t57 15t66.5 24.5v413z" />
<glyph unicode="&#x128;" horiz-adv-x="506" d="M31 1145q54 10 102.5 17t86 11t62.5 6t32 2q32 0 32 -32v-1122q0 -24 -24 -28q-17 -3 -37.5 -5.5t-40 -4t-36 -2t-24.5 -0.5q-24 0 -24 25v990q0 28 -5.5 45.5t-16 27.5t-25 14t-32.5 4q-22 0 -44 -3zM531 1462q-54 -99 -103.5 -143t-92.5 -44q-25 0 -55.5 15.5 t-61.5 33.5q-28 16 -52.5 29t-43.5 13q-24 0 -54.5 -26.5t-62.5 -68.5l-45 36q60 102 108 142.5t87 40.5q30 0 61.5 -15.5t61.5 -33.5q27 -17 51 -29.5t43 -12.5q29 0 58.5 27t56.5 62z" />
<glyph unicode="&#x129;" horiz-adv-x="458" d="M32 693q54 15 100 25.5t81.5 17.5t58 10t29.5 3q32 0 32 -36v-686q0 -24 -24 -28q-17 -3 -36.5 -5.5t-37.5 -4t-33 -2t-23 -0.5q-24 0 -24 25v545q0 53 -17 72.5t-53 19.5q-11 0 -21.5 -0.5t-25.5 -3.5zM521 1104q-54 -97 -105 -142t-94 -45q-24 0 -54.5 15t-60.5 32 q-29 17 -54.5 30t-45.5 13q-24 0 -55 -26t-63 -68l-48 36q31 51 58.5 85.5t52.5 56.5t47.5 31.5t42.5 9.5q32 0 65 -16.5t64 -34.5q26 -15 49 -27t41 -12q29 0 58.5 26.5t57.5 61.5z" />
<glyph unicode="&#x168;" horiz-adv-x="1225" d="M336 365q-1 -75 19 -126.5t56 -83t84 -45t104 -13.5q72 0 141.5 23t138.5 57v954q0 23 24 28q16 3 36.5 5t40.5 3.5t36.5 2.5t24.5 1q24 0 24 -25v-1119q0 -24 -24 -28q-17 -3 -36.5 -5.5t-38 -4t-33.5 -2t-23 -0.5q-23 0 -24 25l-7 82q-94 -52 -197.5 -86.5 t-209.5 -34.5q-66 0 -125 18t-102.5 55t-69 94.5t-25.5 135.5v726q0 28 -5.5 45.5t-16 27.5t-25 14t-32.5 4q-20 0 -44 -3l-6 55q54 10 102.5 17t86 11t62.5 6t32 2q32 0 32 -32v-784zM901 1462q-54 -99 -103.5 -143t-92.5 -44q-25 0 -55.5 15.5t-61.5 33.5q-28 16 -52.5 29 t-43.5 13q-24 0 -54.5 -26.5t-62.5 -68.5l-45 36q60 102 108 142.5t87 40.5q30 0 61.5 -15.5t61.5 -33.5q27 -17 51 -29.5t43 -12.5q29 0 58.5 27t56.5 62z" />
<glyph unicode="&#x169;" horiz-adv-x="983" d="M680 557q0 53 -17 72.5t-53 19.5q-11 0 -21.5 -0.5t-25.5 -3.5l-6 48q54 15 100 25.5t81.5 17.5t58 10t29.5 3q32 0 32 -36v-571q0 -34 4.5 -62.5t10.5 -54.5l1 -6q0 -15 -20 -20q-13 -2 -29.5 -4t-34 -4t-35 -3t-30.5 -1q-11 0 -16.5 6t-8.5 18l-15 56 q-47 -18 -93.5 -34t-88.5 -27.5t-77 -18.5t-59 -7q-56 0 -96.5 18t-66.5 50t-38.5 77.5t-12.5 100.5l5 331q1 53 -16.5 72.5t-53.5 19.5q-11 0 -21.5 -0.5t-25.5 -3.5l-6 48q54 15 100 25.5t81.5 17.5t58 10t29.5 3q32 0 32 -36l-5 -389v-15q0 -54 8.5 -94.5t28.5 -68 t52 -41.5t79 -14q15 0 36.5 3.5t46 10t50 15.5t48.5 19v418zM799 1104q-54 -97 -105 -142t-94 -45q-24 0 -54.5 15t-60.5 32q-29 17 -54.5 30t-45.5 13q-24 0 -55 -26t-63 -68l-48 36q31 51 58.5 85.5t52.5 56.5t47.5 31.5t42.5 9.5q32 0 65 -16.5t64 -34.5q26 -15 49 -27 t41 -12q29 0 58.5 26.5t57.5 61.5z" />
<glyph unicode="&#x1a0;" d="M656 1105q-98 0 -168 -40t-114.5 -107t-65.5 -154t-21 -181q0 -105 22.5 -207t71.5 -182t127 -129.5t188 -49.5q98 0 168 41.5t114.5 110t65.5 157t21 182.5q0 105 -22.5 205.5t-71.5 179t-127 126.5t-188 48zM1144 1002q54 -66 86 -154q40 -110 40 -249 q0 -152 -44.5 -269t-126.5 -196.5t-197.5 -121t-257.5 -41.5q-129 0 -233.5 41.5t-178 118.5t-113 188t-39.5 251q0 151 44.5 267t126.5 194t197.5 118t257.5 40q129 0 233 -40q79 -31 141 -82q15 46 15 91q0 43 -10 81t-27 67q-4 9 -1.5 17t12.5 11q20 5 41.5 8.5t40.5 6 t33.5 4t20.5 1.5q14 0 20 -7t11 -18q8 -21 11.5 -42t3.5 -43q0 -47 -14 -93.5t-41 -87.5q-22 -33 -52 -61z" />
<glyph unicode="&#x1a1;" horiz-adv-x="910" d="M481 68q54 0 89 23.5t55 60.5t27.5 83t7.5 90q0 54 -11.5 114t-38.5 110.5t-71 83.5t-109 33q-54 0 -89 -23.5t-55 -61t-28 -83t-8 -90.5q0 -55 12 -115t39 -110t71 -82.5t109 -32.5zM774 610q26 -37 44 -81q27 -68 27 -147q0 -90 -30 -164.5t-84.5 -127t-130 -81.5 t-166.5 -29q-83 0 -150.5 29.5t-116.5 80.5t-75.5 120.5t-26.5 149.5q0 88 30.5 161t84.5 124.5t129 80t165 28.5q83 0 152 -28q63 -27 109 -71q7 12 13 26q16 43 16 86q0 37 -8.5 69t-23.5 57q-3 8 -1 14.5t11 9.5q17 4 35 7t34 5t28.5 3.5t17.5 1.5q12 0 17 -6t9 -15 q7 -18 10 -36t3 -37q0 -40 -12 -79.5t-34.5 -74t-56.5 -62.5q-9 -8 -19 -14z" />
<glyph unicode="&#x1af;" horiz-adv-x="1225" d="M1065 948v-921q0 -24 -24 -28q-17 -3 -36.5 -5.5t-38 -4t-33.5 -2t-23 -0.5q-23 0 -24 25l-7 82q-94 -52 -197.5 -86.5t-209.5 -34.5q-66 0 -125 18t-102.5 55t-69 94.5t-25.5 135.5v726q0 28 -5.5 45.5t-16 27.5t-25 14t-32.5 4q-20 0 -44 -3l-6 55q54 10 102.5 17 t86 11t62.5 6t32 2q32 0 32 -32v-784q-1 -75 19 -126.5t56 -83t84 -45t104 -13.5q72 0 141.5 23t138.5 57v954q0 23 24 28q16 3 36.5 5t40.5 3.5t36.5 2.5t24.5 1q24 0 24 -25v-115q6 12 11 25q19 51 19 102q0 43 -10 81t-27 67q-4 9 -1.5 17t12.5 11q20 5 41.5 8.5t40.5 6 t33.5 4t20.5 1.5q14 0 20 -7t11 -18q8 -21 11.5 -42t3.5 -43q0 -47 -14 -93.5t-41 -87.5t-67 -74q-29 -24 -64 -41z" />
<glyph unicode="&#x1b0;" horiz-adv-x="983" d="M858 588v-446q0 -34 4.5 -62.5t10.5 -54.5l1 -6q0 -15 -20 -20q-13 -2 -29.5 -4t-34 -4t-35 -3t-30.5 -1q-11 0 -16.5 6t-8.5 18l-15 56q-47 -18 -93.5 -34t-88.5 -27.5t-77 -18.5t-59 -7q-56 0 -96.5 18t-66.5 50t-38.5 77.5t-12.5 100.5l5 331q1 53 -16.5 72.5 t-53.5 19.5q-11 0 -21.5 -0.5t-25.5 -3.5l-6 48q54 15 100 25.5t81.5 17.5t58 10t29.5 3q32 0 32 -36l-5 -389v-15q0 -54 8.5 -94.5t28.5 -68t52 -41.5t79 -14q15 0 36.5 3.5t46 10t50 15.5t48.5 19v418q0 53 -17 72.5t-53 19.5q-11 0 -21.5 -0.5t-25.5 -3.5l-6 48 q54 15 100 25.5t81.5 17.5t58 10t29.5 3q32 0 32 -36v-55q6 11 11 23q16 43 16 86q0 37 -8.5 69t-23.5 57q-3 8 -1 14.5t11 9.5q17 4 35 7t34 5t28.5 3.5t17.5 1.5q12 0 17 -6t9 -15q7 -18 10 -36t3 -37q0 -40 -12 -79.5t-34.5 -74t-56.5 -62.5q-25 -21 -56 -36z" />
<glyph unicode="&#x1ea0;" horiz-adv-x="1170" d="M296 419l-154 -415q-4 -11 -18 -13q-18 -2 -41 -3t-52 -1q-16 0 -16 10q0 3 1 5l458 1098l-21 58q-2 8 -2 11q0 15 19 18q16 3 37.5 5.5t41.5 4.5t37 3t25 1q20 0 29 -23l446 -1148q3 -8 3 -11q0 -17 -20 -20q-18 -3 -40.5 -5.5t-44 -4t-39.5 -2t-26 -0.5q-17 0 -23 15 l-163 424zM328 504h375l-190 496zM614 -169q0 -51 -28 -75t-79 -24q-43 0 -66.5 27t-23.5 72q0 51 29 74t80 23q43 0 65.5 -26t22.5 -71z" />
<glyph unicode="&#x1ea1;" horiz-adv-x="811" d="M107 671q52 21 102.5 37t95 26.5t81 16t60.5 5.5q72 0 121 -16.5t79 -52.5t43 -91.5t12 -133.5l-5 -326q-1 -31 4 -58t11 -53q1 -1 1 -8q0 -15 -20 -18q-13 -3 -29.5 -5.5t-33.5 -4t-34 -2t-30 -0.5q-11 0 -16.5 6t-8.5 18l-13 48q-38 -17 -78 -31.5t-76.5 -25 t-66.5 -16.5t-49 -6q-53 0 -92 19.5t-64 49t-37 65t-12 67.5q0 57 20.5 96.5t55.5 65.5q31 23 72.5 38t91.5 23.5t108 12.5t122 6l1 34q1 46 -5.5 82.5t-23.5 61.5t-46 38t-73 13q-54 0 -112.5 -12t-133.5 -36zM521 355q-47 -3 -88 -5.5t-75 -7.5t-60 -15.5t-42 -29.5 q-12 -14 -20 -35t-8 -46q0 -21 6.5 -43t23 -40.5t44.5 -30.5t71 -12q6 0 19.5 2t33 6.5t43.5 12.5t49 20zM473 -169q0 -51 -28 -75t-79 -24q-43 0 -66.5 27t-23.5 72q0 51 29 74t80 23q43 0 65.5 -26t22.5 -71z" />
<glyph unicode="&#x1ea2;" horiz-adv-x="1170" d="M296 419l-154 -415q-4 -11 -18 -13q-18 -2 -41 -3t-52 -1q-16 0 -16 10q0 3 1 5l458 1098l-21 58q-2 8 -2 11q0 15 19 18q16 3 37.5 5.5t41.5 4.5t37 3t25 1q20 0 29 -23l446 -1148q3 -8 3 -11q0 -17 -20 -20q-18 -3 -40.5 -5.5t-44 -4t-39.5 -2t-26 -0.5q-17 0 -23 15 l-163 424zM328 504h375l-190 496zM478 1545q-31 50 -31 73q0 19 10.5 32.5t27 22t35 11.5t36.5 3q34 0 67.5 -9t59.5 -27t42.5 -45t16.5 -62q0 -23 -7.5 -41t-19.5 -33t-27 -27.5t-31 -23.5q-14 -9 -25.5 -17t-19 -15.5t-11.5 -15t-4 -17.5q0 -9 4.5 -20.5t26.5 -42.5 q-28 -19 -42 -24.5t-29 -5.5q-19 0 -34 7t-24.5 17.5t-14 23.5t-4.5 27q0 22 9.5 41t23.5 35t31 28.5t34 24.5q14 10 27.5 20t23 19t14 17t4.5 18q0 11 -5 18.5t-13.5 12t-21.5 7t-28 2.5q-47 0 -101 -34z" />
<glyph unicode="&#x1ea3;" horiz-adv-x="811" d="M107 671q52 21 102.5 37t95 26.5t81 16t60.5 5.5q72 0 121 -16.5t79 -52.5t43 -91.5t12 -133.5l-5 -326q-1 -31 4 -58t11 -53q1 -1 1 -8q0 -15 -20 -18q-13 -3 -29.5 -5.5t-33.5 -4t-34 -2t-30 -0.5q-11 0 -16.5 6t-8.5 18l-13 48q-38 -17 -78 -31.5t-76.5 -25 t-66.5 -16.5t-49 -6q-53 0 -92 19.5t-64 49t-37 65t-12 67.5q0 57 20.5 96.5t55.5 65.5q31 23 72.5 38t91.5 23.5t108 12.5t122 6l1 34q1 46 -5.5 82.5t-23.5 61.5t-46 38t-73 13q-54 0 -112.5 -12t-133.5 -36zM521 355q-47 -3 -88 -5.5t-75 -7.5t-60 -15.5t-42 -29.5 q-12 -14 -20 -35t-8 -46q0 -21 6.5 -43t23 -40.5t44.5 -30.5t71 -12q6 0 19.5 2t33 6.5t43.5 12.5t49 20zM338 1093q-31 50 -31 73q0 19 10.5 32.5t27 22t35 11.5t36.5 3q34 0 67.5 -9t59.5 -27t42.5 -45t16.5 -62q0 -23 -7.5 -41t-19.5 -33t-27 -27.5t-31 -23.5 q-14 -9 -25.5 -17t-19 -15.5t-11.5 -15t-4 -17.5q0 -9 4.5 -20.5t26.5 -42.5q-28 -19 -42 -24.5t-29 -5.5q-19 0 -34 7t-24.5 17.5t-14 23.5t-4.5 27q0 22 9.5 41t23.5 35t31 28.5t34 24.5q14 10 27.5 20t23 19t14 17t4.5 18q0 11 -5 18.5t-13.5 12t-21.5 7t-28 2.5 q-47 0 -101 -34z" />
<glyph unicode="&#x1ea4;" horiz-adv-x="1170" d="M296 419l-154 -415q-4 -11 -18 -13q-18 -2 -41 -3t-52 -1q-16 0 -16 10q0 3 1 5l458 1098l-21 58q-2 8 -2 11q0 15 19 18q16 3 37.5 5.5t41.5 4.5t37 3t25 1q20 0 29 -23l446 -1148q3 -8 3 -11q0 -17 -20 -20q-18 -3 -40.5 -5.5t-44 -4t-39.5 -2t-26 -0.5q-17 0 -23 15 l-163 424zM328 504h375l-190 496zM715 1474l72 248q3 11 9.5 19t21.5 8q9 0 21.5 -0.5t26.5 -1.5t29 -3t27 -5q17 -3 17 -15q0 -4 -4 -11l-159 -247h-54zM789 1256h-61l-154 164h-8l-154 -164h-57l-7 8l146 240q6 11 14 18.5t23 9.5q32 5 52.5 6t29.5 1q15 0 22 -7t14 -19 l147 -249z" />
<glyph unicode="&#x1ea5;" horiz-adv-x="811" d="M107 671q52 21 102.5 37t95 26.5t81 16t60.5 5.5q72 0 121 -16.5t79 -52.5t43 -91.5t12 -133.5l-5 -326q-1 -31 4 -58t11 -53q1 -1 1 -8q0 -15 -20 -18q-13 -3 -29.5 -5.5t-33.5 -4t-34 -2t-30 -0.5q-11 0 -16.5 6t-8.5 18l-13 48q-38 -17 -78 -31.5t-76.5 -25 t-66.5 -16.5t-49 -6q-53 0 -92 19.5t-64 49t-37 65t-12 67.5q0 57 20.5 96.5t55.5 65.5q31 23 72.5 38t91.5 23.5t108 12.5t122 6l1 34q1 46 -5.5 82.5t-23.5 61.5t-46 38t-73 13q-54 0 -112.5 -12t-133.5 -36zM521 355q-47 -3 -88 -5.5t-75 -7.5t-60 -15.5t-42 -29.5 q-12 -14 -20 -35t-8 -46q0 -21 6.5 -43t23 -40.5t44.5 -30.5t71 -12q6 0 19.5 2t33 6.5t43.5 12.5t49 20zM569 1085l77 318q6 24 31 28q16 3 35.5 5t38 3t33.5 1.5t23 0.5q17 0 17 -14q0 -5 -4 -12l-190 -338h-54zM652 826h-61l-184 224h-8l-184 -224h-57l-7 8l170 317 q5 11 12.5 18.5t20.5 9.5q33 5 58.5 8t38.5 3q15 0 22.5 -8t12.5 -19l173 -329z" />
<glyph unicode="&#x1ea6;" horiz-adv-x="1170" d="M296 419l-154 -415q-4 -11 -18 -13q-18 -2 -41 -3t-52 -1q-16 0 -16 10q0 3 1 5l458 1098l-21 58q-2 8 -2 11q0 15 19 18q16 3 37.5 5.5t41.5 4.5t37 3t25 1q20 0 29 -23l446 -1148q3 -8 3 -11q0 -17 -20 -20q-18 -3 -40.5 -5.5t-44 -4t-39.5 -2t-26 -0.5q-17 0 -23 15 l-163 424zM328 504h375l-190 496zM782 1466h-54l-159 247q-4 7 -4 11q0 12 17 15q24 6 55 8t49 2q15 0 21.5 -8t9.5 -19l72 -248zM789 1256h-61l-154 164h-8l-154 -164h-57l-7 8l146 240q6 11 14 18.5t23 9.5q32 5 52.5 6t29.5 1q15 0 22 -7t14 -19l147 -249z" />
<glyph unicode="&#x1ea7;" horiz-adv-x="811" d="M107 671q52 21 102.5 37t95 26.5t81 16t60.5 5.5q72 0 121 -16.5t79 -52.5t43 -91.5t12 -133.5l-5 -326q-1 -31 4 -58t11 -53q1 -1 1 -8q0 -15 -20 -18q-13 -3 -29.5 -5.5t-33.5 -4t-34 -2t-30 -0.5q-11 0 -16.5 6t-8.5 18l-13 48q-38 -17 -78 -31.5t-76.5 -25 t-66.5 -16.5t-49 -6q-53 0 -92 19.5t-64 49t-37 65t-12 67.5q0 57 20.5 96.5t55.5 65.5q31 23 72.5 38t91.5 23.5t108 12.5t122 6l1 34q1 46 -5.5 82.5t-23.5 61.5t-46 38t-73 13q-54 0 -112.5 -12t-133.5 -36zM521 355q-47 -3 -88 -5.5t-75 -7.5t-60 -15.5t-42 -29.5 q-12 -14 -20 -35t-8 -46q0 -21 6.5 -43t23 -40.5t44.5 -30.5t71 -12q6 0 19.5 2t33 6.5t43.5 12.5t49 20zM646 1077h-54l-183 327q-4 7 -4 12q0 11 16 14q12 3 29 5t34.5 3.5t32.5 2t23 0.5q15 0 22.5 -8t10.5 -19l80 -329zM652 826h-61l-184 224h-8l-184 -224h-57l-7 8 l170 317q5 11 12.5 18.5t20.5 9.5q33 5 58.5 8t38.5 3q15 0 22.5 -8t12.5 -19l173 -329z" />
<glyph unicode="&#x1ea8;" horiz-adv-x="1170" d="M296 419l-154 -415q-4 -11 -18 -13q-18 -2 -41 -3t-52 -1q-16 0 -16 10q0 3 1 5l458 1098l-21 58q-2 8 -2 11q0 15 19 18q16 3 37.5 5.5t41.5 4.5t37 3t25 1q20 0 29 -23l446 -1148q3 -8 3 -11q0 -17 -20 -20q-18 -3 -40.5 -5.5t-44 -4t-39.5 -2t-26 -0.5q-17 0 -23 15 l-163 424zM328 504h375l-190 496zM729 1716q-31 50 -31 73q0 19 10.5 32.5t27 22t35 11.5t36.5 3q34 0 67.5 -9t59.5 -27t42.5 -45t16.5 -62q0 -23 -7.5 -41t-19.5 -33t-27 -27.5t-31 -23.5q-14 -9 -25.5 -17t-19 -15.5t-11.5 -15t-4 -17.5q0 -9 4.5 -20.5t26.5 -42.5 q-28 -19 -42 -24.5t-29 -5.5q-19 0 -34 7t-24.5 17.5t-14 23.5t-4.5 27q0 22 9.5 41t23.5 35t31 28.5t34 24.5q14 10 27.5 20t23 19t14 17t4.5 18q0 11 -5 18.5t-13.5 12t-21.5 7t-28 2.5q-47 0 -101 -34zM789 1256h-61l-154 164h-8l-154 -164h-57l-7 8l146 240 q6 11 14 18.5t23 9.5q32 5 52.5 6t29.5 1q15 0 22 -7t14 -19l147 -249z" />
<glyph unicode="&#x1ea9;" horiz-adv-x="811" d="M107 671q52 21 102.5 37t95 26.5t81 16t60.5 5.5q72 0 121 -16.5t79 -52.5t43 -91.5t12 -133.5l-5 -326q-1 -31 4 -58t11 -53q1 -1 1 -8q0 -15 -20 -18q-13 -3 -29.5 -5.5t-33.5 -4t-34 -2t-30 -0.5q-11 0 -16.5 6t-8.5 18l-13 48q-38 -17 -78 -31.5t-76.5 -25 t-66.5 -16.5t-49 -6q-53 0 -92 19.5t-64 49t-37 65t-12 67.5q0 57 20.5 96.5t55.5 65.5q31 23 72.5 38t91.5 23.5t108 12.5t122 6l1 34q1 46 -5.5 82.5t-23.5 61.5t-46 38t-73 13q-54 0 -112.5 -12t-133.5 -36zM521 355q-47 -3 -88 -5.5t-75 -7.5t-60 -15.5t-42 -29.5 q-12 -14 -20 -35t-8 -46q0 -21 6.5 -43t23 -40.5t44.5 -30.5t71 -12q6 0 19.5 2t33 6.5t43.5 12.5t49 20zM549 1364q-31 50 -31 73q0 19 10.5 32.5t27 22t35 11.5t36.5 3q34 0 67.5 -9t59.5 -27t42.5 -45t16.5 -62q0 -23 -7.5 -41t-19.5 -33t-27 -27.5t-31 -23.5 q-14 -9 -25.5 -17t-19 -15.5t-11.5 -15t-4 -17.5q0 -9 4.5 -20.5t26.5 -42.5q-28 -19 -42 -24.5t-29 -5.5q-19 0 -34 7t-24.5 17.5t-14 23.5t-4.5 27q0 22 9.5 41t23.5 35t31 28.5t34 24.5q14 10 27.5 20t23 19t14 17t4.5 18q0 11 -5 18.5t-13.5 12t-21.5 7t-28 2.5 q-47 0 -101 -34zM652 826h-61l-184 224h-8l-184 -224h-57l-7 8l170 317q5 11 12.5 18.5t20.5 9.5q33 5 58.5 8t38.5 3q15 0 22.5 -8t12.5 -19l173 -329z" />
<glyph unicode="&#x1eaa;" horiz-adv-x="1170" d="M296 419l-154 -415q-4 -11 -18 -13q-18 -2 -41 -3t-52 -1q-16 0 -16 10q0 3 1 5l458 1098l-21 58q-2 8 -2 11q0 15 19 18q16 3 37.5 5.5t41.5 4.5t37 3t25 1q20 0 29 -23l446 -1148q3 -8 3 -11q0 -17 -20 -20q-18 -3 -40.5 -5.5t-44 -4t-39.5 -2t-26 -0.5q-17 0 -23 15 l-163 424zM328 504h375l-190 496zM958 1723q-54 -99 -103.5 -143t-92.5 -44q-25 0 -55.5 15.5t-61.5 33.5q-28 16 -52.5 29t-43.5 13q-24 0 -54.5 -26.5t-62.5 -68.5l-45 36q60 102 108 142.5t87 40.5q30 0 61.5 -15.5t61.5 -33.5q27 -17 51 -29.5t43 -12.5q29 0 58.5 27 t56.5 62zM789 1256h-61l-154 164h-8l-154 -164h-57l-7 8l146 240q6 11 14 18.5t23 9.5q32 5 52.5 6t29.5 1q15 0 22 -7t14 -19l147 -249z" />
<glyph unicode="&#x1eab;" horiz-adv-x="811" d="M107 671q52 21 102.5 37t95 26.5t81 16t60.5 5.5q72 0 121 -16.5t79 -52.5t43 -91.5t12 -133.5l-5 -326q-1 -31 4 -58t11 -53q1 -1 1 -8q0 -15 -20 -18q-13 -3 -29.5 -5.5t-33.5 -4t-34 -2t-30 -0.5q-11 0 -16.5 6t-8.5 18l-13 48q-38 -17 -78 -31.5t-76.5 -25 t-66.5 -16.5t-49 -6q-53 0 -92 19.5t-64 49t-37 65t-12 67.5q0 57 20.5 96.5t55.5 65.5q31 23 72.5 38t91.5 23.5t108 12.5t122 6l1 34q1 46 -5.5 82.5t-23.5 61.5t-46 38t-73 13q-54 0 -112.5 -12t-133.5 -36zM521 355q-47 -3 -88 -5.5t-75 -7.5t-60 -15.5t-42 -29.5 q-12 -14 -20 -35t-8 -46q0 -21 6.5 -43t23 -40.5t44.5 -30.5t71 -12q6 0 19.5 2t33 6.5t43.5 12.5t49 20zM760 1375q-54 -97 -105 -142t-94 -45q-24 0 -54.5 15t-60.5 32q-29 17 -54.5 30t-45.5 13q-24 0 -55 -26t-63 -68l-48 36q31 51 58.5 85.5t52.5 56.5t47.5 31.5 t42.5 9.5q32 0 65 -16.5t64 -34.5q26 -15 49 -27t41 -12q29 0 58.5 26.5t57.5 61.5zM652 826h-61l-184 224h-8l-184 -224h-57l-7 8l170 317q5 11 12.5 18.5t20.5 9.5q33 5 58.5 8t38.5 3q15 0 22.5 -8t12.5 -19l173 -329z" />
<glyph unicode="&#x1eac;" horiz-adv-x="1170" d="M296 419l-154 -415q-4 -11 -18 -13q-18 -2 -41 -3t-52 -1q-16 0 -16 10q0 3 1 5l458 1098l-21 58q-2 8 -2 11q0 15 19 18q16 3 37.5 5.5t41.5 4.5t37 3t25 1q20 0 29 -23l446 -1148q3 -8 3 -11q0 -17 -20 -20q-18 -3 -40.5 -5.5t-44 -4t-39.5 -2t-26 -0.5q-17 0 -23 15 l-163 424zM328 504h375l-190 496zM789 1256h-61l-154 164h-8l-154 -164h-57l-7 8l146 240q6 11 14 18.5t23 9.5q32 5 52.5 6t29.5 1q15 0 22 -7t14 -19l147 -249zM614 -169q0 -51 -28 -75t-79 -24q-43 0 -66.5 27t-23.5 72q0 51 29 74t80 23q43 0 65.5 -26t22.5 -71z" />
<glyph unicode="&#x1ead;" horiz-adv-x="811" d="M107 671q52 21 102.5 37t95 26.5t81 16t60.5 5.5q72 0 121 -16.5t79 -52.5t43 -91.5t12 -133.5l-5 -326q-1 -31 4 -58t11 -53q1 -1 1 -8q0 -15 -20 -18q-13 -3 -29.5 -5.5t-33.5 -4t-34 -2t-30 -0.5q-11 0 -16.5 6t-8.5 18l-13 48q-38 -17 -78 -31.5t-76.5 -25 t-66.5 -16.5t-49 -6q-53 0 -92 19.5t-64 49t-37 65t-12 67.5q0 57 20.5 96.5t55.5 65.5q31 23 72.5 38t91.5 23.5t108 12.5t122 6l1 34q1 46 -5.5 82.5t-23.5 61.5t-46 38t-73 13q-54 0 -112.5 -12t-133.5 -36zM521 355q-47 -3 -88 -5.5t-75 -7.5t-60 -15.5t-42 -29.5 q-12 -14 -20 -35t-8 -46q0 -21 6.5 -43t23 -40.5t44.5 -30.5t71 -12q6 0 19.5 2t33 6.5t43.5 12.5t49 20zM473 -169q0 -51 -28 -75t-79 -24q-43 0 -66.5 27t-23.5 72q0 51 29 74t80 23q43 0 65.5 -26t22.5 -71zM652 826h-61l-184 224h-8l-184 -224h-57l-7 8l170 317 q5 11 12.5 18.5t20.5 9.5q33 5 58.5 8t38.5 3q15 0 22.5 -8t12.5 -19l173 -329z" />
<glyph unicode="&#x1eae;" horiz-adv-x="1170" d="M296 419l-154 -415q-4 -11 -18 -13q-18 -2 -41 -3t-52 -1q-16 0 -16 10q0 3 1 5l458 1098l-21 58q-2 8 -2 11q0 15 19 18q16 3 37.5 5.5t41.5 4.5t37 3t25 1q20 0 29 -23l446 -1148q3 -8 3 -11q0 -17 -20 -20q-18 -3 -40.5 -5.5t-44 -4t-39.5 -2t-26 -0.5q-17 0 -23 15 l-163 424zM328 504h375l-190 496zM544 1524l72 248q3 11 9.5 19t21.5 8q9 0 21.5 -0.5t26.5 -1.5t29 -3t27 -5q17 -3 17 -15q0 -4 -4 -11l-159 -247h-54zM829 1528q-4 -67 -27 -114.5t-58.5 -78t-80 -44.5t-90.5 -14t-91 14.5t-81 45t-60 77.5t-28 112l100 17 q8 -42 25.5 -71.5t42.5 -48.5t55 -27.5t62 -8.5q30 0 59 8.5t53 26.5t41 46.5t22 67.5z" />
<glyph unicode="&#x1eaf;" horiz-adv-x="811" d="M107 671q52 21 102.5 37t95 26.5t81 16t60.5 5.5q72 0 121 -16.5t79 -52.5t43 -91.5t12 -133.5l-5 -326q-1 -31 4 -58t11 -53q1 -1 1 -8q0 -15 -20 -18q-13 -3 -29.5 -5.5t-33.5 -4t-34 -2t-30 -0.5q-11 0 -16.5 6t-8.5 18l-13 48q-38 -17 -78 -31.5t-76.5 -25 t-66.5 -16.5t-49 -6q-53 0 -92 19.5t-64 49t-37 65t-12 67.5q0 57 20.5 96.5t55.5 65.5q31 23 72.5 38t91.5 23.5t108 12.5t122 6l1 34q1 46 -5.5 82.5t-23.5 61.5t-46 38t-73 13q-54 0 -112.5 -12t-133.5 -36zM521 355q-47 -3 -88 -5.5t-75 -7.5t-60 -15.5t-42 -29.5 q-12 -14 -20 -35t-8 -46q0 -21 6.5 -43t23 -40.5t44.5 -30.5t71 -12q6 0 19.5 2t33 6.5t43.5 12.5t49 20zM388 1145l77 318q6 24 31 28q16 3 35.5 5t38 3t33.5 1.5t23 0.5q17 0 17 -14q0 -5 -4 -12l-190 -338h-54zM670 1158q-4 -70 -27.5 -120t-60 -82t-82 -47t-93.5 -15 q-47 0 -93.5 15t-84 47t-62 81.5t-28.5 117.5l103 19q9 -44 27 -75.5t43 -51.5t55.5 -29t64.5 -9q31 0 61 9t54.5 28.5t42 49t23.5 71.5z" />
<glyph unicode="&#x1eb0;" horiz-adv-x="1170" d="M296 419l-154 -415q-4 -11 -18 -13q-18 -2 -41 -3t-52 -1q-16 0 -16 10q0 3 1 5l458 1098l-21 58q-2 8 -2 11q0 15 19 18q16 3 37.5 5.5t41.5 4.5t37 3t25 1q20 0 29 -23l446 -1148q3 -8 3 -11q0 -17 -20 -20q-18 -3 -40.5 -5.5t-44 -4t-39.5 -2t-26 -0.5q-17 0 -23 15 l-163 424zM328 504h375l-190 496zM641 1516h-54l-159 247q-4 7 -4 11q0 12 17 15q24 6 55 8t49 2q15 0 21.5 -8t9.5 -19l72 -248zM829 1528q-4 -67 -27 -114.5t-58.5 -78t-80 -44.5t-90.5 -14t-91 14.5t-81 45t-60 77.5t-28 112l100 17q8 -42 25.5 -71.5t42.5 -48.5 t55 -27.5t62 -8.5q30 0 59 8.5t53 26.5t41 46.5t22 67.5z" />
<glyph unicode="&#x1eb1;" horiz-adv-x="811" d="M107 671q52 21 102.5 37t95 26.5t81 16t60.5 5.5q72 0 121 -16.5t79 -52.5t43 -91.5t12 -133.5l-5 -326q-1 -31 4 -58t11 -53q1 -1 1 -8q0 -15 -20 -18q-13 -3 -29.5 -5.5t-33.5 -4t-34 -2t-30 -0.5q-11 0 -16.5 6t-8.5 18l-13 48q-38 -17 -78 -31.5t-76.5 -25 t-66.5 -16.5t-49 -6q-53 0 -92 19.5t-64 49t-37 65t-12 67.5q0 57 20.5 96.5t55.5 65.5q31 23 72.5 38t91.5 23.5t108 12.5t122 6l1 34q1 46 -5.5 82.5t-23.5 61.5t-46 38t-73 13q-54 0 -112.5 -12t-133.5 -36zM521 355q-47 -3 -88 -5.5t-75 -7.5t-60 -15.5t-42 -29.5 q-12 -14 -20 -35t-8 -46q0 -21 6.5 -43t23 -40.5t44.5 -30.5t71 -12q6 0 19.5 2t33 6.5t43.5 12.5t49 20zM475 1127h-54l-183 327q-4 7 -4 12q0 11 16 14q12 3 29 5t34.5 3.5t32.5 2t23 0.5q15 0 22.5 -8t10.5 -19l80 -329zM670 1158q-4 -70 -27.5 -120t-60 -82t-82 -47 t-93.5 -15q-47 0 -93.5 15t-84 47t-62 81.5t-28.5 117.5l103 19q9 -44 27 -75.5t43 -51.5t55.5 -29t64.5 -9q31 0 61 9t54.5 28.5t42 49t23.5 71.5z" />
<glyph unicode="&#x1eb2;" horiz-adv-x="1170" d="M296 419l-154 -415q-4 -11 -18 -13q-18 -2 -41 -3t-52 -1q-16 0 -16 10q0 3 1 5l458 1098l-21 58q-2 8 -2 11q0 15 19 18q16 3 37.5 5.5t41.5 4.5t37 3t25 1q20 0 29 -23l446 -1148q3 -8 3 -11q0 -17 -20 -20q-18 -3 -40.5 -5.5t-44 -4t-39.5 -2t-26 -0.5q-17 0 -23 15 l-163 424zM328 504h375l-190 496zM509 1777q-31 50 -31 73q0 19 10.5 32.5t27 22t35 11.5t36.5 3q34 0 67.5 -9t59.5 -27t42.5 -45t16.5 -62q0 -23 -7.5 -41t-19.5 -33t-27 -27.5t-31 -23.5q-14 -9 -25.5 -17t-19 -15.5t-11.5 -15t-4 -17.5q0 -9 4.5 -20.5t26.5 -42.5 q-28 -19 -42 -24.5t-29 -5.5q-19 0 -34 7t-24.5 17.5t-14 23.5t-4.5 27q0 22 9.5 41t23.5 35t31 28.5t34 24.5q14 10 27.5 20t23 19t14 17t4.5 18q0 11 -5 18.5t-13.5 12t-21.5 7t-28 2.5q-47 0 -101 -34zM829 1528q-4 -67 -27 -114.5t-58.5 -78t-80 -44.5t-90.5 -14 t-91 14.5t-81 45t-60 77.5t-28 112l100 17q8 -42 25.5 -71.5t42.5 -48.5t55 -27.5t62 -8.5q30 0 59 8.5t53 26.5t41 46.5t22 67.5z" />
<glyph unicode="&#x1eb3;" horiz-adv-x="811" d="M107 671q52 21 102.5 37t95 26.5t81 16t60.5 5.5q72 0 121 -16.5t79 -52.5t43 -91.5t12 -133.5l-5 -326q-1 -31 4 -58t11 -53q1 -1 1 -8q0 -15 -20 -18q-13 -3 -29.5 -5.5t-33.5 -4t-34 -2t-30 -0.5q-11 0 -16.5 6t-8.5 18l-13 48q-38 -17 -78 -31.5t-76.5 -25 t-66.5 -16.5t-49 -6q-53 0 -92 19.5t-64 49t-37 65t-12 67.5q0 57 20.5 96.5t55.5 65.5q31 23 72.5 38t91.5 23.5t108 12.5t122 6l1 34q1 46 -5.5 82.5t-23.5 61.5t-46 38t-73 13q-54 0 -112.5 -12t-133.5 -36zM521 355q-47 -3 -88 -5.5t-75 -7.5t-60 -15.5t-42 -29.5 q-12 -14 -20 -35t-8 -46q0 -21 6.5 -43t23 -40.5t44.5 -30.5t71 -12q6 0 19.5 2t33 6.5t43.5 12.5t49 20zM549 1364q-31 50 -31 73q0 19 10.5 32.5t27 22t35 11.5t36.5 3q34 0 67.5 -9t59.5 -27t42.5 -45t16.5 -62q0 -23 -7.5 -41t-19.5 -33t-27 -27.5t-31 -23.5 q-14 -9 -25.5 -17t-19 -15.5t-11.5 -15t-4 -17.5q0 -9 4.5 -20.5t26.5 -42.5q-28 -19 -42 -24.5t-29 -5.5q-19 0 -34 7t-24.5 17.5t-14 23.5t-4.5 27q0 22 9.5 41t23.5 35t31 28.5t34 24.5q14 10 27.5 20t23 19t14 17t4.5 18q0 11 -5 18.5t-13.5 12t-21.5 7t-28 2.5 q-47 0 -101 -34zM652 826h-61l-184 224h-8l-184 -224h-57l-7 8l170 317q5 11 12.5 18.5t20.5 9.5q33 5 58.5 8t38.5 3q15 0 22.5 -8t12.5 -19l173 -329z" />
<glyph unicode="&#x1eb4;" horiz-adv-x="1170" d="M296 419l-154 -415q-4 -11 -18 -13q-18 -2 -41 -3t-52 -1q-16 0 -16 10q0 3 1 5l458 1098l-21 58q-2 8 -2 11q0 15 19 18q16 3 37.5 5.5t41.5 4.5t37 3t25 1q20 0 29 -23l446 -1148q3 -8 3 -11q0 -17 -20 -20q-18 -3 -40.5 -5.5t-44 -4t-39.5 -2t-26 -0.5q-17 0 -23 15 l-163 424zM328 504h375l-190 496zM958 1773q-54 -99 -103.5 -143t-92.5 -44q-25 0 -55.5 15.5t-61.5 33.5q-28 16 -52.5 29t-43.5 13q-24 0 -54.5 -26.5t-62.5 -68.5l-45 36q60 102 108 142.5t87 40.5q30 0 61.5 -15.5t61.5 -33.5q27 -17 51 -29.5t43 -12.5q29 0 58.5 27 t56.5 62zM829 1528q-4 -67 -27 -114.5t-58.5 -78t-80 -44.5t-90.5 -14t-91 14.5t-81 45t-60 77.5t-28 112l100 17q8 -42 25.5 -71.5t42.5 -48.5t55 -27.5t62 -8.5q30 0 59 8.5t53 26.5t41 46.5t22 67.5z" />
<glyph unicode="&#x1eb5;" horiz-adv-x="811" d="M107 671q52 21 102.5 37t95 26.5t81 16t60.5 5.5q72 0 121 -16.5t79 -52.5t43 -91.5t12 -133.5l-5 -326q-1 -31 4 -58t11 -53q1 -1 1 -8q0 -15 -20 -18q-13 -3 -29.5 -5.5t-33.5 -4t-34 -2t-30 -0.5q-11 0 -16.5 6t-8.5 18l-13 48q-38 -17 -78 -31.5t-76.5 -25 t-66.5 -16.5t-49 -6q-53 0 -92 19.5t-64 49t-37 65t-12 67.5q0 57 20.5 96.5t55.5 65.5q31 23 72.5 38t91.5 23.5t108 12.5t122 6l1 34q1 46 -5.5 82.5t-23.5 61.5t-46 38t-73 13q-54 0 -112.5 -12t-133.5 -36zM521 355q-47 -3 -88 -5.5t-75 -7.5t-60 -15.5t-42 -29.5 q-12 -14 -20 -35t-8 -46q0 -21 6.5 -43t23 -40.5t44.5 -30.5t71 -12q6 0 19.5 2t33 6.5t43.5 12.5t49 20zM760 1375q-54 -97 -105 -142t-94 -45q-24 0 -54.5 15t-60.5 32q-29 17 -54.5 30t-45.5 13q-24 0 -55 -26t-63 -68l-48 36q31 51 58.5 85.5t52.5 56.5t47.5 31.5 t42.5 9.5q32 0 65 -16.5t64 -34.5q26 -15 49 -27t41 -12q29 0 58.5 26.5t57.5 61.5zM652 826h-61l-184 224h-8l-184 -224h-57l-7 8l170 317q5 11 12.5 18.5t20.5 9.5q33 5 58.5 8t38.5 3q15 0 22.5 -8t12.5 -19l173 -329z" />
<glyph unicode="&#x1eb6;" horiz-adv-x="1170" d="M296 419l-154 -415q-4 -11 -18 -13q-18 -2 -41 -3t-52 -1q-16 0 -16 10q0 3 1 5l458 1098l-21 58q-2 8 -2 11q0 15 19 18q16 3 37.5 5.5t41.5 4.5t37 3t25 1q20 0 29 -23l446 -1148q3 -8 3 -11q0 -17 -20 -20q-18 -3 -40.5 -5.5t-44 -4t-39.5 -2t-26 -0.5q-17 0 -23 15 l-163 424zM328 504h375l-190 496zM829 1528q-4 -67 -27 -114.5t-58.5 -78t-80 -44.5t-90.5 -14t-91 14.5t-81 45t-60 77.5t-28 112l100 17q8 -42 25.5 -71.5t42.5 -48.5t55 -27.5t62 -8.5q30 0 59 8.5t53 26.5t41 46.5t22 67.5zM614 -169q0 -51 -28 -75t-79 -24 q-43 0 -66.5 27t-23.5 72q0 51 29 74t80 23q43 0 65.5 -26t22.5 -71z" />
<glyph unicode="&#x1eb7;" horiz-adv-x="811" d="M107 671q52 21 102.5 37t95 26.5t81 16t60.5 5.5q72 0 121 -16.5t79 -52.5t43 -91.5t12 -133.5l-5 -326q-1 -31 4 -58t11 -53q1 -1 1 -8q0 -15 -20 -18q-13 -3 -29.5 -5.5t-33.5 -4t-34 -2t-30 -0.5q-11 0 -16.5 6t-8.5 18l-13 48q-38 -17 -78 -31.5t-76.5 -25 t-66.5 -16.5t-49 -6q-53 0 -92 19.5t-64 49t-37 65t-12 67.5q0 57 20.5 96.5t55.5 65.5q31 23 72.5 38t91.5 23.5t108 12.5t122 6l1 34q1 46 -5.5 82.5t-23.5 61.5t-46 38t-73 13q-54 0 -112.5 -12t-133.5 -36zM521 355q-47 -3 -88 -5.5t-75 -7.5t-60 -15.5t-42 -29.5 q-12 -14 -20 -35t-8 -46q0 -21 6.5 -43t23 -40.5t44.5 -30.5t71 -12q6 0 19.5 2t33 6.5t43.5 12.5t49 20zM473 -169q0 -51 -28 -75t-79 -24q-43 0 -66.5 27t-23.5 72q0 51 29 74t80 23q43 0 65.5 -26t22.5 -71zM652 826h-61l-184 224h-8l-184 -224h-57l-7 8l170 317 q5 11 12.5 18.5t20.5 9.5q33 5 58.5 8t38.5 3q15 0 22.5 -8t12.5 -19l173 -329z" />
<glyph unicode="&#x1eb8;" horiz-adv-x="975" d="M346 155q0 -24 1.5 -37.5t8 -21t21.5 -9.5t42 -2h129q80 0 130 3.5t85 23t61.5 62t59.5 120.5l50 -11q0 -7 -4.5 -36t-11.5 -67.5t-16 -78.5t-18 -70q-13 -34 -49 -34q-37 0 -88 0.5t-113.5 1t-134 1t-149.5 0.5h-166q-14 0 -19 8.5t-5 16.5v961q0 51 -23 67.5t-57 16.5 q-21 0 -43 -3l-6 55q21 4 61 10t83.5 12t84 10t63.5 4h364q34 0 71 0.5t82 1.5q16 0 18 -15q1 -14 2.5 -37t2.5 -50t2.5 -55t2.5 -52t1.5 -41t0.5 -21l-50 -5q-17 71 -34.5 110t-44.5 57t-68.5 21.5t-107.5 3.5h-176q-17 0 -25.5 -1t-12.5 -5t-4.5 -11.5t-0.5 -20.5v-405 q82 4 150.5 7.5t119 6t81.5 4t38 1.5q28 0 28 -30q0 -19 -2 -39t-5 -43l-410 14v-399zM614 -169q0 -51 -28 -75t-79 -24q-43 0 -66.5 27t-23.5 72q0 51 29 74t80 23q43 0 65.5 -26t22.5 -71z" />
<glyph unicode="&#x1eb9;" horiz-adv-x="801" d="M766 85q-48 -23 -101 -42.5t-103.5 -33.5t-94 -21.5t-72.5 -7.5q-81 0 -143.5 30.5t-105 81t-64.5 116.5t-22 137q0 92 34 167.5t92.5 129t136.5 83t165 29.5q57 0 101 -17.5t74 -48t46 -73.5t16 -94q0 -44 -17 -110l-470 -25q4 -63 25 -115t59.5 -90t94 -59t127.5 -21 q48 0 102.5 11.5t97.5 28.5zM544 469q3 14 4 27t1 27q0 28 -8.5 53t-24.5 43.5t-40 29t-54 10.5q-48 0 -82.5 -17.5t-57 -46.5t-33.5 -67.5t-12 -80.5zM473 -169q0 -51 -28 -75t-79 -24q-43 0 -66.5 27t-23.5 72q0 51 29 74t80 23q43 0 65.5 -26t22.5 -71z" />
<glyph unicode="&#x1eba;" horiz-adv-x="975" d="M346 155q0 -24 1.5 -37.5t8 -21t21.5 -9.5t42 -2h129q80 0 130 3.5t85 23t61.5 62t59.5 120.5l50 -11q0 -7 -4.5 -36t-11.5 -67.5t-16 -78.5t-18 -70q-13 -34 -49 -34q-37 0 -88 0.5t-113.5 1t-134 1t-149.5 0.5h-166q-14 0 -19 8.5t-5 16.5v961q0 51 -23 67.5t-57 16.5 q-21 0 -43 -3l-6 55q21 4 61 10t83.5 12t84 10t63.5 4h364q34 0 71 0.5t82 1.5q16 0 18 -15q1 -14 2.5 -37t2.5 -50t2.5 -55t2.5 -52t1.5 -41t0.5 -21l-50 -5q-17 71 -34.5 110t-44.5 57t-68.5 21.5t-107.5 3.5h-176q-17 0 -25.5 -1t-12.5 -5t-4.5 -11.5t-0.5 -20.5v-405 q82 4 150.5 7.5t119 6t81.5 4t38 1.5q28 0 28 -30q0 -19 -2 -39t-5 -43l-410 14v-399zM418 1545q-31 50 -31 73q0 19 10.5 32.5t27 22t35 11.5t36.5 3q34 0 67.5 -9t59.5 -27t42.5 -45t16.5 -62q0 -23 -7.5 -41t-19.5 -33t-27 -27.5t-31 -23.5q-14 -9 -25.5 -17t-19 -15.5 t-11.5 -15t-4 -17.5q0 -9 4.5 -20.5t26.5 -42.5q-28 -19 -42 -24.5t-29 -5.5q-19 0 -34 7t-24.5 17.5t-14 23.5t-4.5 27q0 22 9.5 41t23.5 35t31 28.5t34 24.5q14 10 27.5 20t23 19t14 17t4.5 18q0 11 -5 18.5t-13.5 12t-21.5 7t-28 2.5q-47 0 -101 -34z" />
<glyph unicode="&#x1ebb;" horiz-adv-x="801" d="M766 85q-48 -23 -101 -42.5t-103.5 -33.5t-94 -21.5t-72.5 -7.5q-81 0 -143.5 30.5t-105 81t-64.5 116.5t-22 137q0 92 34 167.5t92.5 129t136.5 83t165 29.5q57 0 101 -17.5t74 -48t46 -73.5t16 -94q0 -44 -17 -110l-470 -25q4 -63 25 -115t59.5 -90t94 -59t127.5 -21 q48 0 102.5 11.5t97.5 28.5zM544 469q3 14 4 27t1 27q0 28 -8.5 53t-24.5 43.5t-40 29t-54 10.5q-48 0 -82.5 -17.5t-57 -46.5t-33.5 -67.5t-12 -80.5zM338 1093q-31 50 -31 73q0 19 10.5 32.5t27 22t35 11.5t36.5 3q34 0 67.5 -9t59.5 -27t42.5 -45t16.5 -62 q0 -23 -7.5 -41t-19.5 -33t-27 -27.5t-31 -23.5q-14 -9 -25.5 -17t-19 -15.5t-11.5 -15t-4 -17.5q0 -9 4.5 -20.5t26.5 -42.5q-28 -19 -42 -24.5t-29 -5.5q-19 0 -34 7t-24.5 17.5t-14 23.5t-4.5 27q0 22 9.5 41t23.5 35t31 28.5t34 24.5q14 10 27.5 20t23 19t14 17t4.5 18 q0 11 -5 18.5t-13.5 12t-21.5 7t-28 2.5q-47 0 -101 -34z" />
<glyph unicode="&#x1ebc;" horiz-adv-x="975" d="M346 155q0 -24 1.5 -37.5t8 -21t21.5 -9.5t42 -2h129q80 0 130 3.5t85 23t61.5 62t59.5 120.5l50 -11q0 -7 -4.5 -36t-11.5 -67.5t-16 -78.5t-18 -70q-13 -34 -49 -34q-37 0 -88 0.5t-113.5 1t-134 1t-149.5 0.5h-166q-14 0 -19 8.5t-5 16.5v961q0 51 -23 67.5t-57 16.5 q-21 0 -43 -3l-6 55q21 4 61 10t83.5 12t84 10t63.5 4h364q34 0 71 0.5t82 1.5q16 0 18 -15q1 -14 2.5 -37t2.5 -50t2.5 -55t2.5 -52t1.5 -41t0.5 -21l-50 -5q-17 71 -34.5 110t-44.5 57t-68.5 21.5t-107.5 3.5h-176q-17 0 -25.5 -1t-12.5 -5t-4.5 -11.5t-0.5 -20.5v-405 q82 4 150.5 7.5t119 6t81.5 4t38 1.5q28 0 28 -30q0 -19 -2 -39t-5 -43l-410 14v-399zM818 1462q-54 -99 -103.5 -143t-92.5 -44q-25 0 -55.5 15.5t-61.5 33.5q-28 16 -52.5 29t-43.5 13q-24 0 -54.5 -26.5t-62.5 -68.5l-45 36q60 102 108 142.5t87 40.5q30 0 61.5 -15.5 t61.5 -33.5q27 -17 51 -29.5t43 -12.5q29 0 58.5 27t56.5 62z" />
<glyph unicode="&#x1ebd;" horiz-adv-x="801" d="M766 85q-48 -23 -101 -42.5t-103.5 -33.5t-94 -21.5t-72.5 -7.5q-81 0 -143.5 30.5t-105 81t-64.5 116.5t-22 137q0 92 34 167.5t92.5 129t136.5 83t165 29.5q57 0 101 -17.5t74 -48t46 -73.5t16 -94q0 -44 -17 -110l-470 -25q4 -63 25 -115t59.5 -90t94 -59t127.5 -21 q48 0 102.5 11.5t97.5 28.5zM544 469q3 14 4 27t1 27q0 28 -8.5 53t-24.5 43.5t-40 29t-54 10.5q-48 0 -82.5 -17.5t-57 -46.5t-33.5 -67.5t-12 -80.5zM769 1104q-54 -97 -105 -142t-94 -45q-24 0 -54.5 15t-60.5 32q-29 17 -54.5 30t-45.5 13q-24 0 -55 -26t-63 -68l-48 36 q31 51 58.5 85.5t52.5 56.5t47.5 31.5t42.5 9.5q32 0 65 -16.5t64 -34.5q26 -15 49 -27t41 -12q29 0 58.5 26.5t57.5 61.5z" />
<glyph unicode="&#x1ebe;" horiz-adv-x="975" d="M346 155q0 -24 1.5 -37.5t8 -21t21.5 -9.5t42 -2h129q80 0 130 3.5t85 23t61.5 62t59.5 120.5l50 -11q0 -7 -4.5 -36t-11.5 -67.5t-16 -78.5t-18 -70q-13 -34 -49 -34q-37 0 -88 0.5t-113.5 1t-134 1t-149.5 0.5h-166q-14 0 -19 8.5t-5 16.5v961q0 51 -23 67.5t-57 16.5 q-21 0 -43 -3l-6 55q21 4 61 10t83.5 12t84 10t63.5 4h364q34 0 71 0.5t82 1.5q16 0 18 -15q1 -14 2.5 -37t2.5 -50t2.5 -55t2.5 -52t1.5 -41t0.5 -21l-50 -5q-17 71 -34.5 110t-44.5 57t-68.5 21.5t-107.5 3.5h-176q-17 0 -25.5 -1t-12.5 -5t-4.5 -11.5t-0.5 -20.5v-405 q82 4 150.5 7.5t119 6t81.5 4t38 1.5q28 0 28 -30q0 -19 -2 -39t-5 -43l-410 14v-399zM644 1474l72 248q3 11 9.5 19t21.5 8q9 0 21.5 -0.5t26.5 -1.5t29 -3t27 -5q17 -3 17 -15q0 -4 -4 -11l-159 -247h-54zM727 1256h-61l-154 164h-8l-154 -164h-57l-7 8l146 240 q6 11 14 18.5t23 9.5q32 5 52.5 6t29.5 1q15 0 22 -7t14 -19l147 -249z" />
<glyph unicode="&#x1ebf;" horiz-adv-x="801" d="M766 85q-48 -23 -101 -42.5t-103.5 -33.5t-94 -21.5t-72.5 -7.5q-81 0 -143.5 30.5t-105 81t-64.5 116.5t-22 137q0 92 34 167.5t92.5 129t136.5 83t165 29.5q57 0 101 -17.5t74 -48t46 -73.5t16 -94q0 -44 -17 -110l-470 -25q4 -63 25 -115t59.5 -90t94 -59t127.5 -21 q48 0 102.5 11.5t97.5 28.5zM544 469q3 14 4 27t1 27q0 28 -8.5 53t-24.5 43.5t-40 29t-54 10.5q-48 0 -82.5 -17.5t-57 -46.5t-33.5 -67.5t-12 -80.5zM569 1115l77 318q6 24 31 28q16 3 35.5 5t38 3t33.5 1.5t23 0.5q17 0 17 -14q0 -5 -4 -12l-190 -338h-54zM672 826h-61 l-184 224h-8l-184 -224h-57l-7 8l170 317q5 11 12.5 18.5t20.5 9.5q33 5 58.5 8t38.5 3q15 0 22.5 -8t12.5 -19l173 -329z" />
<glyph unicode="&#x1ec0;" horiz-adv-x="975" d="M346 155q0 -24 1.5 -37.5t8 -21t21.5 -9.5t42 -2h129q80 0 130 3.5t85 23t61.5 62t59.5 120.5l50 -11q0 -7 -4.5 -36t-11.5 -67.5t-16 -78.5t-18 -70q-13 -34 -49 -34q-37 0 -88 0.5t-113.5 1t-134 1t-149.5 0.5h-166q-14 0 -19 8.5t-5 16.5v961q0 51 -23 67.5t-57 16.5 q-21 0 -43 -3l-6 55q21 4 61 10t83.5 12t84 10t63.5 4h364q34 0 71 0.5t82 1.5q16 0 18 -15q1 -14 2.5 -37t2.5 -50t2.5 -55t2.5 -52t1.5 -41t0.5 -21l-50 -5q-17 71 -34.5 110t-44.5 57t-68.5 21.5t-107.5 3.5h-176q-17 0 -25.5 -1t-12.5 -5t-4.5 -11.5t-0.5 -20.5v-405 q82 4 150.5 7.5t119 6t81.5 4t38 1.5q28 0 28 -30q0 -19 -2 -39t-5 -43l-410 14v-399zM730 1466h-54l-159 247q-4 7 -4 11q0 12 17 15q24 6 55 8t49 2q15 0 21.5 -8t9.5 -19l72 -248zM727 1256h-61l-154 164h-8l-154 -164h-57l-7 8l146 240q6 11 14 18.5t23 9.5q32 5 52.5 6 t29.5 1q15 0 22 -7t14 -19l147 -249z" />
<glyph unicode="&#x1ec1;" horiz-adv-x="801" d="M766 85q-48 -23 -101 -42.5t-103.5 -33.5t-94 -21.5t-72.5 -7.5q-81 0 -143.5 30.5t-105 81t-64.5 116.5t-22 137q0 92 34 167.5t92.5 129t136.5 83t165 29.5q57 0 101 -17.5t74 -48t46 -73.5t16 -94q0 -44 -17 -110l-470 -25q4 -63 25 -115t59.5 -90t94 -59t127.5 -21 q48 0 102.5 11.5t97.5 28.5zM544 469q3 14 4 27t1 27q0 28 -8.5 53t-24.5 43.5t-40 29t-54 10.5q-48 0 -82.5 -17.5t-57 -46.5t-33.5 -67.5t-12 -80.5zM666 1087h-54l-183 327q-4 7 -4 12q0 11 16 14q12 3 29 5t34.5 3.5t32.5 2t23 0.5q15 0 22.5 -8t10.5 -19l80 -329z M672 826h-61l-184 224h-8l-184 -224h-57l-7 8l170 317q5 11 12.5 18.5t20.5 9.5q33 5 58.5 8t38.5 3q15 0 22.5 -8t12.5 -19l173 -329z" />
<glyph unicode="&#x1ec2;" horiz-adv-x="975" d="M346 155q0 -24 1.5 -37.5t8 -21t21.5 -9.5t42 -2h129q80 0 130 3.5t85 23t61.5 62t59.5 120.5l50 -11q0 -7 -4.5 -36t-11.5 -67.5t-16 -78.5t-18 -70q-13 -34 -49 -34q-37 0 -88 0.5t-113.5 1t-134 1t-149.5 0.5h-166q-14 0 -19 8.5t-5 16.5v961q0 51 -23 67.5t-57 16.5 q-21 0 -43 -3l-6 55q21 4 61 10t83.5 12t84 10t63.5 4h364q34 0 71 0.5t82 1.5q16 0 18 -15q1 -14 2.5 -37t2.5 -50t2.5 -55t2.5 -52t1.5 -41t0.5 -21l-50 -5q-17 71 -34.5 110t-44.5 57t-68.5 21.5t-107.5 3.5h-176q-17 0 -25.5 -1t-12.5 -5t-4.5 -11.5t-0.5 -20.5v-405 q82 4 150.5 7.5t119 6t81.5 4t38 1.5q28 0 28 -30q0 -19 -2 -39t-5 -43l-410 14v-399zM639 1736q-31 50 -31 73q0 19 10.5 32.5t27 22t35 11.5t36.5 3q34 0 67.5 -9t59.5 -27t42.5 -45t16.5 -62q0 -23 -7.5 -41t-19.5 -33t-27 -27.5t-31 -23.5q-14 -9 -25.5 -17t-19 -15.5 t-11.5 -15t-4 -17.5q0 -9 4.5 -20.5t26.5 -42.5q-28 -19 -42 -24.5t-29 -5.5q-19 0 -34 7t-24.5 17.5t-14 23.5t-4.5 27q0 22 9.5 41t23.5 35t31 28.5t34 24.5q14 10 27.5 20t23 19t14 17t4.5 18q0 11 -5 18.5t-13.5 12t-21.5 7t-28 2.5q-47 0 -101 -34zM727 1256h-61 l-154 164h-8l-154 -164h-57l-7 8l146 240q6 11 14 18.5t23 9.5q32 5 52.5 6t29.5 1q15 0 22 -7t14 -19l147 -249z" />
<glyph unicode="&#x1ec3;" horiz-adv-x="801" d="M766 85q-48 -23 -101 -42.5t-103.5 -33.5t-94 -21.5t-72.5 -7.5q-81 0 -143.5 30.5t-105 81t-64.5 116.5t-22 137q0 92 34 167.5t92.5 129t136.5 83t165 29.5q57 0 101 -17.5t74 -48t46 -73.5t16 -94q0 -44 -17 -110l-470 -25q4 -63 25 -115t59.5 -90t94 -59t127.5 -21 q48 0 102.5 11.5t97.5 28.5zM544 469q3 14 4 27t1 27q0 28 -8.5 53t-24.5 43.5t-40 29t-54 10.5q-48 0 -82.5 -17.5t-57 -46.5t-33.5 -67.5t-12 -80.5zM569 1364q-31 50 -31 73q0 19 10.5 32.5t27 22t35 11.5t36.5 3q34 0 67.5 -9t59.5 -27t42.5 -45t16.5 -62 q0 -23 -7.5 -41t-19.5 -33t-27 -27.5t-31 -23.5q-14 -9 -25.5 -17t-19 -15.5t-11.5 -15t-4 -17.5q0 -9 4.5 -20.5t26.5 -42.5q-28 -19 -42 -24.5t-29 -5.5q-19 0 -34 7t-24.5 17.5t-14 23.5t-4.5 27q0 22 9.5 41t23.5 35t31 28.5t34 24.5q14 10 27.5 20t23 19t14 17t4.5 18 q0 11 -5 18.5t-13.5 12t-21.5 7t-28 2.5q-47 0 -101 -34zM672 826h-61l-184 224h-8l-184 -224h-57l-7 8l170 317q5 11 12.5 18.5t20.5 9.5q33 5 58.5 8t38.5 3q15 0 22.5 -8t12.5 -19l173 -329z" />
<glyph unicode="&#x1ec4;" horiz-adv-x="975" d="M346 155q0 -24 1.5 -37.5t8 -21t21.5 -9.5t42 -2h129q80 0 130 3.5t85 23t61.5 62t59.5 120.5l50 -11q0 -7 -4.5 -36t-11.5 -67.5t-16 -78.5t-18 -70q-13 -34 -49 -34q-37 0 -88 0.5t-113.5 1t-134 1t-149.5 0.5h-166q-14 0 -19 8.5t-5 16.5v961q0 51 -23 67.5t-57 16.5 q-21 0 -43 -3l-6 55q21 4 61 10t83.5 12t84 10t63.5 4h364q34 0 71 0.5t82 1.5q16 0 18 -15q1 -14 2.5 -37t2.5 -50t2.5 -55t2.5 -52t1.5 -41t0.5 -21l-50 -5q-17 71 -34.5 110t-44.5 57t-68.5 21.5t-107.5 3.5h-176q-17 0 -25.5 -1t-12.5 -5t-4.5 -11.5t-0.5 -20.5v-405 q82 4 150.5 7.5t119 6t81.5 4t38 1.5q28 0 28 -30q0 -19 -2 -39t-5 -43l-410 14v-399zM889 1723q-54 -99 -103.5 -143t-92.5 -44q-25 0 -55.5 15.5t-61.5 33.5q-28 16 -52.5 29t-43.5 13q-24 0 -54.5 -26.5t-62.5 -68.5l-45 36q60 102 108 142.5t87 40.5q30 0 61.5 -15.5 t61.5 -33.5q27 -17 51 -29.5t43 -12.5q29 0 58.5 27t56.5 62zM727 1256h-61l-154 164h-8l-154 -164h-57l-7 8l146 240q6 11 14 18.5t23 9.5q32 5 52.5 6t29.5 1q15 0 22 -7t14 -19l147 -249z" />
<glyph unicode="&#x1ec5;" horiz-adv-x="801" d="M766 85q-48 -23 -101 -42.5t-103.5 -33.5t-94 -21.5t-72.5 -7.5q-81 0 -143.5 30.5t-105 81t-64.5 116.5t-22 137q0 92 34 167.5t92.5 129t136.5 83t165 29.5q57 0 101 -17.5t74 -48t46 -73.5t16 -94q0 -44 -17 -110l-470 -25q4 -63 25 -115t59.5 -90t94 -59t127.5 -21 q48 0 102.5 11.5t97.5 28.5zM544 469q3 14 4 27t1 27q0 28 -8.5 53t-24.5 43.5t-40 29t-54 10.5q-48 0 -82.5 -17.5t-57 -46.5t-33.5 -67.5t-12 -80.5zM809 1395q-54 -97 -105 -142t-94 -45q-24 0 -54.5 15t-60.5 32q-29 17 -54.5 30t-45.5 13q-24 0 -55 -26t-63 -68l-48 36 q31 51 58.5 85.5t52.5 56.5t47.5 31.5t42.5 9.5q32 0 65 -16.5t64 -34.5q26 -15 49 -27t41 -12q29 0 58.5 26.5t57.5 61.5zM672 826h-61l-184 224h-8l-184 -224h-57l-7 8l170 317q5 11 12.5 18.5t20.5 9.5q33 5 58.5 8t38.5 3q15 0 22.5 -8t12.5 -19l173 -329z" />
<glyph unicode="&#x1ec6;" horiz-adv-x="975" d="M346 155q0 -24 1.5 -37.5t8 -21t21.5 -9.5t42 -2h129q80 0 130 3.5t85 23t61.5 62t59.5 120.5l50 -11q0 -7 -4.5 -36t-11.5 -67.5t-16 -78.5t-18 -70q-13 -34 -49 -34q-37 0 -88 0.5t-113.5 1t-134 1t-149.5 0.5h-166q-14 0 -19 8.5t-5 16.5v961q0 51 -23 67.5t-57 16.5 q-21 0 -43 -3l-6 55q21 4 61 10t83.5 12t84 10t63.5 4h364q34 0 71 0.5t82 1.5q16 0 18 -15q1 -14 2.5 -37t2.5 -50t2.5 -55t2.5 -52t1.5 -41t0.5 -21l-50 -5q-17 71 -34.5 110t-44.5 57t-68.5 21.5t-107.5 3.5h-176q-17 0 -25.5 -1t-12.5 -5t-4.5 -11.5t-0.5 -20.5v-405 q82 4 150.5 7.5t119 6t81.5 4t38 1.5q28 0 28 -30q0 -19 -2 -39t-5 -43l-410 14v-399zM614 -169q0 -51 -28 -75t-79 -24q-43 0 -66.5 27t-23.5 72q0 51 29 74t80 23q43 0 65.5 -26t22.5 -71z" />
<glyph unicode="&#x1ec7;" horiz-adv-x="801" d="M766 85q-48 -23 -101 -42.5t-103.5 -33.5t-94 -21.5t-72.5 -7.5q-81 0 -143.5 30.5t-105 81t-64.5 116.5t-22 137q0 92 34 167.5t92.5 129t136.5 83t165 29.5q57 0 101 -17.5t74 -48t46 -73.5t16 -94q0 -44 -17 -110l-470 -25q4 -63 25 -115t59.5 -90t94 -59t127.5 -21 q48 0 102.5 11.5t97.5 28.5zM544 469q3 14 4 27t1 27q0 28 -8.5 53t-24.5 43.5t-40 29t-54 10.5q-48 0 -82.5 -17.5t-57 -46.5t-33.5 -67.5t-12 -80.5zM473 -169q0 -51 -28 -75t-79 -24q-43 0 -66.5 27t-23.5 72q0 51 29 74t80 23q43 0 65.5 -26t22.5 -71zM672 826h-61 l-184 224h-8l-184 -224h-57l-7 8l170 317q5 11 12.5 18.5t20.5 9.5q33 5 58.5 8t38.5 3q15 0 22.5 -8t12.5 -19l173 -329z" />
<glyph unicode="&#x1ec8;" horiz-adv-x="506" d="M31 1145q54 10 102.5 17t86 11t62.5 6t32 2q32 0 32 -32v-1122q0 -24 -24 -28q-17 -3 -37.5 -5.5t-40 -4t-36 -2t-24.5 -0.5q-24 0 -24 25v990q0 28 -5.5 45.5t-16 27.5t-25 14t-32.5 4q-22 0 -44 -3zM167 1545q-31 50 -31 73q0 19 10.5 32.5t27 22t35 11.5t36.5 3 q34 0 67.5 -9t59.5 -27t42.5 -45t16.5 -62q0 -23 -7.5 -41t-19.5 -33t-27 -27.5t-31 -23.5q-14 -9 -25.5 -17t-19 -15.5t-11.5 -15t-4 -17.5q0 -9 4.5 -20.5t26.5 -42.5q-28 -19 -42 -24.5t-29 -5.5q-19 0 -34 7t-24.5 17.5t-14 23.5t-4.5 27q0 22 9.5 41t23.5 35t31 28.5 t34 24.5q14 10 27.5 20t23 19t14 17t4.5 18q0 11 -5 18.5t-13.5 12t-21.5 7t-28 2.5q-47 0 -101 -34z" />
<glyph unicode="&#x1ec9;" horiz-adv-x="458" d="M32 693q54 15 100 25.5t81.5 17.5t58 10t29.5 3q32 0 32 -36v-686q0 -24 -24 -28q-17 -3 -36.5 -5.5t-37.5 -4t-33 -2t-23 -0.5q-24 0 -24 25v545q0 53 -17 72.5t-53 19.5q-11 0 -21.5 -0.5t-25.5 -3.5zM147 1093q-31 50 -31 73q0 19 10.5 32.5t27 22t35 11.5t36.5 3 q34 0 67.5 -9t59.5 -27t42.5 -45t16.5 -62q0 -23 -7.5 -41t-19.5 -33t-27 -27.5t-31 -23.5q-14 -9 -25.5 -17t-19 -15.5t-11.5 -15t-4 -17.5q0 -9 4.5 -20.5t26.5 -42.5q-28 -19 -42 -24.5t-29 -5.5q-19 0 -34 7t-24.5 17.5t-14 23.5t-4.5 27q0 22 9.5 41t23.5 35t31 28.5 t34 24.5q14 10 27.5 20t23 19t14 17t4.5 18q0 11 -5 18.5t-13.5 12t-21.5 7t-28 2.5q-47 0 -101 -34z" />
<glyph unicode="&#x1eca;" horiz-adv-x="506" d="M31 1145q54 10 102.5 17t86 11t62.5 6t32 2q32 0 32 -32v-1122q0 -24 -24 -28q-17 -3 -37.5 -5.5t-40 -4t-36 -2t-24.5 -0.5q-24 0 -24 25v990q0 28 -5.5 45.5t-16 27.5t-25 14t-32.5 4q-22 0 -44 -3zM343 -169q0 -51 -28 -75t-79 -24q-43 0 -66.5 27t-23.5 72 q0 51 29 74t80 23q43 0 65.5 -26t22.5 -71z" />
<glyph unicode="&#x1ecb;" horiz-adv-x="458" d="M32 693q54 15 100 25.5t81.5 17.5t58 10t29.5 3q32 0 32 -36v-686q0 -24 -24 -28q-17 -3 -36.5 -5.5t-37.5 -4t-33 -2t-23 -0.5q-24 0 -24 25v545q0 53 -17 72.5t-53 19.5q-11 0 -21.5 -0.5t-25.5 -3.5zM339 1060q0 -54 -28.5 -78t-82.5 -24q-45 0 -69 27t-24 75 q0 54 29.5 77.5t83.5 23.5q45 0 68 -26.5t23 -74.5zM352 -169q0 -51 -28 -75t-79 -24q-43 0 -66.5 27t-23.5 72q0 51 29 74t80 23q43 0 65.5 -26t22.5 -71z" />
<glyph unicode="&#x1ecc;" d="M706 1189q129 0 233 -40t177.5 -115.5t113.5 -185.5t40 -249q0 -152 -44.5 -269t-126.5 -196.5t-197.5 -121t-257.5 -41.5q-129 0 -233.5 41.5t-178 118.5t-113 188t-39.5 251q0 151 44.5 267t126.5 194t197.5 118t257.5 40zM656 1105q-98 0 -168 -40t-114.5 -107 t-65.5 -154t-21 -181q0 -105 22.5 -207t71.5 -182t127 -129.5t188 -49.5q98 0 168 41.5t114.5 110t65.5 157t21 182.5q0 105 -22.5 205.5t-71.5 179t-127 126.5t-188 48zM774 -169q0 -51 -28 -75t-79 -24q-43 0 -66.5 27t-23.5 72q0 51 29 74t80 23q43 0 65.5 -26t22.5 -71z " />
<glyph unicode="&#x1ecd;" horiz-adv-x="910" d="M434 -20q-83 0 -150.5 29.5t-116.5 80.5t-75.5 120.5t-26.5 149.5q0 88 30.5 161t84.5 124.5t129 80t165 28.5q83 0 151.5 -28.5t117 -78.5t75.5 -118t27 -147q0 -90 -30 -164.5t-84.5 -127t-130 -81.5t-166.5 -29zM481 68q54 0 89 23.5t55 60.5t27.5 83t7.5 90 q0 54 -11.5 114t-38.5 110.5t-71 83.5t-109 33q-54 0 -89 -23.5t-55 -61t-28 -83t-8 -90.5q0 -55 12 -115t39 -110t71 -82.5t109 -32.5zM554 -169q0 -51 -28 -75t-79 -24q-43 0 -66.5 27t-23.5 72q0 51 29 74t80 23q43 0 65.5 -26t22.5 -71z" />
<glyph unicode="&#x1ece;" d="M706 1189q129 0 233 -40t177.5 -115.5t113.5 -185.5t40 -249q0 -152 -44.5 -269t-126.5 -196.5t-197.5 -121t-257.5 -41.5q-129 0 -233.5 41.5t-178 118.5t-113 188t-39.5 251q0 151 44.5 267t126.5 194t197.5 118t257.5 40zM656 1105q-98 0 -168 -40t-114.5 -107 t-65.5 -154t-21 -181q0 -105 22.5 -207t71.5 -182t127 -129.5t188 -49.5q98 0 168 41.5t114.5 110t65.5 157t21 182.5q0 105 -22.5 205.5t-71.5 179t-127 126.5t-188 48zM599 1545q-31 50 -31 73q0 19 10.5 32.5t27 22t35 11.5t36.5 3q34 0 67.5 -9t59.5 -27t42.5 -45 t16.5 -62q0 -23 -7.5 -41t-19.5 -33t-27 -27.5t-31 -23.5q-14 -9 -25.5 -17t-19 -15.5t-11.5 -15t-4 -17.5q0 -9 4.5 -20.5t26.5 -42.5q-28 -19 -42 -24.5t-29 -5.5q-19 0 -34 7t-24.5 17.5t-14 23.5t-4.5 27q0 22 9.5 41t23.5 35t31 28.5t34 24.5q14 10 27.5 20t23 19 t14 17t4.5 18q0 11 -5 18.5t-13.5 12t-21.5 7t-28 2.5q-47 0 -101 -34z" />
<glyph unicode="&#x1ecf;" horiz-adv-x="910" d="M434 -20q-83 0 -150.5 29.5t-116.5 80.5t-75.5 120.5t-26.5 149.5q0 88 30.5 161t84.5 124.5t129 80t165 28.5q83 0 151.5 -28.5t117 -78.5t75.5 -118t27 -147q0 -90 -30 -164.5t-84.5 -127t-130 -81.5t-166.5 -29zM481 68q54 0 89 23.5t55 60.5t27.5 83t7.5 90 q0 54 -11.5 114t-38.5 110.5t-71 83.5t-109 33q-54 0 -89 -23.5t-55 -61t-28 -83t-8 -90.5q0 -55 12 -115t39 -110t71 -82.5t109 -32.5zM368 1093q-31 50 -31 73q0 19 10.5 32.5t27 22t35 11.5t36.5 3q34 0 67.5 -9t59.5 -27t42.5 -45t16.5 -62q0 -23 -7.5 -41t-19.5 -33 t-27 -27.5t-31 -23.5q-14 -9 -25.5 -17t-19 -15.5t-11.5 -15t-4 -17.5q0 -9 4.5 -20.5t26.5 -42.5q-28 -19 -42 -24.5t-29 -5.5q-19 0 -34 7t-24.5 17.5t-14 23.5t-4.5 27q0 22 9.5 41t23.5 35t31 28.5t34 24.5q14 10 27.5 20t23 19t14 17t4.5 18q0 11 -5 18.5t-13.5 12 t-21.5 7t-28 2.5q-47 0 -101 -34z" />
<glyph unicode="&#x1ed0;" d="M706 1189q129 0 233 -40t177.5 -115.5t113.5 -185.5t40 -249q0 -152 -44.5 -269t-126.5 -196.5t-197.5 -121t-257.5 -41.5q-129 0 -233.5 41.5t-178 118.5t-113 188t-39.5 251q0 151 44.5 267t126.5 194t197.5 118t257.5 40zM656 1105q-98 0 -168 -40t-114.5 -107 t-65.5 -154t-21 -181q0 -105 22.5 -207t71.5 -182t127 -129.5t188 -49.5q98 0 168 41.5t114.5 110t65.5 157t21 182.5q0 105 -22.5 205.5t-71.5 179t-127 126.5t-188 48zM809 1474l72 248q3 11 9.5 19t21.5 8q9 0 21.5 -0.5t26.5 -1.5t29 -3t27 -5q17 -3 17 -15q0 -4 -4 -11 l-159 -247h-54zM892 1256h-61l-154 164h-8l-154 -164h-57l-7 8l146 240q6 11 14 18.5t23 9.5q32 5 52.5 6t29.5 1q15 0 22 -7t14 -19l147 -249z" />
<glyph unicode="&#x1ed1;" horiz-adv-x="910" d="M434 -20q-83 0 -150.5 29.5t-116.5 80.5t-75.5 120.5t-26.5 149.5q0 88 30.5 161t84.5 124.5t129 80t165 28.5q83 0 151.5 -28.5t117 -78.5t75.5 -118t27 -147q0 -90 -30 -164.5t-84.5 -127t-130 -81.5t-166.5 -29zM481 68q54 0 89 23.5t55 60.5t27.5 83t7.5 90 q0 54 -11.5 114t-38.5 110.5t-71 83.5t-109 33q-54 0 -89 -23.5t-55 -61t-28 -83t-8 -90.5q0 -55 12 -115t39 -110t71 -82.5t109 -32.5zM589 1136l77 318q6 24 31 28q16 3 35.5 5t38 3t33.5 1.5t23 0.5q17 0 17 -14q0 -5 -4 -12l-190 -338h-54zM702 826h-61l-184 224h-8 l-184 -224h-57l-7 8l170 317q5 11 12.5 18.5t20.5 9.5q33 5 58.5 8t38.5 3q15 0 22.5 -8t12.5 -19l173 -329z" />
<glyph unicode="&#x1ed2;" d="M706 1189q129 0 233 -40t177.5 -115.5t113.5 -185.5t40 -249q0 -152 -44.5 -269t-126.5 -196.5t-197.5 -121t-257.5 -41.5q-129 0 -233.5 41.5t-178 118.5t-113 188t-39.5 251q0 151 44.5 267t126.5 194t197.5 118t257.5 40zM656 1105q-98 0 -168 -40t-114.5 -107 t-65.5 -154t-21 -181q0 -105 22.5 -207t71.5 -182t127 -129.5t188 -49.5q98 0 168 41.5t114.5 110t65.5 157t21 182.5q0 105 -22.5 205.5t-71.5 179t-127 126.5t-188 48zM896 1456h-54l-159 247q-4 7 -4 11q0 12 17 15q24 6 55 8t49 2q15 0 21.5 -8t9.5 -19l72 -248z M892 1256h-61l-154 164h-8l-154 -164h-57l-7 8l146 240q6 11 14 18.5t23 9.5q32 5 52.5 6t29.5 1q15 0 22 -7t14 -19l147 -249z" />
<glyph unicode="&#x1ed3;" horiz-adv-x="910" d="M434 -20q-83 0 -150.5 29.5t-116.5 80.5t-75.5 120.5t-26.5 149.5q0 88 30.5 161t84.5 124.5t129 80t165 28.5q83 0 151.5 -28.5t117 -78.5t75.5 -118t27 -147q0 -90 -30 -164.5t-84.5 -127t-130 -81.5t-166.5 -29zM481 68q54 0 89 23.5t55 60.5t27.5 83t7.5 90 q0 54 -11.5 114t-38.5 110.5t-71 83.5t-109 33q-54 0 -89 -23.5t-55 -61t-28 -83t-8 -90.5q0 -55 12 -115t39 -110t71 -82.5t109 -32.5zM676 1087h-54l-183 327q-4 7 -4 12q0 11 16 14q12 3 29 5t34.5 3.5t32.5 2t23 0.5q15 0 22.5 -8t10.5 -19l80 -329zM702 826h-61 l-184 224h-8l-184 -224h-57l-7 8l170 317q5 11 12.5 18.5t20.5 9.5q33 5 58.5 8t38.5 3q15 0 22.5 -8t12.5 -19l173 -329z" />
<glyph unicode="&#x1ed4;" d="M706 1189q129 0 233 -40t177.5 -115.5t113.5 -185.5t40 -249q0 -152 -44.5 -269t-126.5 -196.5t-197.5 -121t-257.5 -41.5q-129 0 -233.5 41.5t-178 118.5t-113 188t-39.5 251q0 151 44.5 267t126.5 194t197.5 118t257.5 40zM656 1105q-98 0 -168 -40t-114.5 -107 t-65.5 -154t-21 -181q0 -105 22.5 -207t71.5 -182t127 -129.5t188 -49.5q98 0 168 41.5t114.5 110t65.5 157t21 182.5q0 105 -22.5 205.5t-71.5 179t-127 126.5t-188 48zM820 1726q-31 50 -31 73q0 19 10.5 32.5t27 22t35 11.5t36.5 3q34 0 67.5 -9t59.5 -27t42.5 -45 t16.5 -62q0 -23 -7.5 -41t-19.5 -33t-27 -27.5t-31 -23.5q-14 -9 -25.5 -17t-19 -15.5t-11.5 -15t-4 -17.5q0 -9 4.5 -20.5t26.5 -42.5q-28 -19 -42 -24.5t-29 -5.5q-19 0 -34 7t-24.5 17.5t-14 23.5t-4.5 27q0 22 9.5 41t23.5 35t31 28.5t34 24.5q14 10 27.5 20t23 19 t14 17t4.5 18q0 11 -5 18.5t-13.5 12t-21.5 7t-28 2.5q-47 0 -101 -34zM892 1256h-61l-154 164h-8l-154 -164h-57l-7 8l146 240q6 11 14 18.5t23 9.5q32 5 52.5 6t29.5 1q15 0 22 -7t14 -19l147 -249z" />
<glyph unicode="&#x1ed5;" horiz-adv-x="910" d="M434 -20q-83 0 -150.5 29.5t-116.5 80.5t-75.5 120.5t-26.5 149.5q0 88 30.5 161t84.5 124.5t129 80t165 28.5q83 0 151.5 -28.5t117 -78.5t75.5 -118t27 -147q0 -90 -30 -164.5t-84.5 -127t-130 -81.5t-166.5 -29zM481 68q54 0 89 23.5t55 60.5t27.5 83t7.5 90 q0 54 -11.5 114t-38.5 110.5t-71 83.5t-109 33q-54 0 -89 -23.5t-55 -61t-28 -83t-8 -90.5q0 -55 12 -115t39 -110t71 -82.5t109 -32.5zM599 1354q-31 50 -31 73q0 19 10.5 32.5t27 22t35 11.5t36.5 3q34 0 67.5 -9t59.5 -27t42.5 -45t16.5 -62q0 -23 -7.5 -41t-19.5 -33 t-27 -27.5t-31 -23.5q-14 -9 -25.5 -17t-19 -15.5t-11.5 -15t-4 -17.5q0 -9 4.5 -20.5t26.5 -42.5q-28 -19 -42 -24.5t-29 -5.5q-19 0 -34 7t-24.5 17.5t-14 23.5t-4.5 27q0 22 9.5 41t23.5 35t31 28.5t34 24.5q14 10 27.5 20t23 19t14 17t4.5 18q0 11 -5 18.5t-13.5 12 t-21.5 7t-28 2.5q-47 0 -101 -34zM702 826h-61l-184 224h-8l-184 -224h-57l-7 8l170 317q5 11 12.5 18.5t20.5 9.5q33 5 58.5 8t38.5 3q15 0 22.5 -8t12.5 -19l173 -329z" />
<glyph unicode="&#x1ed6;" d="M706 1189q129 0 233 -40t177.5 -115.5t113.5 -185.5t40 -249q0 -152 -44.5 -269t-126.5 -196.5t-197.5 -121t-257.5 -41.5q-129 0 -233.5 41.5t-178 118.5t-113 188t-39.5 251q0 151 44.5 267t126.5 194t197.5 118t257.5 40zM656 1105q-98 0 -168 -40t-114.5 -107 t-65.5 -154t-21 -181q0 -105 22.5 -207t71.5 -182t127 -129.5t188 -49.5q98 0 168 41.5t114.5 110t65.5 157t21 182.5q0 105 -22.5 205.5t-71.5 179t-127 126.5t-188 48zM1042 1723q-54 -99 -103.5 -143t-92.5 -44q-25 0 -55.5 15.5t-61.5 33.5q-28 16 -52.5 29t-43.5 13 q-24 0 -54.5 -26.5t-62.5 -68.5l-45 36q60 102 108 142.5t87 40.5q30 0 61.5 -15.5t61.5 -33.5q27 -17 51 -29.5t43 -12.5q29 0 58.5 27t56.5 62zM892 1256h-61l-154 164h-8l-154 -164h-57l-7 8l146 240q6 11 14 18.5t23 9.5q32 5 52.5 6t29.5 1q15 0 22 -7t14 -19l147 -249 z" />
<glyph unicode="&#x1ed7;" horiz-adv-x="910" d="M434 -20q-83 0 -150.5 29.5t-116.5 80.5t-75.5 120.5t-26.5 149.5q0 88 30.5 161t84.5 124.5t129 80t165 28.5q83 0 151.5 -28.5t117 -78.5t75.5 -118t27 -147q0 -90 -30 -164.5t-84.5 -127t-130 -81.5t-166.5 -29zM481 68q54 0 89 23.5t55 60.5t27.5 83t7.5 90 q0 54 -11.5 114t-38.5 110.5t-71 83.5t-109 33q-54 0 -89 -23.5t-55 -61t-28 -83t-8 -90.5q0 -55 12 -115t39 -110t71 -82.5t109 -32.5zM804 1395q-54 -97 -105 -142t-94 -45q-24 0 -54.5 15t-60.5 32q-29 17 -54.5 30t-45.5 13q-24 0 -55 -26t-63 -68l-48 36 q31 51 58.5 85.5t52.5 56.5t47.5 31.5t42.5 9.5q32 0 65 -16.5t64 -34.5q26 -15 49 -27t41 -12q29 0 58.5 26.5t57.5 61.5zM702 826h-61l-184 224h-8l-184 -224h-57l-7 8l170 317q5 11 12.5 18.5t20.5 9.5q33 5 58.5 8t38.5 3q15 0 22.5 -8t12.5 -19l173 -329z" />
<glyph unicode="&#x1ed8;" d="M706 1189q129 0 233 -40t177.5 -115.5t113.5 -185.5t40 -249q0 -152 -44.5 -269t-126.5 -196.5t-197.5 -121t-257.5 -41.5q-129 0 -233.5 41.5t-178 118.5t-113 188t-39.5 251q0 151 44.5 267t126.5 194t197.5 118t257.5 40zM656 1105q-98 0 -168 -40t-114.5 -107 t-65.5 -154t-21 -181q0 -105 22.5 -207t71.5 -182t127 -129.5t188 -49.5q98 0 168 41.5t114.5 110t65.5 157t21 182.5q0 105 -22.5 205.5t-71.5 179t-127 126.5t-188 48zM774 -169q0 -51 -28 -75t-79 -24q-43 0 -66.5 27t-23.5 72q0 51 29 74t80 23q43 0 65.5 -26t22.5 -71z M892 1256h-61l-154 164h-8l-154 -164h-57l-7 8l146 240q6 11 14 18.5t23 9.5q32 5 52.5 6t29.5 1q15 0 22 -7t14 -19l147 -249z" />
<glyph unicode="&#x1ed9;" horiz-adv-x="910" d="M434 -20q-83 0 -150.5 29.5t-116.5 80.5t-75.5 120.5t-26.5 149.5q0 88 30.5 161t84.5 124.5t129 80t165 28.5q83 0 151.5 -28.5t117 -78.5t75.5 -118t27 -147q0 -90 -30 -164.5t-84.5 -127t-130 -81.5t-166.5 -29zM481 68q54 0 89 23.5t55 60.5t27.5 83t7.5 90 q0 54 -11.5 114t-38.5 110.5t-71 83.5t-109 33q-54 0 -89 -23.5t-55 -61t-28 -83t-8 -90.5q0 -55 12 -115t39 -110t71 -82.5t109 -32.5zM554 -169q0 -51 -28 -75t-79 -24q-43 0 -66.5 27t-23.5 72q0 51 29 74t80 23q43 0 65.5 -26t22.5 -71zM702 826h-61l-184 224h-8 l-184 -224h-57l-7 8l170 317q5 11 12.5 18.5t20.5 9.5q33 5 58.5 8t38.5 3q15 0 22.5 -8t12.5 -19l173 -329z" />
<glyph unicode="&#x1eda;" d="M656 1105q-98 0 -168 -40t-114.5 -107t-65.5 -154t-21 -181q0 -105 22.5 -207t71.5 -182t127 -129.5t188 -49.5q98 0 168 41.5t114.5 110t65.5 157t21 182.5q0 105 -22.5 205.5t-71.5 179t-127 126.5t-188 48zM628 1264l72 248q3 11 9.5 19t21.5 8q9 0 21.5 -0.5 t26.5 -1.5t29 -3t27 -5q17 -3 17 -15q0 -4 -4 -11l-159 -247h-54zM1144 1002q54 -66 86 -154q40 -110 40 -249q0 -152 -44.5 -269t-126.5 -196.5t-197.5 -121t-257.5 -41.5q-129 0 -233.5 41.5t-178 118.5t-113 188t-39.5 251q0 151 44.5 267t126.5 194t197.5 118t257.5 40 q129 0 233 -40q79 -31 141 -82q15 46 15 91q0 43 -10 81t-27 67q-4 9 -1.5 17t12.5 11q20 5 41.5 8.5t40.5 6t33.5 4t20.5 1.5q14 0 20 -7t11 -18q8 -21 11.5 -42t3.5 -43q0 -47 -14 -93.5t-41 -87.5q-22 -33 -52 -61z" />
<glyph unicode="&#x1edb;" horiz-adv-x="910" d="M481 68q54 0 89 23.5t55 60.5t27.5 83t7.5 90q0 54 -11.5 114t-38.5 110.5t-71 83.5t-109 33q-54 0 -89 -23.5t-55 -61t-28 -83t-8 -90.5q0 -55 12 -115t39 -110t71 -82.5t109 -32.5zM408 834l77 318q6 24 31 28q16 3 35.5 5t38 3t33.5 1.5t23 0.5q17 0 17 -14 q0 -5 -4 -12l-190 -338h-54zM774 610q26 -37 44 -81q27 -68 27 -147q0 -90 -30 -164.5t-84.5 -127t-130 -81.5t-166.5 -29q-83 0 -150.5 29.5t-116.5 80.5t-75.5 120.5t-26.5 149.5q0 88 30.5 161t84.5 124.5t129 80t165 28.5q83 0 152 -28q63 -27 109 -71q7 12 13 26 q16 43 16 86q0 37 -8.5 69t-23.5 57q-3 8 -1 14.5t11 9.5q17 4 35 7t34 5t28.5 3.5t17.5 1.5q12 0 17 -6t9 -15q7 -18 10 -36t3 -37q0 -40 -12 -79.5t-34.5 -74t-56.5 -62.5q-9 -8 -19 -14z" />
<glyph unicode="&#x1edc;" d="M656 1105q-98 0 -168 -40t-114.5 -107t-65.5 -154t-21 -181q0 -105 22.5 -207t71.5 -182t127 -129.5t188 -49.5q98 0 168 41.5t114.5 110t65.5 157t21 182.5q0 105 -22.5 205.5t-71.5 179t-127 126.5t-188 48zM715 1256h-54l-159 247q-4 7 -4 11q0 12 17 15q24 6 55 8 t49 2q15 0 21.5 -8t9.5 -19l72 -248zM1144 1002q54 -66 86 -154q40 -110 40 -249q0 -152 -44.5 -269t-126.5 -196.5t-197.5 -121t-257.5 -41.5q-129 0 -233.5 41.5t-178 118.5t-113 188t-39.5 251q0 151 44.5 267t126.5 194t197.5 118t257.5 40q129 0 233 -40 q79 -31 141 -82q15 46 15 91q0 43 -10 81t-27 67q-4 9 -1.5 17t12.5 11q20 5 41.5 8.5t40.5 6t33.5 4t20.5 1.5q14 0 20 -7t11 -18q8 -21 11.5 -42t3.5 -43q0 -47 -14 -93.5t-41 -87.5q-22 -33 -52 -61z" />
<glyph unicode="&#x1edd;" horiz-adv-x="910" d="M481 68q54 0 89 23.5t55 60.5t27.5 83t7.5 90q0 54 -11.5 114t-38.5 110.5t-71 83.5t-109 33q-54 0 -89 -23.5t-55 -61t-28 -83t-8 -90.5q0 -55 12 -115t39 -110t71 -82.5t109 -32.5zM495 826h-54l-183 327q-4 7 -4 12q0 11 16 14q12 3 29 5t34.5 3.5t32.5 2t23 0.5 q15 0 22.5 -8t10.5 -19l80 -329zM774 610q26 -37 44 -81q27 -68 27 -147q0 -90 -30 -164.5t-84.5 -127t-130 -81.5t-166.5 -29q-83 0 -150.5 29.5t-116.5 80.5t-75.5 120.5t-26.5 149.5q0 88 30.5 161t84.5 124.5t129 80t165 28.5q83 0 152 -28q63 -27 109 -71q7 12 13 26 q16 43 16 86q0 37 -8.5 69t-23.5 57q-3 8 -1 14.5t11 9.5q17 4 35 7t34 5t28.5 3.5t17.5 1.5q12 0 17 -6t9 -15q7 -18 10 -36t3 -37q0 -40 -12 -79.5t-34.5 -74t-56.5 -62.5q-9 -8 -19 -14z" />
<glyph unicode="&#x1ede;" d="M656 1105q-98 0 -168 -40t-114.5 -107t-65.5 -154t-21 -181q0 -105 22.5 -207t71.5 -182t127 -129.5t188 -49.5q98 0 168 41.5t114.5 110t65.5 157t21 182.5q0 105 -22.5 205.5t-71.5 179t-127 126.5t-188 48zM599 1545q-31 50 -31 73q0 19 10.5 32.5t27 22t35 11.5 t36.5 3q34 0 67.5 -9t59.5 -27t42.5 -45t16.5 -62q0 -23 -7.5 -41t-19.5 -33t-27 -27.5t-31 -23.5q-14 -9 -25.5 -17t-19 -15.5t-11.5 -15t-4 -17.5q0 -9 4.5 -20.5t26.5 -42.5q-28 -19 -42 -24.5t-29 -5.5q-19 0 -34 7t-24.5 17.5t-14 23.5t-4.5 27q0 22 9.5 41t23.5 35 t31 28.5t34 24.5q14 10 27.5 20t23 19t14 17t4.5 18q0 11 -5 18.5t-13.5 12t-21.5 7t-28 2.5q-47 0 -101 -34zM1144 1002q54 -66 86 -154q40 -110 40 -249q0 -152 -44.5 -269t-126.5 -196.5t-197.5 -121t-257.5 -41.5q-129 0 -233.5 41.5t-178 118.5t-113 188t-39.5 251 q0 151 44.5 267t126.5 194t197.5 118t257.5 40q129 0 233 -40q79 -31 141 -82q15 46 15 91q0 43 -10 81t-27 67q-4 9 -1.5 17t12.5 11q20 5 41.5 8.5t40.5 6t33.5 4t20.5 1.5q14 0 20 -7t11 -18q8 -21 11.5 -42t3.5 -43q0 -47 -14 -93.5t-41 -87.5q-22 -33 -52 -61z" />
<glyph unicode="&#x1edf;" horiz-adv-x="910" d="M481 68q54 0 89 23.5t55 60.5t27.5 83t7.5 90q0 54 -11.5 114t-38.5 110.5t-71 83.5t-109 33q-54 0 -89 -23.5t-55 -61t-28 -83t-8 -90.5q0 -55 12 -115t39 -110t71 -82.5t109 -32.5zM368 1093q-31 50 -31 73q0 19 10.5 32.5t27 22t35 11.5t36.5 3q34 0 67.5 -9t59.5 -27 t42.5 -45t16.5 -62q0 -23 -7.5 -41t-19.5 -33t-27 -27.5t-31 -23.5q-14 -9 -25.5 -17t-19 -15.5t-11.5 -15t-4 -17.5q0 -9 4.5 -20.5t26.5 -42.5q-28 -19 -42 -24.5t-29 -5.5q-19 0 -34 7t-24.5 17.5t-14 23.5t-4.5 27q0 22 9.5 41t23.5 35t31 28.5t34 24.5q14 10 27.5 20 t23 19t14 17t4.5 18q0 11 -5 18.5t-13.5 12t-21.5 7t-28 2.5q-47 0 -101 -34zM774 610q26 -37 44 -81q27 -68 27 -147q0 -90 -30 -164.5t-84.5 -127t-130 -81.5t-166.5 -29q-83 0 -150.5 29.5t-116.5 80.5t-75.5 120.5t-26.5 149.5q0 88 30.5 161t84.5 124.5t129 80 t165 28.5q83 0 152 -28q63 -27 109 -71q7 12 13 26q16 43 16 86q0 37 -8.5 69t-23.5 57q-3 8 -1 14.5t11 9.5q17 4 35 7t34 5t28.5 3.5t17.5 1.5q12 0 17 -6t9 -15q7 -18 10 -36t3 -37q0 -40 -12 -79.5t-34.5 -74t-56.5 -62.5q-9 -8 -19 -14z" />
<glyph unicode="&#x1ee0;" d="M656 1105q-98 0 -168 -40t-114.5 -107t-65.5 -154t-21 -181q0 -105 22.5 -207t71.5 -182t127 -129.5t188 -49.5q98 0 168 41.5t114.5 110t65.5 157t21 182.5q0 105 -22.5 205.5t-71.5 179t-127 126.5t-188 48zM971 1462q-54 -99 -103.5 -143t-92.5 -44q-25 0 -55.5 15.5 t-61.5 33.5q-28 16 -52.5 29t-43.5 13q-24 0 -54.5 -26.5t-62.5 -68.5l-45 36q60 102 108 142.5t87 40.5q30 0 61.5 -15.5t61.5 -33.5q27 -17 51 -29.5t43 -12.5q29 0 58.5 27t56.5 62zM1144 1002q54 -66 86 -154q40 -110 40 -249q0 -152 -44.5 -269t-126.5 -196.5 t-197.5 -121t-257.5 -41.5q-129 0 -233.5 41.5t-178 118.5t-113 188t-39.5 251q0 151 44.5 267t126.5 194t197.5 118t257.5 40q129 0 233 -40q79 -31 141 -82q15 46 15 91q0 43 -10 81t-27 67q-4 9 -1.5 17t12.5 11q20 5 41.5 8.5t40.5 6t33.5 4t20.5 1.5q14 0 20 -7t11 -18 q8 -21 11.5 -42t3.5 -43q0 -47 -14 -93.5t-41 -87.5q-22 -33 -52 -61z" />
<glyph unicode="&#x1ee1;" horiz-adv-x="910" d="M481 68q54 0 89 23.5t55 60.5t27.5 83t7.5 90q0 54 -11.5 114t-38.5 110.5t-71 83.5t-109 33q-54 0 -89 -23.5t-55 -61t-28 -83t-8 -90.5q0 -55 12 -115t39 -110t71 -82.5t109 -32.5zM754 1104q-54 -97 -105 -142t-94 -45q-24 0 -54.5 15t-60.5 32q-29 17 -54.5 30 t-45.5 13q-24 0 -55 -26t-63 -68l-48 36q31 51 58.5 85.5t52.5 56.5t47.5 31.5t42.5 9.5q32 0 65 -16.5t64 -34.5q26 -15 49 -27t41 -12q29 0 58.5 26.5t57.5 61.5zM774 610q26 -37 44 -81q27 -68 27 -147q0 -90 -30 -164.5t-84.5 -127t-130 -81.5t-166.5 -29 q-83 0 -150.5 29.5t-116.5 80.5t-75.5 120.5t-26.5 149.5q0 88 30.5 161t84.5 124.5t129 80t165 28.5q83 0 152 -28q63 -27 109 -71q7 12 13 26q16 43 16 86q0 37 -8.5 69t-23.5 57q-3 8 -1 14.5t11 9.5q17 4 35 7t34 5t28.5 3.5t17.5 1.5q12 0 17 -6t9 -15q7 -18 10 -36 t3 -37q0 -40 -12 -79.5t-34.5 -74t-56.5 -62.5q-9 -8 -19 -14z" />
<glyph unicode="&#x1ee2;" d="M656 1105q-98 0 -168 -40t-114.5 -107t-65.5 -154t-21 -181q0 -105 22.5 -207t71.5 -182t127 -129.5t188 -49.5q98 0 168 41.5t114.5 110t65.5 157t21 182.5q0 105 -22.5 205.5t-71.5 179t-127 126.5t-188 48zM774 -169q0 -51 -28 -75t-79 -24q-43 0 -66.5 27t-23.5 72 q0 51 29 74t80 23q43 0 65.5 -26t22.5 -71zM1144 1002q54 -66 86 -154q40 -110 40 -249q0 -152 -44.5 -269t-126.5 -196.5t-197.5 -121t-257.5 -41.5q-129 0 -233.5 41.5t-178 118.5t-113 188t-39.5 251q0 151 44.5 267t126.5 194t197.5 118t257.5 40q129 0 233 -40 q79 -31 141 -82q15 46 15 91q0 43 -10 81t-27 67q-4 9 -1.5 17t12.5 11q20 5 41.5 8.5t40.5 6t33.5 4t20.5 1.5q14 0 20 -7t11 -18q8 -21 11.5 -42t3.5 -43q0 -47 -14 -93.5t-41 -87.5q-22 -33 -52 -61z" />
<glyph unicode="&#x1ee3;" horiz-adv-x="910" d="M481 68q54 0 89 23.5t55 60.5t27.5 83t7.5 90q0 54 -11.5 114t-38.5 110.5t-71 83.5t-109 33q-54 0 -89 -23.5t-55 -61t-28 -83t-8 -90.5q0 -55 12 -115t39 -110t71 -82.5t109 -32.5zM554 -169q0 -51 -28 -75t-79 -24q-43 0 -66.5 27t-23.5 72q0 51 29 74t80 23 q43 0 65.5 -26t22.5 -71zM774 610q26 -37 44 -81q27 -68 27 -147q0 -90 -30 -164.5t-84.5 -127t-130 -81.5t-166.5 -29q-83 0 -150.5 29.5t-116.5 80.5t-75.5 120.5t-26.5 149.5q0 88 30.5 161t84.5 124.5t129 80t165 28.5q83 0 152 -28q63 -27 109 -71q7 12 13 26 q16 43 16 86q0 37 -8.5 69t-23.5 57q-3 8 -1 14.5t11 9.5q17 4 35 7t34 5t28.5 3.5t17.5 1.5q12 0 17 -6t9 -15q7 -18 10 -36t3 -37q0 -40 -12 -79.5t-34.5 -74t-56.5 -62.5q-9 -8 -19 -14z" />
<glyph unicode="&#x1ee4;" horiz-adv-x="1225" d="M336 365q-1 -75 19 -126.5t56 -83t84 -45t104 -13.5q72 0 141.5 23t138.5 57v954q0 23 24 28q16 3 36.5 5t40.5 3.5t36.5 2.5t24.5 1q24 0 24 -25v-1119q0 -24 -24 -28q-17 -3 -36.5 -5.5t-38 -4t-33.5 -2t-23 -0.5q-23 0 -24 25l-7 82q-94 -52 -197.5 -86.5 t-209.5 -34.5q-66 0 -125 18t-102.5 55t-69 94.5t-25.5 135.5v726q0 28 -5.5 45.5t-16 27.5t-25 14t-32.5 4q-20 0 -44 -3l-6 55q54 10 102.5 17t86 11t62.5 6t32 2q32 0 32 -32v-784zM774 -169q0 -51 -28 -75t-79 -24q-43 0 -66.5 27t-23.5 72q0 51 29 74t80 23 q43 0 65.5 -26t22.5 -71z" />
<glyph unicode="&#x1ee5;" horiz-adv-x="983" d="M680 557q0 53 -17 72.5t-53 19.5q-11 0 -21.5 -0.5t-25.5 -3.5l-6 48q54 15 100 25.5t81.5 17.5t58 10t29.5 3q32 0 32 -36v-571q0 -34 4.5 -62.5t10.5 -54.5l1 -6q0 -15 -20 -20q-13 -2 -29.5 -4t-34 -4t-35 -3t-30.5 -1q-11 0 -16.5 6t-8.5 18l-15 56 q-47 -18 -93.5 -34t-88.5 -27.5t-77 -18.5t-59 -7q-56 0 -96.5 18t-66.5 50t-38.5 77.5t-12.5 100.5l5 331q1 53 -16.5 72.5t-53.5 19.5q-11 0 -21.5 -0.5t-25.5 -3.5l-6 48q54 15 100 25.5t81.5 17.5t58 10t29.5 3q32 0 32 -36l-5 -389v-15q0 -54 8.5 -94.5t28.5 -68 t52 -41.5t79 -14q15 0 36.5 3.5t46 10t50 15.5t48.5 19v418zM624 -169q0 -51 -28 -75t-79 -24q-43 0 -66.5 27t-23.5 72q0 51 29 74t80 23q43 0 65.5 -26t22.5 -71z" />
<glyph unicode="&#x1ee6;" horiz-adv-x="1225" d="M336 365q-1 -75 19 -126.5t56 -83t84 -45t104 -13.5q72 0 141.5 23t138.5 57v954q0 23 24 28q16 3 36.5 5t40.5 3.5t36.5 2.5t24.5 1q24 0 24 -25v-1119q0 -24 -24 -28q-17 -3 -36.5 -5.5t-38 -4t-33.5 -2t-23 -0.5q-23 0 -24 25l-7 82q-94 -52 -197.5 -86.5 t-209.5 -34.5q-66 0 -125 18t-102.5 55t-69 94.5t-25.5 135.5v726q0 28 -5.5 45.5t-16 27.5t-25 14t-32.5 4q-20 0 -44 -3l-6 55q54 10 102.5 17t86 11t62.5 6t32 2q32 0 32 -32v-784zM548 1545q-31 50 -31 73q0 19 10.5 32.5t27 22t35 11.5t36.5 3q34 0 67.5 -9t59.5 -27 t42.5 -45t16.5 -62q0 -23 -7.5 -41t-19.5 -33t-27 -27.5t-31 -23.5q-14 -9 -25.5 -17t-19 -15.5t-11.5 -15t-4 -17.5q0 -9 4.5 -20.5t26.5 -42.5q-28 -19 -42 -24.5t-29 -5.5q-19 0 -34 7t-24.5 17.5t-14 23.5t-4.5 27q0 22 9.5 41t23.5 35t31 28.5t34 24.5q14 10 27.5 20 t23 19t14 17t4.5 18q0 11 -5 18.5t-13.5 12t-21.5 7t-28 2.5q-47 0 -101 -34z" />
<glyph unicode="&#x1ee7;" horiz-adv-x="983" d="M680 557q0 53 -17 72.5t-53 19.5q-11 0 -21.5 -0.5t-25.5 -3.5l-6 48q54 15 100 25.5t81.5 17.5t58 10t29.5 3q32 0 32 -36v-571q0 -34 4.5 -62.5t10.5 -54.5l1 -6q0 -15 -20 -20q-13 -2 -29.5 -4t-34 -4t-35 -3t-30.5 -1q-11 0 -16.5 6t-8.5 18l-15 56 q-47 -18 -93.5 -34t-88.5 -27.5t-77 -18.5t-59 -7q-56 0 -96.5 18t-66.5 50t-38.5 77.5t-12.5 100.5l5 331q1 53 -16.5 72.5t-53.5 19.5q-11 0 -21.5 -0.5t-25.5 -3.5l-6 48q54 15 100 25.5t81.5 17.5t58 10t29.5 3q32 0 32 -36l-5 -389v-15q0 -54 8.5 -94.5t28.5 -68 t52 -41.5t79 -14q15 0 36.5 3.5t46 10t50 15.5t48.5 19v418zM428 1093q-31 50 -31 73q0 19 10.5 32.5t27 22t35 11.5t36.5 3q34 0 67.5 -9t59.5 -27t42.5 -45t16.5 -62q0 -23 -7.5 -41t-19.5 -33t-27 -27.5t-31 -23.5q-14 -9 -25.5 -17t-19 -15.5t-11.5 -15t-4 -17.5 q0 -9 4.5 -20.5t26.5 -42.5q-28 -19 -42 -24.5t-29 -5.5q-19 0 -34 7t-24.5 17.5t-14 23.5t-4.5 27q0 22 9.5 41t23.5 35t31 28.5t34 24.5q14 10 27.5 20t23 19t14 17t4.5 18q0 11 -5 18.5t-13.5 12t-21.5 7t-28 2.5q-47 0 -101 -34z" />
<glyph unicode="&#x1ee8;" horiz-adv-x="1225" d="M558 1264l72 248q3 11 9.5 19t21.5 8q9 0 21.5 -0.5t26.5 -1.5t29 -3t27 -5q17 -3 17 -15q0 -4 -4 -11l-159 -247h-54zM1065 948v-921q0 -24 -24 -28q-17 -3 -36.5 -5.5t-38 -4t-33.5 -2t-23 -0.5q-23 0 -24 25l-7 82q-94 -52 -197.5 -86.5t-209.5 -34.5q-66 0 -125 18 t-102.5 55t-69 94.5t-25.5 135.5v726q0 28 -5.5 45.5t-16 27.5t-25 14t-32.5 4q-20 0 -44 -3l-6 55q54 10 102.5 17t86 11t62.5 6t32 2q32 0 32 -32v-784q-1 -75 19 -126.5t56 -83t84 -45t104 -13.5q72 0 141.5 23t138.5 57v954q0 23 24 28q16 3 36.5 5t40.5 3.5t36.5 2.5 t24.5 1q24 0 24 -25v-115q6 12 11 25q19 51 19 102q0 43 -10 81t-27 67q-4 9 -1.5 17t12.5 11q20 5 41.5 8.5t40.5 6t33.5 4t20.5 1.5q14 0 20 -7t11 -18q8 -21 11.5 -42t3.5 -43q0 -47 -14 -93.5t-41 -87.5t-67 -74q-29 -24 -64 -41z" />
<glyph unicode="&#x1ee9;" horiz-adv-x="983" d="M453 834l77 318q6 24 31 28q16 3 35.5 5t38 3t33.5 1.5t23 0.5q17 0 17 -14q0 -5 -4 -12l-190 -338h-54zM858 588v-446q0 -34 4.5 -62.5t10.5 -54.5l1 -6q0 -15 -20 -20q-13 -2 -29.5 -4t-34 -4t-35 -3t-30.5 -1q-11 0 -16.5 6t-8.5 18l-15 56q-47 -18 -93.5 -34 t-88.5 -27.5t-77 -18.5t-59 -7q-56 0 -96.5 18t-66.5 50t-38.5 77.5t-12.5 100.5l5 331q1 53 -16.5 72.5t-53.5 19.5q-11 0 -21.5 -0.5t-25.5 -3.5l-6 48q54 15 100 25.5t81.5 17.5t58 10t29.5 3q32 0 32 -36l-5 -389v-15q0 -54 8.5 -94.5t28.5 -68t52 -41.5t79 -14 q15 0 36.5 3.5t46 10t50 15.5t48.5 19v418q0 53 -17 72.5t-53 19.5q-11 0 -21.5 -0.5t-25.5 -3.5l-6 48q54 15 100 25.5t81.5 17.5t58 10t29.5 3q32 0 32 -36v-55q6 11 11 23q16 43 16 86q0 37 -8.5 69t-23.5 57q-3 8 -1 14.5t11 9.5q17 4 35 7t34 5t28.5 3.5t17.5 1.5 q12 0 17 -6t9 -15q7 -18 10 -36t3 -37q0 -40 -12 -79.5t-34.5 -74t-56.5 -62.5q-25 -21 -56 -36z" />
<glyph unicode="&#x1eea;" horiz-adv-x="1225" d="M645 1256h-54l-159 247q-4 7 -4 11q0 12 17 15q24 6 55 8t49 2q15 0 21.5 -8t9.5 -19l72 -248zM1065 948v-921q0 -24 -24 -28q-17 -3 -36.5 -5.5t-38 -4t-33.5 -2t-23 -0.5q-23 0 -24 25l-7 82q-94 -52 -197.5 -86.5t-209.5 -34.5q-66 0 -125 18t-102.5 55t-69 94.5 t-25.5 135.5v726q0 28 -5.5 45.5t-16 27.5t-25 14t-32.5 4q-20 0 -44 -3l-6 55q54 10 102.5 17t86 11t62.5 6t32 2q32 0 32 -32v-784q-1 -75 19 -126.5t56 -83t84 -45t104 -13.5q72 0 141.5 23t138.5 57v954q0 23 24 28q16 3 36.5 5t40.5 3.5t36.5 2.5t24.5 1q24 0 24 -25 v-115q6 12 11 25q19 51 19 102q0 43 -10 81t-27 67q-4 9 -1.5 17t12.5 11q20 5 41.5 8.5t40.5 6t33.5 4t20.5 1.5q14 0 20 -7t11 -18q8 -21 11.5 -42t3.5 -43q0 -47 -14 -93.5t-41 -87.5t-67 -74q-29 -24 -64 -41z" />
<glyph unicode="&#x1eeb;" horiz-adv-x="983" d="M540 826h-54l-183 327q-4 7 -4 12q0 11 16 14q12 3 29 5t34.5 3.5t32.5 2t23 0.5q15 0 22.5 -8t10.5 -19l80 -329zM858 588v-446q0 -34 4.5 -62.5t10.5 -54.5l1 -6q0 -15 -20 -20q-13 -2 -29.5 -4t-34 -4t-35 -3t-30.5 -1q-11 0 -16.5 6t-8.5 18l-15 56 q-47 -18 -93.5 -34t-88.5 -27.5t-77 -18.5t-59 -7q-56 0 -96.5 18t-66.5 50t-38.5 77.5t-12.5 100.5l5 331q1 53 -16.5 72.5t-53.5 19.5q-11 0 -21.5 -0.5t-25.5 -3.5l-6 48q54 15 100 25.5t81.5 17.5t58 10t29.5 3q32 0 32 -36l-5 -389v-15q0 -54 8.5 -94.5t28.5 -68 t52 -41.5t79 -14q15 0 36.5 3.5t46 10t50 15.5t48.5 19v418q0 53 -17 72.5t-53 19.5q-11 0 -21.5 -0.5t-25.5 -3.5l-6 48q54 15 100 25.5t81.5 17.5t58 10t29.5 3q32 0 32 -36v-55q6 11 11 23q16 43 16 86q0 37 -8.5 69t-23.5 57q-3 8 -1 14.5t11 9.5q17 4 35 7t34 5 t28.5 3.5t17.5 1.5q12 0 17 -6t9 -15q7 -18 10 -36t3 -37q0 -40 -12 -79.5t-34.5 -74t-56.5 -62.5q-25 -21 -56 -36z" />
<glyph unicode="&#x1eec;" horiz-adv-x="1225" d="M1065 948v-921q0 -24 -24 -28q-17 -3 -36.5 -5.5t-38 -4t-33.5 -2t-23 -0.5q-23 0 -24 25l-7 82q-94 -52 -197.5 -86.5t-209.5 -34.5q-66 0 -125 18t-102.5 55t-69 94.5t-25.5 135.5v726q0 28 -5.5 45.5t-16 27.5t-25 14t-32.5 4q-20 0 -44 -3l-6 55q54 10 102.5 17 t86 11t62.5 6t32 2q32 0 32 -32v-784q-1 -75 19 -126.5t56 -83t84 -45t104 -13.5q72 0 141.5 23t138.5 57v954q0 23 24 28q16 3 36.5 5t40.5 3.5t36.5 2.5t24.5 1q24 0 24 -25v-115q6 12 11 25q19 51 19 102q0 43 -10 81t-27 67q-4 9 -1.5 17t12.5 11q20 5 41.5 8.5t40.5 6 t33.5 4t20.5 1.5q14 0 20 -7t11 -18q8 -21 11.5 -42t3.5 -43q0 -47 -14 -93.5t-41 -87.5t-67 -74q-29 -24 -64 -41zM548 1545q-31 50 -31 73q0 19 10.5 32.5t27 22t35 11.5t36.5 3q34 0 67.5 -9t59.5 -27t42.5 -45t16.5 -62q0 -23 -7.5 -41t-19.5 -33t-27 -27.5t-31 -23.5 q-14 -9 -25.5 -17t-19 -15.5t-11.5 -15t-4 -17.5q0 -9 4.5 -20.5t26.5 -42.5q-28 -19 -42 -24.5t-29 -5.5q-19 0 -34 7t-24.5 17.5t-14 23.5t-4.5 27q0 22 9.5 41t23.5 35t31 28.5t34 24.5q14 10 27.5 20t23 19t14 17t4.5 18q0 11 -5 18.5t-13.5 12t-21.5 7t-28 2.5 q-47 0 -101 -34z" />
<glyph unicode="&#x1eed;" horiz-adv-x="983" d="M428 1093q-31 50 -31 73q0 19 10.5 32.5t27 22t35 11.5t36.5 3q34 0 67.5 -9t59.5 -27t42.5 -45t16.5 -62q0 -23 -7.5 -41t-19.5 -33t-27 -27.5t-31 -23.5q-14 -9 -25.5 -17t-19 -15.5t-11.5 -15t-4 -17.5q0 -9 4.5 -20.5t26.5 -42.5q-28 -19 -42 -24.5t-29 -5.5 q-19 0 -34 7t-24.5 17.5t-14 23.5t-4.5 27q0 22 9.5 41t23.5 35t31 28.5t34 24.5q14 10 27.5 20t23 19t14 17t4.5 18q0 11 -5 18.5t-13.5 12t-21.5 7t-28 2.5q-47 0 -101 -34zM858 588v-446q0 -34 4.5 -62.5t10.5 -54.5l1 -6q0 -15 -20 -20q-13 -2 -29.5 -4t-34 -4t-35 -3 t-30.5 -1q-11 0 -16.5 6t-8.5 18l-15 56q-47 -18 -93.5 -34t-88.5 -27.5t-77 -18.5t-59 -7q-56 0 -96.5 18t-66.5 50t-38.5 77.5t-12.5 100.5l5 331q1 53 -16.5 72.5t-53.5 19.5q-11 0 -21.5 -0.5t-25.5 -3.5l-6 48q54 15 100 25.5t81.5 17.5t58 10t29.5 3q32 0 32 -36 l-5 -389v-15q0 -54 8.5 -94.5t28.5 -68t52 -41.5t79 -14q15 0 36.5 3.5t46 10t50 15.5t48.5 19v418q0 53 -17 72.5t-53 19.5q-11 0 -21.5 -0.5t-25.5 -3.5l-6 48q54 15 100 25.5t81.5 17.5t58 10t29.5 3q32 0 32 -36v-55q6 11 11 23q16 43 16 86q0 37 -8.5 69t-23.5 57 q-3 8 -1 14.5t11 9.5q17 4 35 7t34 5t28.5 3.5t17.5 1.5q12 0 17 -6t9 -15q7 -18 10 -36t3 -37q0 -40 -12 -79.5t-34.5 -74t-56.5 -62.5q-25 -21 -56 -36z" />
<glyph unicode="&#x1eee;" horiz-adv-x="1225" d="M901 1462q-54 -99 -103.5 -143t-92.5 -44q-25 0 -55.5 15.5t-61.5 33.5q-28 16 -52.5 29t-43.5 13q-24 0 -54.5 -26.5t-62.5 -68.5l-45 36q60 102 108 142.5t87 40.5q30 0 61.5 -15.5t61.5 -33.5q27 -17 51 -29.5t43 -12.5q29 0 58.5 27t56.5 62zM1065 948v-921 q0 -24 -24 -28q-17 -3 -36.5 -5.5t-38 -4t-33.5 -2t-23 -0.5q-23 0 -24 25l-7 82q-94 -52 -197.5 -86.5t-209.5 -34.5q-66 0 -125 18t-102.5 55t-69 94.5t-25.5 135.5v726q0 28 -5.5 45.5t-16 27.5t-25 14t-32.5 4q-20 0 -44 -3l-6 55q54 10 102.5 17t86 11t62.5 6t32 2 q32 0 32 -32v-784q-1 -75 19 -126.5t56 -83t84 -45t104 -13.5q72 0 141.5 23t138.5 57v954q0 23 24 28q16 3 36.5 5t40.5 3.5t36.5 2.5t24.5 1q24 0 24 -25v-115q6 12 11 25q19 51 19 102q0 43 -10 81t-27 67q-4 9 -1.5 17t12.5 11q20 5 41.5 8.5t40.5 6t33.5 4t20.5 1.5 q14 0 20 -7t11 -18q8 -21 11.5 -42t3.5 -43q0 -47 -14 -93.5t-41 -87.5t-67 -74q-29 -24 -64 -41z" />
<glyph unicode="&#x1eef;" horiz-adv-x="983" d="M799 1104q-54 -97 -105 -142t-94 -45q-24 0 -54.5 15t-60.5 32q-29 17 -54.5 30t-45.5 13q-24 0 -55 -26t-63 -68l-48 36q31 51 58.5 85.5t52.5 56.5t47.5 31.5t42.5 9.5q32 0 65 -16.5t64 -34.5q26 -15 49 -27t41 -12q29 0 58.5 26.5t57.5 61.5zM858 588v-446 q0 -34 4.5 -62.5t10.5 -54.5l1 -6q0 -15 -20 -20q-13 -2 -29.5 -4t-34 -4t-35 -3t-30.5 -1q-11 0 -16.5 6t-8.5 18l-15 56q-47 -18 -93.5 -34t-88.5 -27.5t-77 -18.5t-59 -7q-56 0 -96.5 18t-66.5 50t-38.5 77.5t-12.5 100.5l5 331q1 53 -16.5 72.5t-53.5 19.5 q-11 0 -21.5 -0.5t-25.5 -3.5l-6 48q54 15 100 25.5t81.5 17.5t58 10t29.5 3q32 0 32 -36l-5 -389v-15q0 -54 8.5 -94.5t28.5 -68t52 -41.5t79 -14q15 0 36.5 3.5t46 10t50 15.5t48.5 19v418q0 53 -17 72.5t-53 19.5q-11 0 -21.5 -0.5t-25.5 -3.5l-6 48q54 15 100 25.5 t81.5 17.5t58 10t29.5 3q32 0 32 -36v-55q6 11 11 23q16 43 16 86q0 37 -8.5 69t-23.5 57q-3 8 -1 14.5t11 9.5q17 4 35 7t34 5t28.5 3.5t17.5 1.5q12 0 17 -6t9 -15q7 -18 10 -36t3 -37q0 -40 -12 -79.5t-34.5 -74t-56.5 -62.5q-25 -21 -56 -36z" />
<glyph unicode="&#x1ef0;" horiz-adv-x="1225" d="M1065 948v-921q0 -24 -24 -28q-17 -3 -36.5 -5.5t-38 -4t-33.5 -2t-23 -0.5q-23 0 -24 25l-7 82q-94 -52 -197.5 -86.5t-209.5 -34.5q-66 0 -125 18t-102.5 55t-69 94.5t-25.5 135.5v726q0 28 -5.5 45.5t-16 27.5t-25 14t-32.5 4q-20 0 -44 -3l-6 55q54 10 102.5 17 t86 11t62.5 6t32 2q32 0 32 -32v-784q-1 -75 19 -126.5t56 -83t84 -45t104 -13.5q72 0 141.5 23t138.5 57v954q0 23 24 28q16 3 36.5 5t40.5 3.5t36.5 2.5t24.5 1q24 0 24 -25v-115q6 12 11 25q19 51 19 102q0 43 -10 81t-27 67q-4 9 -1.5 17t12.5 11q20 5 41.5 8.5t40.5 6 t33.5 4t20.5 1.5q14 0 20 -7t11 -18q8 -21 11.5 -42t3.5 -43q0 -47 -14 -93.5t-41 -87.5t-67 -74q-29 -24 -64 -41zM774 -169q0 -51 -28 -75t-79 -24q-43 0 -66.5 27t-23.5 72q0 51 29 74t80 23q43 0 65.5 -26t22.5 -71z" />
<glyph unicode="&#x1ef1;" horiz-adv-x="983" d="M624 -169q0 -51 -28 -75t-79 -24q-43 0 -66.5 27t-23.5 72q0 51 29 74t80 23q43 0 65.5 -26t22.5 -71zM858 588v-446q0 -34 4.5 -62.5t10.5 -54.5l1 -6q0 -15 -20 -20q-13 -2 -29.5 -4t-34 -4t-35 -3t-30.5 -1q-11 0 -16.5 6t-8.5 18l-15 56q-47 -18 -93.5 -34 t-88.5 -27.5t-77 -18.5t-59 -7q-56 0 -96.5 18t-66.5 50t-38.5 77.5t-12.5 100.5l5 331q1 53 -16.5 72.5t-53.5 19.5q-11 0 -21.5 -0.5t-25.5 -3.5l-6 48q54 15 100 25.5t81.5 17.5t58 10t29.5 3q32 0 32 -36l-5 -389v-15q0 -54 8.5 -94.5t28.5 -68t52 -41.5t79 -14 q15 0 36.5 3.5t46 10t50 15.5t48.5 19v418q0 53 -17 72.5t-53 19.5q-11 0 -21.5 -0.5t-25.5 -3.5l-6 48q54 15 100 25.5t81.5 17.5t58 10t29.5 3q32 0 32 -36v-55q6 11 11 23q16 43 16 86q0 37 -8.5 69t-23.5 57q-3 8 -1 14.5t11 9.5q17 4 35 7t34 5t28.5 3.5t17.5 1.5 q12 0 17 -6t9 -15q7 -18 10 -36t3 -37q0 -40 -12 -79.5t-34.5 -74t-56.5 -62.5q-25 -21 -56 -36z" />
<glyph unicode="&#x1ef2;" horiz-adv-x="986" d="M217 1181q15 0 24 -9t18 -26l284 -510l242 493q6 12 13 19t21 11t30 6t31 3.5t27.5 2t19.5 0.5q18 0 18 -12q0 -4 -2 -8t-4 -9l-359 -602v-513q0 -24 -24 -28q-17 -3 -37.5 -5.5t-40 -4t-36 -2t-24.5 -0.5q-24 0 -24 25v510l-277 494q-25 45 -47 62.5t-54 17.5 q-8 0 -18 -1.5t-23 -3.5l-6 55q44 9 85.5 15.5t75.5 11t57 6.5t30 2zM545 1256h-54l-159 247q-4 7 -4 11q0 12 17 15q24 6 55 8t49 2q15 0 21.5 -8t9.5 -19l72 -248z" />
<glyph unicode="&#x1ef3;" horiz-adv-x="817" d="M650 701q5 13 12 19.5t21 10.5q15 4 31 7t31 5t27.5 3.5t19.5 1.5q18 0 18 -12q0 -7 -5 -17q-36 -71 -74.5 -149.5t-77.5 -159t-76.5 -160.5t-71.5 -154t-62.5 -139.5t-49.5 -116.5q-18 -45 -42 -99t-58.5 -100.5t-81.5 -77.5t-111 -31q-26 0 -47 8t-36 22t-23 32t-8 39 q0 16 5.5 33.5t18.5 31.5q23 -13 44 -18.5t44 -5.5q28 0 55 9t53 31.5t52.5 60.5t53.5 97l58 128l-249 570q-20 47 -42 63t-53 16q-10 0 -21 -1t-23 -3l-6 48q41 12 83 22t78 17.5t61 11.5t32 4q15 0 22 -9.5t14 -26.5l193 -498h4zM490 826h-54l-183 327q-4 7 -4 12 q0 11 16 14q12 3 29 5t34.5 3.5t32.5 2t23 0.5q15 0 22.5 -8t10.5 -19l80 -329z" />
<glyph unicode="&#x1ef4;" horiz-adv-x="986" d="M217 1181q15 0 24 -9t18 -26l284 -510l242 493q6 12 13 19t21 11t30 6t31 3.5t27.5 2t19.5 0.5q18 0 18 -12q0 -4 -2 -8t-4 -9l-359 -602v-513q0 -24 -24 -28q-17 -3 -37.5 -5.5t-40 -4t-36 -2t-24.5 -0.5q-24 0 -24 25v510l-277 494q-25 45 -47 62.5t-54 17.5 q-8 0 -18 -1.5t-23 -3.5l-6 55q44 9 85.5 15.5t75.5 11t57 6.5t30 2zM583 -169q0 -51 -28 -75t-79 -24q-43 0 -66.5 27t-23.5 72q0 51 29 74t80 23q43 0 65.5 -26t22.5 -71z" />
<glyph unicode="&#x1ef5;" horiz-adv-x="817" d="M650 701q5 13 12 19.5t21 10.5q15 4 31 7t31 5t27.5 3.5t19.5 1.5q18 0 18 -12q0 -7 -5 -17q-36 -71 -74.5 -149.5t-77.5 -159t-76.5 -160.5t-71.5 -154t-62.5 -139.5t-49.5 -116.5q-18 -45 -42 -99t-58.5 -100.5t-81.5 -77.5t-111 -31q-26 0 -47 8t-36 22t-23 32t-8 39 q0 16 5.5 33.5t18.5 31.5q23 -13 44 -18.5t44 -5.5q28 0 55 9t53 31.5t52.5 60.5t53.5 97l58 128l-249 570q-20 47 -42 63t-53 16q-10 0 -21 -1t-23 -3l-6 48q41 12 83 22t78 17.5t61 11.5t32 4q15 0 22 -9.5t14 -26.5l193 -498h4zM654 -169q0 -51 -28 -75t-79 -24 q-43 0 -66.5 27t-23.5 72q0 51 29 74t80 23q43 0 65.5 -26t22.5 -71z" />
<glyph unicode="&#x1ef6;" horiz-adv-x="986" d="M217 1181q15 0 24 -9t18 -26l284 -510l242 493q6 12 13 19t21 11t30 6t31 3.5t27.5 2t19.5 0.5q18 0 18 -12q0 -4 -2 -8t-4 -9l-359 -602v-513q0 -24 -24 -28q-17 -3 -37.5 -5.5t-40 -4t-36 -2t-24.5 -0.5q-24 0 -24 25v510l-277 494q-25 45 -47 62.5t-54 17.5 q-8 0 -18 -1.5t-23 -3.5l-6 55q44 9 85.5 15.5t75.5 11t57 6.5t30 2zM468 1545q-31 50 -31 73q0 19 10.5 32.5t27 22t35 11.5t36.5 3q34 0 67.5 -9t59.5 -27t42.5 -45t16.5 -62q0 -23 -7.5 -41t-19.5 -33t-27 -27.5t-31 -23.5q-14 -9 -25.5 -17t-19 -15.5t-11.5 -15 t-4 -17.5q0 -9 4.5 -20.5t26.5 -42.5q-28 -19 -42 -24.5t-29 -5.5q-19 0 -34 7t-24.5 17.5t-14 23.5t-4.5 27q0 22 9.5 41t23.5 35t31 28.5t34 24.5q14 10 27.5 20t23 19t14 17t4.5 18q0 11 -5 18.5t-13.5 12t-21.5 7t-28 2.5q-47 0 -101 -34z" />
<glyph unicode="&#x1ef7;" horiz-adv-x="817" d="M650 701q5 13 12 19.5t21 10.5q15 4 31 7t31 5t27.5 3.5t19.5 1.5q18 0 18 -12q0 -7 -5 -17q-36 -71 -74.5 -149.5t-77.5 -159t-76.5 -160.5t-71.5 -154t-62.5 -139.5t-49.5 -116.5q-18 -45 -42 -99t-58.5 -100.5t-81.5 -77.5t-111 -31q-26 0 -47 8t-36 22t-23 32t-8 39 q0 16 5.5 33.5t18.5 31.5q23 -13 44 -18.5t44 -5.5q28 0 55 9t53 31.5t52.5 60.5t53.5 97l58 128l-249 570q-20 47 -42 63t-53 16q-10 0 -21 -1t-23 -3l-6 48q41 12 83 22t78 17.5t61 11.5t32 4q15 0 22 -9.5t14 -26.5l193 -498h4zM348 1093q-31 50 -31 73q0 19 10.5 32.5 t27 22t35 11.5t36.5 3q34 0 67.5 -9t59.5 -27t42.5 -45t16.5 -62q0 -23 -7.5 -41t-19.5 -33t-27 -27.5t-31 -23.5q-14 -9 -25.5 -17t-19 -15.5t-11.5 -15t-4 -17.5q0 -9 4.5 -20.5t26.5 -42.5q-28 -19 -42 -24.5t-29 -5.5q-19 0 -34 7t-24.5 17.5t-14 23.5t-4.5 27 q0 22 9.5 41t23.5 35t31 28.5t34 24.5q14 10 27.5 20t23 19t14 17t4.5 18q0 11 -5 18.5t-13.5 12t-21.5 7t-28 2.5q-47 0 -101 -34z" />
<glyph unicode="&#x1ef8;" horiz-adv-x="986" d="M217 1181q15 0 24 -9t18 -26l284 -510l242 493q6 12 13 19t21 11t30 6t31 3.5t27.5 2t19.5 0.5q18 0 18 -12q0 -4 -2 -8t-4 -9l-359 -602v-513q0 -24 -24 -28q-17 -3 -37.5 -5.5t-40 -4t-36 -2t-24.5 -0.5q-24 0 -24 25v510l-277 494q-25 45 -47 62.5t-54 17.5 q-8 0 -18 -1.5t-23 -3.5l-6 55q44 9 85.5 15.5t75.5 11t57 6.5t30 2zM901 1462q-54 -99 -103.5 -143t-92.5 -44q-25 0 -55.5 15.5t-61.5 33.5q-28 16 -52.5 29t-43.5 13q-24 0 -54.5 -26.5t-62.5 -68.5l-45 36q60 102 108 142.5t87 40.5q30 0 61.5 -15.5t61.5 -33.5 q27 -17 51 -29.5t43 -12.5q29 0 58.5 27t56.5 62z" />
<glyph unicode="&#x1ef9;" horiz-adv-x="817" d="M650 701q5 13 12 19.5t21 10.5q15 4 31 7t31 5t27.5 3.5t19.5 1.5q18 0 18 -12q0 -7 -5 -17q-36 -71 -74.5 -149.5t-77.5 -159t-76.5 -160.5t-71.5 -154t-62.5 -139.5t-49.5 -116.5q-18 -45 -42 -99t-58.5 -100.5t-81.5 -77.5t-111 -31q-26 0 -47 8t-36 22t-23 32t-8 39 q0 16 5.5 33.5t18.5 31.5q23 -13 44 -18.5t44 -5.5q28 0 55 9t53 31.5t52.5 60.5t53.5 97l58 128l-249 570q-20 47 -42 63t-53 16q-10 0 -21 -1t-23 -3l-6 48q41 12 83 22t78 17.5t61 11.5t32 4q15 0 22 -9.5t14 -26.5l193 -498h4zM754 1104q-54 -97 -105 -142t-94 -45 q-24 0 -54.5 15t-60.5 32q-29 17 -54.5 30t-45.5 13q-24 0 -55 -26t-63 -68l-48 36q31 51 58.5 85.5t52.5 56.5t47.5 31.5t42.5 9.5q32 0 65 -16.5t64 -34.5q26 -15 49 -27t41 -12q29 0 58.5 26.5t57.5 61.5z" />
<glyph unicode="&#x2018;" horiz-adv-x="380" d="M340 1237q-51 -42 -70.5 -93.5t-19.5 -102.5q0 -43 11 -81t28 -67q4 -9 1.5 -17t-12.5 -11q-20 -5 -41 -9t-39 -6.5t-32 -3.5t-20 -1q-14 0 -20 7t-11 18q-8 21 -11.5 42t-3.5 43q0 47 13 93.5t39.5 87.5t65.5 74t92 54z" />
<glyph unicode="&#x2019;" horiz-adv-x="380" d="M40 863q51 42 70.5 93.5t19.5 102.5q0 43 -11 81t-28 67q-4 9 -1.5 17t12.5 11q20 5 41 9t39 6.5t32 3.5t20 1q14 0 20 -7t11 -18q8 -21 11.5 -42t3.5 -43q0 -48 -13.5 -94t-39.5 -87t-65.5 -74t-91.5 -54z" />
<glyph unicode="&#x201c;" horiz-adv-x="640" d="M322 1237q-51 -42 -70.5 -93.5t-19.5 -102.5q0 -43 11 -81t28 -67q4 -9 1.5 -17t-12.5 -11q-20 -5 -41 -9t-39 -6.5t-32 -3.5t-20 -1q-14 0 -20 7t-11 18q-8 21 -11.5 42t-3.5 43q0 47 13 93.5t39.5 87.5t65.5 74t92 54zM600 1237q-51 -42 -70.5 -93.5t-19.5 -102.5 q0 -43 11 -81t28 -67q4 -9 1.5 -17t-12.5 -11q-20 -5 -41 -9t-39 -6.5t-32 -3.5t-20 -1q-14 0 -20 7t-11 18q-8 21 -11.5 42t-3.5 43q0 47 13 93.5t39.5 87.5t65.5 74t92 54z" />
<glyph unicode="&#x201d;" horiz-adv-x="640" d="M40 863q51 42 70.5 93.5t19.5 102.5q0 43 -11 81t-28 67q-4 9 -1.5 17t12.5 11q20 5 41 9t39 6.5t32 3.5t20 1q14 0 20 -7t11 -18q8 -21 11.5 -42t3.5 -43q0 -48 -13.5 -94t-39.5 -87t-65.5 -74t-91.5 -54zM320 863q51 42 70.5 93.5t19.5 102.5q0 43 -11 81t-28 67 q-4 9 -1.5 17t12.5 11q20 5 41 9t39 6.5t32 3.5t20 1q14 0 20 -7t11 -18q8 -21 11.5 -42t3.5 -43q0 -48 -13.5 -94t-39.5 -87t-65.5 -74t-91.5 -54z" />
<glyph unicode="&#x2026;" horiz-adv-x="1060" d="M290 78q0 -54 -30 -79.5t-85 -25.5q-45 0 -70 28.5t-25 76.5q0 55 30.5 80t85.5 25q46 0 70 -28t24 -77zM640 78q0 -54 -30 -79.5t-85 -25.5q-45 0 -70 28.5t-25 76.5q0 55 30.5 80t85.5 25q46 0 70 -28t24 -77zM990 78q0 -54 -30 -79.5t-85 -25.5q-45 0 -70 28.5 t-25 76.5q0 55 30.5 80t85.5 25q46 0 70 -28t24 -77z" />
<glyph unicode="&#x25fc;" horiz-adv-x="750" d="M0 750h750v-750h-750v750z" />
</font>
</defs>
</svg>
